STARTFONT 2.1
FONT -mplus-gothic-bold-R-normal--12-120-75-75-C-120-jisx0208.1990-0
SIZE 13 75 75
FONTBOUNDINGBOX 12 13 0 -2
STARTPROPERTIES 23
FONTNAME_REGISTRY ""
FOUNDRY "mplus"
FAMILY_NAME "gothic"
WEIGHT_NAME "bold"
SLANT "R"
SETWIDTH_NAME "normal"
ADD_STYLE_NAME ""
PIXEL_SIZE 12
POINT_SIZE 120
RESOLUTION_X 75
RESOLUTION_Y 75
SPACING "C"
AVERAGE_WIDTH 120
CHARSET_REGISTRY "jisx0208.1990"
CHARSET_ENCODING "0"
COPYRIGHT "Copyright (C) 2002-2004 COZ"
WEIGHT 10
X_HEIGHT 11
QUAD_WIDTH 12
_XMBDFED_INFO "Edited with xmbdfed 4.5."
DEFAULT_CHAR 8481
FONT_DESCENT 2
FONT_ASCENT 11
ENDPROPERTIES
CHARS 6963
STARTCHAR 0x2121
ENCODING 8481
SWIDTH 886 0
DWIDTH 12 0
BBX 12 13 0 -2
BITMAP
0000
0000
0000
0000
0000
0000
0000
0000
0000
0000
0000
0000
0000
ENDCHAR
STARTCHAR 0x2122
ENCODING 8482
SWIDTH 886 0
DWIDTH 12 0
BBX 12 13 0 -2
BITMAP
0000
0000
0000
0000
0000
0000
0000
0000
0000
0000
6000
3000
0000
ENDCHAR
STARTCHAR 0x2123
ENCODING 8483
SWIDTH 886 0
DWIDTH 12 0
BBX 12 13 0 -2
BITMAP
0000
0000
0000
0000
0000
0000
0000
0000
3800
6c00
6c00
3800
0000
ENDCHAR
STARTCHAR 0x2124
ENCODING 8484
SWIDTH 886 0
DWIDTH 12 0
BBX 12 13 0 -2
BITMAP
0000
0000
0000
0000
0000
0000
0000
0000
0000
3800
3800
7000
0000
ENDCHAR
STARTCHAR 0x2125
ENCODING 8485
SWIDTH 886 0
DWIDTH 12 0
BBX 12 13 0 -2
BITMAP
0000
0000
0000
0000
0000
0000
0000
0000
0000
3800
3800
0000
0000
ENDCHAR
STARTCHAR 0x2126
ENCODING 8486
SWIDTH 886 0
DWIDTH 12 0
BBX 12 13 0 -2
BITMAP
0000
0000
0000
0000
0000
0000
0e00
0e00
0000
0000
0000
0000
0000
ENDCHAR
STARTCHAR 0x2127
ENCODING 8487
SWIDTH 886 0
DWIDTH 12 0
BBX 12 13 0 -2
BITMAP
0000
0000
0000
0000
0e00
0e00
0000
0000
0e00
0e00
0000
0000
0000
ENDCHAR
STARTCHAR 0x2128
ENCODING 8488
SWIDTH 886 0
DWIDTH 12 0
BBX 12 13 0 -2
BITMAP
0000
0000
0000
0000
0e00
0e00
0000
0000
0e00
0e00
1c00
0000
0000
ENDCHAR
STARTCHAR 0x2129
ENCODING 8489
SWIDTH 886 0
DWIDTH 12 0
BBX 12 13 0 -2
BITMAP
0000
0f00
1980
30c0
00c0
0180
0300
0600
0600
0000
0600
0000
0000
ENDCHAR
STARTCHAR 0x212A
ENCODING 8490
SWIDTH 886 0
DWIDTH 12 0
BBX 12 13 0 -2
BITMAP
0000
0600
0600
0600
0600
0600
0600
0600
0000
0000
0600
0000
0000
ENDCHAR
STARTCHAR 0x212B
ENCODING 8491
SWIDTH 886 0
DWIDTH 12 0
BBX 12 13 0 -2
BITMAP
1800
6c00
3000
0000
0000
0000
0000
0000
0000
0000
0000
0000
0000
ENDCHAR
STARTCHAR 0x212C
ENCODING 8492
SWIDTH 886 0
DWIDTH 12 0
BBX 12 13 0 -2
BITMAP
3800
6c00
6c00
3800
0000
0000
0000
0000
0000
0000
0000
0000
0000
ENDCHAR
STARTCHAR 0x212D
ENCODING 8493
SWIDTH 886 0
DWIDTH 12 0
BBX 12 13 0 -2
BITMAP
0600
0c00
0000
0000
0000
0000
0000
0000
0000
0000
0000
0000
0000
ENDCHAR
STARTCHAR 0x212E
ENCODING 8494
SWIDTH 886 0
DWIDTH 12 0
BBX 12 13 0 -2
BITMAP
0c00
0600
0000
0000
0000
0000
0000
0000
0000
0000
0000
0000
0000
ENDCHAR
STARTCHAR 0x212F
ENCODING 8495
SWIDTH 886 0
DWIDTH 12 0
BBX 12 13 0 -2
BITMAP
1dc0
1dc0
0000
0000
0000
0000
0000
0000
0000
0000
0000
0000
0000
ENDCHAR
STARTCHAR 0x2130
ENCODING 8496
SWIDTH 886 0
DWIDTH 12 0
BBX 12 13 0 -2
BITMAP
0600
0d00
1980
0000
0000
0000
0000
0000
0000
0000
0000
0000
0000
ENDCHAR
STARTCHAR 0x2131
ENCODING 8497
SWIDTH 886 0
DWIDTH 12 0
BBX 12 13 0 -2
BITMAP
fff8
0000
0000
0000
0000
0000
0000
0000
0000
0000
0000
0000
0000
ENDCHAR
STARTCHAR 0x2132
ENCODING 8498
SWIDTH 886 0
DWIDTH 12 0
BBX 12 13 0 -2
BITMAP
0000
0000
0000
0000
0000
0000
0000
0000
0000
0000
0000
fff8
0000
ENDCHAR
STARTCHAR 0x2133
ENCODING 8499
SWIDTH 886 0
DWIDTH 12 0
BBX 12 13 0 -2
BITMAP
0000
0000
0000
1800
0c00
0600
0600
0300
0300
0000
0000
0000
0000
ENDCHAR
STARTCHAR 0x2134
ENCODING 8500
SWIDTH 886 0
DWIDTH 12 0
BBX 12 13 0 -2
BITMAP
0000
00c0
0360
3180
1800
0c00
0c00
0600
0600
0000
0000
0000
0000
ENDCHAR
STARTCHAR 0x2135
ENCODING 8501
SWIDTH 886 0
DWIDTH 12 0
BBX 12 13 0 -2
BITMAP
0000
0000
0000
0c00
0600
0300
0300
0180
0f80
0000
0000
0000
0000
ENDCHAR
STARTCHAR 0x2136
ENCODING 8502
SWIDTH 886 0
DWIDTH 12 0
BBX 12 13 0 -2
BITMAP
0000
00c0
0360
1980
0c00
0600
0600
0300
1f00
0000
0000
0000
0000
ENDCHAR
STARTCHAR 0x2137
ENCODING 8503
SWIDTH 886 0
DWIDTH 12 0
BBX 12 13 0 -2
BITMAP
0000
0000
0000
0d80
0d80
0d80
1b00
1b00
1b00
0000
0000
0000
0000
ENDCHAR
STARTCHAR 0x2138
ENCODING 8504
SWIDTH 886 0
DWIDTH 12 0
BBX 12 13 0 -2
BITMAP
0000
0f00
1980
30c0
6060
c030
3fc0
0600
0600
0600
0600
7fe0
0000
ENDCHAR
STARTCHAR 0x2139
ENCODING 8505
SWIDTH 886 0
DWIDTH 12 0
BBX 12 13 0 -2
BITMAP
0000
0000
1800
1800
1fc0
30c0
30c0
0180
0d00
0600
0300
0000
0000
ENDCHAR
STARTCHAR 0x213A
ENCODING 8506
SWIDTH 886 0
DWIDTH 12 0
BBX 12 13 0 -2
BITMAP
0000
0000
0060
00c0
1e80
3300
6680
6cc0
6860
7000
6000
0000
0000
ENDCHAR
STARTCHAR 0x213B
ENCODING 8507
SWIDTH 886 0
DWIDTH 12 0
BBX 12 13 0 -2
BITMAP
0000
0000
0f00
39c0
6060
c030
c030
c030
6060
39c0
0f00
0000
0000
ENDCHAR
STARTCHAR 0x213C
ENCODING 8508
SWIDTH 886 0
DWIDTH 12 0
BBX 12 13 0 -2
BITMAP
0000
0000
0000
0000
0000
6000
3fe0
0000
0000
0000
0000
0000
0000
ENDCHAR
STARTCHAR 0x213D
ENCODING 8509
SWIDTH 886 0
DWIDTH 12 0
BBX 12 13 0 -2
BITMAP
0000
0000
0000
0000
0000
0000
fff8
0000
0000
0000
0000
0000
0000
ENDCHAR
STARTCHAR 0x213E
ENCODING 8510
SWIDTH 886 0
DWIDTH 12 0
BBX 12 13 0 -2
BITMAP
0000
0000
0000
0000
0000
0000
0f00
0000
0000
0000
0000
0000
0000
ENDCHAR
STARTCHAR 0x213F
ENCODING 8511
SWIDTH 886 0
DWIDTH 12 0
BBX 12 13 0 -2
BITMAP
0000
0030
0060
00c0
0180
0300
0600
0c00
1800
3000
6000
c000
0000
ENDCHAR
STARTCHAR 0x2140
ENCODING 8512
SWIDTH 886 0
DWIDTH 12 0
BBX 12 13 0 -2
BITMAP
0000
c000
6000
3000
1800
0c00
0600
0300
0180
00c0
0060
0030
0000
ENDCHAR
STARTCHAR 0x2141
ENCODING 8513
SWIDTH 886 0
DWIDTH 12 0
BBX 12 13 0 -2
BITMAP
0000
0000
0000
0000
0000
3c00
6660
03c0
0000
0000
0000
0000
0000
ENDCHAR
STARTCHAR 0x2142
ENCODING 8514
SWIDTH 886 0
DWIDTH 12 0
BBX 12 13 0 -2
BITMAP
0d00
0d00
0d00
0d00
0d00
0d00
0d00
0d00
0d00
0d00
0d00
0d00
0d00
ENDCHAR
STARTCHAR 0x2143
ENCODING 8515
SWIDTH 886 0
DWIDTH 12 0
BBX 12 13 0 -2
BITMAP
0600
0600
0600
0600
0600
0600
0600
0600
0600
0600
0600
0600
0600
ENDCHAR
STARTCHAR 0x2144
ENCODING 8516
SWIDTH 886 0
DWIDTH 12 0
BBX 12 13 0 -2
BITMAP
0000
0000
0000
0000
0000
0000
7770
7770
0000
0000
0000
0000
0000
ENDCHAR
STARTCHAR 0x2145
ENCODING 8517
SWIDTH 886 0
DWIDTH 12 0
BBX 12 13 0 -2
BITMAP
0000
0000
0000
0000
0000
0000
39c0
39c0
0000
0000
0000
0000
0000
ENDCHAR
STARTCHAR 0x2146
ENCODING 8518
SWIDTH 886 0
DWIDTH 12 0
BBX 12 13 0 -2
BITMAP
00e0
01c0
01c0
0000
0000
0000
0000
0000
0000
0000
0000
0000
0000
ENDCHAR
STARTCHAR 0x2147
ENCODING 8519
SWIDTH 886 0
DWIDTH 12 0
BBX 12 13 0 -2
BITMAP
3800
3800
7000
0000
0000
0000
0000
0000
0000
0000
0000
0000
0000
ENDCHAR
STARTCHAR 0x2148
ENCODING 8520
SWIDTH 886 0
DWIDTH 12 0
BBX 12 13 0 -2
BITMAP
0760
0ec0
0ec0
0000
0000
0000
0000
0000
0000
0000
0000
0000
0000
ENDCHAR
STARTCHAR 0x2149
ENCODING 8521
SWIDTH 886 0
DWIDTH 12 0
BBX 12 13 0 -2
BITMAP
3b00
3b00
7600
0000
0000
0000
0000
0000
0000
0000
0000
0000
0000
ENDCHAR
STARTCHAR 0x214A
ENCODING 8522
SWIDTH 886 0
DWIDTH 12 0
BBX 12 13 0 -2
BITMAP
0060
00c0
0180
0180
0300
0300
0300
0300
0300
0180
0180
00c0
0060
ENDCHAR
STARTCHAR 0x214B
ENCODING 8523
SWIDTH 886 0
DWIDTH 12 0
BBX 12 13 0 -2
BITMAP
6000
3000
1800
1800
0c00
0c00
0c00
0c00
0c00
1800
1800
3000
6000
ENDCHAR
STARTCHAR 0x214C
ENCODING 8524
SWIDTH 886 0
DWIDTH 12 0
BBX 12 13 0 -2
BITMAP
0060
00c0
0180
0180
0180
0180
0180
0180
0180
0180
0180
00c0
0060
ENDCHAR
STARTCHAR 0x214D
ENCODING 8525
SWIDTH 886 0
DWIDTH 12 0
BBX 12 13 0 -2
BITMAP
6000
3000
1800
1800
1800
1800
1800
1800
1800
1800
1800
3000
6000
ENDCHAR
STARTCHAR 0x214E
ENCODING 8526
SWIDTH 886 0
DWIDTH 12 0
BBX 12 13 0 -2
BITMAP
03e0
0300
0300
0300
0300
0300
0300
0300
0300
0300
0300
0300
03e0
ENDCHAR
STARTCHAR 0x214F
ENCODING 8527
SWIDTH 886 0
DWIDTH 12 0
BBX 12 13 0 -2
BITMAP
7c00
0c00
0c00
0c00
0c00
0c00
0c00
0c00
0c00
0c00
0c00
0c00
7c00
ENDCHAR
STARTCHAR 0x2150
ENCODING 8528
SWIDTH 886 0
DWIDTH 12 0
BBX 12 13 0 -2
BITMAP
00e0
0180
0180
0180
0180
0180
0700
0180
0180
0180
0180
0180
00e0
ENDCHAR
STARTCHAR 0x2151
ENCODING 8529
SWIDTH 886 0
DWIDTH 12 0
BBX 12 13 0 -2
BITMAP
7000
1800
1800
1800
1800
1800
0e00
1800
1800
1800
1800
1800
7000
ENDCHAR
STARTCHAR 0x2152
ENCODING 8530
SWIDTH 886 0
DWIDTH 12 0
BBX 12 13 0 -2
BITMAP
0000
0060
0060
00c0
00c0
0180
0180
0180
00c0
00c0
0060
0060
0000
ENDCHAR
STARTCHAR 0x2153
ENCODING 8531
SWIDTH 886 0
DWIDTH 12 0
BBX 12 13 0 -2
BITMAP
0000
6000
6000
3000
3000
1800
1800
1800
3000
3000
6000
6000
0000
ENDCHAR
STARTCHAR 0x2154
ENCODING 8532
SWIDTH 886 0
DWIDTH 12 0
BBX 12 13 0 -2
BITMAP
0000
01b0
01b0
0360
0360
06c0
06c0
06c0
0360
0360
01b0
01b0
0000
ENDCHAR
STARTCHAR 0x2155
ENCODING 8533
SWIDTH 886 0
DWIDTH 12 0
BBX 12 13 0 -2
BITMAP
0000
d800
d800
6c00
6c00
3600
3600
3600
6c00
6c00
d800
d800
0000
ENDCHAR
STARTCHAR 0x2156
ENCODING 8534
SWIDTH 886 0
DWIDTH 12 0
BBX 12 13 0 -2
BITMAP
03e0
0300
0300
0300
0300
0300
0300
0300
0000
0000
0000
0000
0000
ENDCHAR
STARTCHAR 0x2157
ENCODING 8535
SWIDTH 886 0
DWIDTH 12 0
BBX 12 13 0 -2
BITMAP
0000
0000
0000
0000
0000
0c00
0c00
0c00
0c00
0c00
0c00
0c00
7c00
ENDCHAR
STARTCHAR 0x2158
ENCODING 8536
SWIDTH 886 0
DWIDTH 12 0
BBX 12 13 0 -2
BITMAP
0fe0
0c60
0de0
0d00
0d00
0d00
0d00
0d00
0f00
0000
0000
0000
0000
ENDCHAR
STARTCHAR 0x2159
ENCODING 8537
SWIDTH 886 0
DWIDTH 12 0
BBX 12 13 0 -2
BITMAP
0000
0000
0000
0000
0f00
0d00
0d00
0d00
0d00
0d00
7d00
6300
7f00
ENDCHAR
STARTCHAR 0x215A
ENCODING 8538
SWIDTH 886 0
DWIDTH 12 0
BBX 12 13 0 -2
BITMAP
03e0
03c0
0380
0380
0300
0300
0300
0300
0300
0380
0380
03c0
03e0
ENDCHAR
STARTCHAR 0x215B
ENCODING 8539
SWIDTH 886 0
DWIDTH 12 0
BBX 12 13 0 -2
BITMAP
7c00
3c00
1c00
1c00
0c00
0c00
0c00
0c00
0c00
1c00
1c00
3c00
7c00
ENDCHAR
STARTCHAR 0x215C
ENCODING 8540
SWIDTH 886 0
DWIDTH 12 0
BBX 12 13 0 -2
BITMAP
0000
0000
0600
0600
0600
0600
7fe0
0600
0600
0600
0600
0000
0000
ENDCHAR
STARTCHAR 0x215D
ENCODING 8541
SWIDTH 886 0
DWIDTH 12 0
BBX 12 13 0 -2
BITMAP
0000
0000
0000
0000
0000
0000
7fe0
0000
0000
0000
0000
0000
0000
ENDCHAR
STARTCHAR 0x215E
ENCODING 8542
SWIDTH 886 0
DWIDTH 12 0
BBX 12 13 0 -2
BITMAP
0000
0000
0600
0600
0600
3fc0
0600
0600
0600
0000
3fc0
0000
0000
ENDCHAR
STARTCHAR 0x215F
ENCODING 8543
SWIDTH 886 0
DWIDTH 12 0
BBX 12 13 0 -2
BITMAP
0000
0000
0000
30c0
1980
0d00
0600
0d00
1980
30c0
0000
0000
0000
ENDCHAR
STARTCHAR 0x2160
ENCODING 8544
SWIDTH 886 0
DWIDTH 12 0
BBX 12 13 0 -2
BITMAP
0000
0000
0600
0f00
0600
0000
7fe0
0000
0600
0f00
0600
0000
0000
ENDCHAR
STARTCHAR 0x2161
ENCODING 8545
SWIDTH 886 0
DWIDTH 12 0
BBX 12 13 0 -2
BITMAP
0000
0000
0000
0000
0000
7fe0
0000
0000
7fe0
0000
0000
0000
0000
ENDCHAR
STARTCHAR 0x2162
ENCODING 8546
SWIDTH 886 0
DWIDTH 12 0
BBX 12 13 0 -2
BITMAP
0000
0000
0000
00c0
0180
7fe0
0600
0c00
7fe0
3000
6000
0000
0000
ENDCHAR
STARTCHAR 0x2163
ENCODING 8547
SWIDTH 886 0
DWIDTH 12 0
BBX 12 13 0 -2
BITMAP
0000
0000
00e0
0380
0e00
3800
e000
3800
0e00
0380
00e0
0000
0000
ENDCHAR
STARTCHAR 0x2164
ENCODING 8548
SWIDTH 886 0
DWIDTH 12 0
BBX 12 13 0 -2
BITMAP
0000
0000
7000
1c00
0700
01c0
0070
01c0
0700
1c00
7000
0000
0000
ENDCHAR
STARTCHAR 0x2165
ENCODING 8549
SWIDTH 886 0
DWIDTH 12 0
BBX 12 13 0 -2
BITMAP
0000
0000
01e0
0f00
7800
0f00
01e0
0000
7fe0
0000
7fe0
0000
0000
ENDCHAR
STARTCHAR 0x2166
ENCODING 8550
SWIDTH 886 0
DWIDTH 12 0
BBX 12 13 0 -2
BITMAP
0000
0000
7800
0f00
01e0
0f00
7800
0000
7fe0
0000
7fe0
0000
0000
ENDCHAR
STARTCHAR 0x2167
ENCODING 8551
SWIDTH 886 0
DWIDTH 12 0
BBX 12 13 0 -2
BITMAP
0000
0000
0000
0000
39c0
6d60
c630
c630
6d60
39c0
0000
0000
0000
ENDCHAR
STARTCHAR 0x2168
ENCODING 8552
SWIDTH 886 0
DWIDTH 12 0
BBX 12 13 0 -2
BITMAP
0000
0000
0600
0f00
0600
0000
0000
30c0
79e0
30c0
0000
0000
0000
ENDCHAR
STARTCHAR 0x2169
ENCODING 8553
SWIDTH 886 0
DWIDTH 12 0
BBX 12 13 0 -2
BITMAP
0000
0000
07e0
00e0
01a0
0360
3e60
6600
6600
6600
3c00
0000
0000
ENDCHAR
STARTCHAR 0x216A
ENCODING 8554
SWIDTH 886 0
DWIDTH 12 0
BBX 12 13 0 -2
BITMAP
0000
0f00
1980
1980
1980
0f00
0600
0600
3fc0
0600
0600
0000
0000
ENDCHAR
STARTCHAR 0x216B
ENCODING 8555
SWIDTH 886 0
DWIDTH 12 0
BBX 12 13 0 -2
BITMAP
0000
3800
6c00
6c00
3800
0000
0000
0000
0000
0000
0000
0000
0000
ENDCHAR
STARTCHAR 0x216C
ENCODING 8556
SWIDTH 886 0
DWIDTH 12 0
BBX 12 13 0 -2
BITMAP
0000
1800
3000
6000
0000
0000
0000
0000
0000
0000
0000
0000
0000
ENDCHAR
STARTCHAR 0x216D
ENCODING 8557
SWIDTH 886 0
DWIDTH 12 0
BBX 12 13 0 -2
BITMAP
0000
1b00
3600
6c00
0000
0000
0000
0000
0000
0000
0000
0000
0000
ENDCHAR
STARTCHAR 0x216E
ENCODING 8558
SWIDTH 886 0
DWIDTH 12 0
BBX 12 13 0 -2
BITMAP
3800
6c00
6c00
3bc0
0660
0c00
0c00
0c00
0c00
0660
03c0
0000
0000
ENDCHAR
STARTCHAR 0x216F
ENCODING 8559
SWIDTH 886 0
DWIDTH 12 0
BBX 12 13 0 -2
BITMAP
0000
30c0
30c0
1980
1980
3fc0
0600
0600
3fc0
0600
0600
0000
0000
ENDCHAR
STARTCHAR 0x2170
ENCODING 8560
SWIDTH 886 0
DWIDTH 12 0
BBX 12 13 0 -2
BITMAP
0000
0600
1f80
36c0
3600
1f80
06c0
06c0
36c0
1f80
0600
0000
0000
ENDCHAR
STARTCHAR 0x2171
ENCODING 8561
SWIDTH 886 0
DWIDTH 12 0
BBX 12 13 0 -2
BITMAP
0000
00c0
00c0
0780
0dc0
1b00
1b00
1b00
0ec0
0780
0c00
0c00
0000
ENDCHAR
STARTCHAR 0x2172
ENCODING 8562
SWIDTH 886 0
DWIDTH 12 0
BBX 12 13 0 -2
BITMAP
0000
0780
0cc0
0c00
0c00
7f80
0c00
3c00
6c00
6e60
3bc0
0000
0000
ENDCHAR
STARTCHAR 0x2173
ENCODING 8563
SWIDTH 886 0
DWIDTH 12 0
BBX 12 13 0 -2
BITMAP
0000
3980
6d80
6d00
6d00
3a00
06c0
0d60
0d60
1b60
19c0
0000
0000
ENDCHAR
STARTCHAR 0x2174
ENCODING 8564
SWIDTH 886 0
DWIDTH 12 0
BBX 12 13 0 -2
BITMAP
0000
0d80
0d80
0d80
3fe0
0d80
0d80
3fe0
0d80
0d80
0d80
0000
0000
ENDCHAR
STARTCHAR 0x2175
ENCODING 8565
SWIDTH 886 0
DWIDTH 12 0
BBX 12 13 0 -2
BITMAP
0000
0e00
1b00
1b00
1b00
0ee0
1ac0
3340
3180
3340
1e60
0000
0000
ENDCHAR
STARTCHAR 0x2176
ENCODING 8566
SWIDTH 886 0
DWIDTH 12 0
BBX 12 13 0 -2
BITMAP
0000
0600
36c0
1a80
0f00
1a80
36c0
0600
0000
0000
0000
0000
0000
ENDCHAR
STARTCHAR 0x2177
ENCODING 8567
SWIDTH 886 0
DWIDTH 12 0
BBX 12 13 0 -2
BITMAP
0000
0f80
38c0
3760
6da0
6da0
6da0
6da0
37c0
3800
0f00
0000
0000
ENDCHAR
STARTCHAR 0x2178
ENCODING 8568
SWIDTH 886 0
DWIDTH 12 0
BBX 12 13 0 -2
BITMAP
0f00
1980
1980
0c00
0f00
1980
1980
0f00
0300
1980
1980
0f00
0000
ENDCHAR
STARTCHAR 0x2179
ENCODING 8569
SWIDTH 886 0
DWIDTH 12 0
BBX 12 13 0 -2
BITMAP
0600
0600
0d00
0d00
fdf0
30c0
1980
1a80
3540
39c0
6060
0000
0000
ENDCHAR
STARTCHAR 0x217A
ENCODING 8570
SWIDTH 886 0
DWIDTH 12 0
BBX 12 13 0 -2
BITMAP
0600
0600
0f00
0f00
fff0
3fc0
1f80
1f80
3dc0
39c0
6060
0000
0000
ENDCHAR
STARTCHAR 0x217B
ENCODING 8571
SWIDTH 886 0
DWIDTH 12 0
BBX 12 13 0 -2
BITMAP
0000
0700
1dc0
3060
3060
6030
6030
3060
3060
1dc0
0700
0000
0000
ENDCHAR
STARTCHAR 0x217C
ENCODING 8572
SWIDTH 886 0
DWIDTH 12 0
BBX 12 13 0 -2
BITMAP
0000
0700
1fc0
3fe0
3fe0
7ff0
7ff0
3fe0
3fe0
1fc0
0700
0000
0000
ENDCHAR
STARTCHAR 0x217D
ENCODING 8573
SWIDTH 886 0
DWIDTH 12 0
BBX 12 13 0 -2
BITMAP
0000
0700
1dc0
3060
3760
6db0
6db0
3760
3060
1dc0
0700
0000
0000
ENDCHAR
STARTCHAR 0x217E
ENCODING 8574
SWIDTH 886 0
DWIDTH 12 0
BBX 12 13 0 -2
BITMAP
0000
0600
0d00
1980
30c0
6060
c030
6060
30c0
1980
0d00
0600
0000
ENDCHAR
STARTCHAR 0x2221
ENCODING 8737
SWIDTH 886 0
DWIDTH 12 0
BBX 12 13 0 -2
BITMAP
0000
0600
0f00
1f80
3fc0
7fe0
fff0
7fe0
3fc0
1f80
0f00
0600
0000
ENDCHAR
STARTCHAR 0x2222
ENCODING 8738
SWIDTH 886 0
DWIDTH 12 0
BBX 12 13 0 -2
BITMAP
0000
0000
7fe0
6060
6060
6060
6060
6060
6060
6060
7fe0
0000
0000
ENDCHAR
STARTCHAR 0x2223
ENCODING 8739
SWIDTH 886 0
DWIDTH 12 0
BBX 12 13 0 -2
BITMAP
0000
0000
7fe0
7fe0
7fe0
7fe0
7fe0
7fe0
7fe0
7fe0
7fe0
0000
0000
ENDCHAR
STARTCHAR 0x2224
ENCODING 8740
SWIDTH 886 0
DWIDTH 12 0
BBX 12 13 0 -2
BITMAP
0000
0000
0600
0d00
0d00
1980
1980
30c0
30c0
6060
7fe0
0000
0000
ENDCHAR
STARTCHAR 0x2225
ENCODING 8741
SWIDTH 886 0
DWIDTH 12 0
BBX 12 13 0 -2
BITMAP
0000
0000
0600
0f00
0f00
1f80
1f80
3fc0
3fc0
7fe0
7fe0
0000
0000
ENDCHAR
STARTCHAR 0x2226
ENCODING 8742
SWIDTH 886 0
DWIDTH 12 0
BBX 12 13 0 -2
BITMAP
0000
0000
7fe0
6060
30c0
30c0
1980
1980
0d00
0d00
0600
0000
0000
ENDCHAR
STARTCHAR 0x2227
ENCODING 8743
SWIDTH 886 0
DWIDTH 12 0
BBX 12 13 0 -2
BITMAP
0000
0000
7fe0
7fe0
3fc0
3fc0
1f80
1f80
0f00
0f00
0600
0000
0000
ENDCHAR
STARTCHAR 0x2228
ENCODING 8744
SWIDTH 886 0
DWIDTH 12 0
BBX 12 13 0 -2
BITMAP
0000
0600
6f60
36c0
1980
6d60
f6f0
6d60
1980
36c0
6f60
0600
0000
ENDCHAR
STARTCHAR 0x2229
ENCODING 8745
SWIDTH 886 0
DWIDTH 12 0
BBX 12 13 0 -2
BITMAP
0000
7fe0
0000
0000
0000
7fe0
0600
0600
0600
0600
0600
0000
0000
ENDCHAR
STARTCHAR 0x222A
ENCODING 8746
SWIDTH 886 0
DWIDTH 12 0
BBX 12 13 0 -2
BITMAP
0000
0000
0300
0180
00c0
0060
fff0
0060
00c0
0180
0300
0000
0000
ENDCHAR
STARTCHAR 0x222B
ENCODING 8747
SWIDTH 886 0
DWIDTH 12 0
BBX 12 13 0 -2
BITMAP
0000
0000
0c00
1800
3000
6000
fff0
6000
3000
1800
0c00
0000
0000
ENDCHAR
STARTCHAR 0x222C
ENCODING 8748
SWIDTH 886 0
DWIDTH 12 0
BBX 12 13 0 -2
BITMAP
0000
0600
0f00
1a80
36c0
6660
0600
0600
0600
0600
0600
0600
0000
ENDCHAR
STARTCHAR 0x222D
ENCODING 8749
SWIDTH 886 0
DWIDTH 12 0
BBX 12 13 0 -2
BITMAP
0000
0600
0600
0600
0600
0600
0600
6660
36c0
1a80
0f00
0600
0000
ENDCHAR
STARTCHAR 0x222E
ENCODING 8750
SWIDTH 886 0
DWIDTH 12 0
BBX 12 13 0 -2
BITMAP
0000
0000
0000
7fe0
7fe0
7fe0
0000
7fe0
7fe0
7fe0
0000
0000
0000
ENDCHAR
STARTCHAR 0x223A
ENCODING 8762
SWIDTH 886 0
DWIDTH 12 0
BBX 12 13 0 -2
BITMAP
0000
0000
0000
1fe0
3000
6000
7fe0
6000
3000
1fe0
0000
0000
0000
ENDCHAR
STARTCHAR 0x223B
ENCODING 8763
SWIDTH 886 0
DWIDTH 12 0
BBX 12 13 0 -2
BITMAP
0000
0000
0000
7f80
00c0
0060
7fe0
0060
00c0
7f80
0000
0000
0000
ENDCHAR
STARTCHAR 0x223C
ENCODING 8764
SWIDTH 886 0
DWIDTH 12 0
BBX 12 13 0 -2
BITMAP
0000
0000
1fe0
3000
6000
6000
3000
1fe0
0000
0000
7fe0
0000
0000
ENDCHAR
STARTCHAR 0x223D
ENCODING 8765
SWIDTH 886 0
DWIDTH 12 0
BBX 12 13 0 -2
BITMAP
0000
0000
7f80
00c0
0060
0060
00c0
7f80
0000
0000
7fe0
0000
0000
ENDCHAR
STARTCHAR 0x223E
ENCODING 8766
SWIDTH 886 0
DWIDTH 12 0
BBX 12 13 0 -2
BITMAP
0000
0000
0000
1fe0
3000
6000
6000
6000
3000
1fe0
0000
0000
0000
ENDCHAR
STARTCHAR 0x223F
ENCODING 8767
SWIDTH 886 0
DWIDTH 12 0
BBX 12 13 0 -2
BITMAP
0000
0000
0000
7f80
00c0
0060
0060
0060
00c0
7f80
0000
0000
0000
ENDCHAR
STARTCHAR 0x2240
ENCODING 8768
SWIDTH 886 0
DWIDTH 12 0
BBX 12 13 0 -2
BITMAP
0000
0000
30c0
30c0
30c0
30c0
30c0
30c0
30c0
1980
0f00
0000
0000
ENDCHAR
STARTCHAR 0x2241
ENCODING 8769
SWIDTH 886 0
DWIDTH 12 0
BBX 12 13 0 -2
BITMAP
0000
0000
0f00
1980
30c0
30c0
30c0
30c0
30c0
30c0
30c0
0000
0000
ENDCHAR
STARTCHAR 0x224A
ENCODING 8778
SWIDTH 886 0
DWIDTH 12 0
BBX 12 13 0 -2
BITMAP
0000
0600
0600
0d00
0d00
1980
1980
30c0
30c0
6060
6060
0000
0000
ENDCHAR
STARTCHAR 0x224B
ENCODING 8779
SWIDTH 886 0
DWIDTH 12 0
BBX 12 13 0 -2
BITMAP
0000
6060
6060
30c0
30c0
1980
1980
0d00
0d00
0600
0600
0000
0000
ENDCHAR
STARTCHAR 0x224C
ENCODING 8780
SWIDTH 886 0
DWIDTH 12 0
BBX 12 13 0 -2
BITMAP
0000
0000
0000
0000
0000
0000
7fe0
0060
0060
0000
0000
0000
0000
ENDCHAR
STARTCHAR 0x224D
ENCODING 8781
SWIDTH 886 0
DWIDTH 12 0
BBX 12 13 0 -2
BITMAP
0000
0000
0000
0180
00c0
ffe0
0030
ffe0
00c0
0180
0000
0000
0000
ENDCHAR
STARTCHAR 0x224E
ENCODING 8782
SWIDTH 886 0
DWIDTH 12 0
BBX 12 13 0 -2
BITMAP
0000
0000
0000
1980
30c0
7fe0
c030
7fe0
30c0
1980
0000
0000
0000
ENDCHAR
STARTCHAR 0x224F
ENCODING 8783
SWIDTH 886 0
DWIDTH 12 0
BBX 12 13 0 -2
BITMAP
0000
6060
6060
30c0
3fc0
1980
1980
0d00
0d00
0600
0600
0000
0000
ENDCHAR
STARTCHAR 0x2250
ENCODING 8784
SWIDTH 886 0
DWIDTH 12 0
BBX 12 13 0 -2
BITMAP
0000
3fc0
00c0
00c0
00c0
3fc0
00c0
00c0
00c0
00c0
3fc0
0000
0000
ENDCHAR
STARTCHAR 0x225C
ENCODING 8796
SWIDTH 886 0
DWIDTH 12 0
BBX 12 13 0 -2
BITMAP
0000
0000
00c0
0180
0300
0600
0c00
1800
3000
7fe0
0000
0000
0000
ENDCHAR
STARTCHAR 0x225D
ENCODING 8797
SWIDTH 886 0
DWIDTH 12 0
BBX 12 13 0 -2
BITMAP
0000
0000
0600
0600
0600
0600
0600
0600
0600
7fe0
0000
0000
0000
ENDCHAR
STARTCHAR 0x225E
ENCODING 8798
SWIDTH 886 0
DWIDTH 12 0
BBX 12 13 0 -2
BITMAP
1f80
70e0
c030
0000
0000
0000
0000
0000
0000
0000
0000
0000
0000
ENDCHAR
STARTCHAR 0x225F
ENCODING 8799
SWIDTH 886 0
DWIDTH 12 0
BBX 12 13 0 -2
BITMAP
0000
0000
0780
0cc0
00c0
00c0
0f40
1980
3180
3300
1e00
0000
0000
ENDCHAR
STARTCHAR 0x2260
ENCODING 8800
SWIDTH 886 0
DWIDTH 12 0
BBX 12 13 0 -2
BITMAP
0000
0000
7fe0
7fe0
38c0
38c0
1d80
1d80
0d00
0f00
0600
0000
0000
ENDCHAR
STARTCHAR 0x2261
ENCODING 8801
SWIDTH 886 0
DWIDTH 12 0
BBX 12 13 0 -2
BITMAP
0000
0000
0000
7fe0
0000
0000
7fe0
0000
0000
7fe0
0000
0000
0000
ENDCHAR
STARTCHAR 0x2262
ENCODING 8802
SWIDTH 886 0
DWIDTH 12 0
BBX 12 13 0 -2
BITMAP
0000
0000
3800
3800
0000
7fe0
0000
7fe0
0000
01c0
01c0
0000
0000
ENDCHAR
STARTCHAR 0x2263
ENCODING 8803
SWIDTH 886 0
DWIDTH 12 0
BBX 12 13 0 -2
BITMAP
0000
0000
0660
0cc0
1980
3300
6600
3300
1980
0cc0
0660
0000
0000
ENDCHAR
STARTCHAR 0x2264
ENCODING 8804
SWIDTH 886 0
DWIDTH 12 0
BBX 12 13 0 -2
BITMAP
0000
0000
cc00
6600
3300
1980
0cc0
1980
3300
6600
cc00
0000
0000
ENDCHAR
STARTCHAR 0x2265
ENCODING 8805
SWIDTH 886 0
DWIDTH 12 0
BBX 12 13 0 -2
BITMAP
03f0
0300
0300
0600
0600
6600
6c00
d400
d400
1800
1800
0000
0000
ENDCHAR
STARTCHAR 0x2266
ENCODING 8806
SWIDTH 886 0
DWIDTH 12 0
BBX 12 13 0 -2
BITMAP
0000
0000
0000
31c0
6360
c630
c630
6c60
38c0
0000
0000
0000
0000
ENDCHAR
STARTCHAR 0x2267
ENCODING 8807
SWIDTH 886 0
DWIDTH 12 0
BBX 12 13 0 -2
BITMAP
0000
0000
0000
39c0
6d60
c600
c600
6d60
39c0
0000
0000
0000
0000
ENDCHAR
STARTCHAR 0x2268
ENCODING 8808
SWIDTH 886 0
DWIDTH 12 0
BBX 12 13 0 -2
BITMAP
0000
0000
30c0
79e0
30c0
0000
0000
0600
0f00
0600
0000
0000
0000
ENDCHAR
STARTCHAR 0x2269
ENCODING 8809
SWIDTH 886 0
DWIDTH 12 0
BBX 12 13 0 -2
BITMAP
0700
0d00
0c00
0c00
0c00
0600
0600
0300
0300
0300
0d00
0e00
0000
ENDCHAR
STARTCHAR 0x226A
ENCODING 8810
SWIDTH 886 0
DWIDTH 12 0
BBX 12 13 0 -2
BITMAP
1dc0
3540
3300
3300
3300
1980
1980
0cc0
0cc0
0cc0
3540
3b80
0000
ENDCHAR
STARTCHAR 0x2272
ENCODING 8818
SWIDTH 886 0
DWIDTH 12 0
BBX 12 13 0 -2
BITMAP
0700
0d80
0d80
0700
0600
0d00
0d00
1980
1f80
30c0
30c0
0000
0000
ENDCHAR
STARTCHAR 0x2273
ENCODING 8819
SWIDTH 886 0
DWIDTH 12 0
BBX 12 13 0 -2
BITMAP
0000
7300
db00
da00
da00
7400
0f60
1db0
1db0
35b0
3760
0000
0000
ENDCHAR
STARTCHAR 0x2274
ENCODING 8820
SWIDTH 886 0
DWIDTH 12 0
BBX 12 13 0 -2
BITMAP
0000
0d80
0d80
0de0
0f80
3d80
0de0
0f80
3d80
0d80
0d80
0000
0000
ENDCHAR
STARTCHAR 0x2275
ENCODING 8821
SWIDTH 886 0
DWIDTH 12 0
BBX 12 13 0 -2
BITMAP
0000
1800
1800
1800
1b00
1d80
1980
1980
1b00
1a00
1c00
0000
0000
ENDCHAR
STARTCHAR 0x2276
ENCODING 8822
SWIDTH 886 0
DWIDTH 12 0
BBX 12 13 0 -2
BITMAP
0000
0600
0700
0680
06c0
06c0
0680
0600
1e00
3e00
3c00
0000
0000
ENDCHAR
STARTCHAR 0x2277
ENCODING 8823
SWIDTH 886 0
DWIDTH 12 0
BBX 12 13 0 -2
BITMAP
0600
0600
1f80
0600
0600
0f00
0f00
0f00
0600
0600
0600
0600
0000
ENDCHAR
STARTCHAR 0x2278
ENCODING 8824
SWIDTH 886 0
DWIDTH 12 0
BBX 12 13 0 -2
BITMAP
0600
0600
1f80
0600
0f00
0600
0600
0f00
0600
1f80
0600
0600
0000
ENDCHAR
STARTCHAR 0x2279
ENCODING 8825
SWIDTH 886 0
DWIDTH 12 0
BBX 12 13 0 -2
BITMAP
0000
0f80
1e80
3e80
3e80
1e80
0e80
0680
0680
0680
0680
0000
0000
ENDCHAR
STARTCHAR 0x227E
ENCODING 8830
SWIDTH 886 0
DWIDTH 12 0
BBX 12 13 0 -2
BITMAP
0000
0f00
39c0
6060
6060
c030
c030
c030
6060
6060
39c0
0f00
0000
ENDCHAR
STARTCHAR 0x2330
ENCODING 9008
SWIDTH 886 0
DWIDTH 12 0
BBX 12 13 0 -2
BITMAP
0000
0f00
1980
30c0
30c0
30c0
30c0
30c0
30c0
1980
0f00
0000
0000
ENDCHAR
STARTCHAR 0x2331
ENCODING 9009
SWIDTH 886 0
DWIDTH 12 0
BBX 12 13 0 -2
BITMAP
0000
0600
0e00
1a00
3600
0600
0600
0600
0600
0600
0600
0000
0000
ENDCHAR
STARTCHAR 0x2332
ENCODING 9010
SWIDTH 886 0
DWIDTH 12 0
BBX 12 13 0 -2
BITMAP
0000
0f00
1980
30c0
00c0
0180
0300
0600
0c00
1800
3fc0
0000
0000
ENDCHAR
STARTCHAR 0x2333
ENCODING 9011
SWIDTH 886 0
DWIDTH 12 0
BBX 12 13 0 -2
BITMAP
0000
3fc0
0180
0300
0600
0f00
0180
00c0
30c0
1980
0f00
0000
0000
ENDCHAR
STARTCHAR 0x2334
ENCODING 9012
SWIDTH 886 0
DWIDTH 12 0
BBX 12 13 0 -2
BITMAP
0000
0700
0d00
0d00
1b00
1b00
3300
3300
7fc0
0300
0300
0000
0000
ENDCHAR
STARTCHAR 0x2335
ENCODING 9013
SWIDTH 886 0
DWIDTH 12 0
BBX 12 13 0 -2
BITMAP
0000
3fc0
3000
3000
3700
3980
00c0
00c0
00c0
3180
1f00
0000
0000
ENDCHAR
STARTCHAR 0x2336
ENCODING 9014
SWIDTH 886 0
DWIDTH 12 0
BBX 12 13 0 -2
BITMAP
0000
0f80
1800
3000
3700
3980
30c0
30c0
30c0
1980
0f00
0000
0000
ENDCHAR
STARTCHAR 0x2337
ENCODING 9015
SWIDTH 886 0
DWIDTH 12 0
BBX 12 13 0 -2
BITMAP
0000
3fc0
00c0
0180
0180
0300
0300
0600
0600
0c00
0c00
0000
0000
ENDCHAR
STARTCHAR 0x2338
ENCODING 9016
SWIDTH 886 0
DWIDTH 12 0
BBX 12 13 0 -2
BITMAP
0000
0f00
1980
30c0
1980
0f00
1980
30c0
30c0
1980
0f00
0000
0000
ENDCHAR
STARTCHAR 0x2339
ENCODING 9017
SWIDTH 886 0
DWIDTH 12 0
BBX 12 13 0 -2
BITMAP
0000
0f00
1980
30c0
30c0
30c0
19c0
0f40
00c0
0180
1f00
0000
0000
ENDCHAR
STARTCHAR 0x2341
ENCODING 9025
SWIDTH 886 0
DWIDTH 12 0
BBX 12 13 0 -2
BITMAP
0000
0600
0600
0d00
0d00
1980
1980
3fc0
30c0
6060
6060
0000
0000
ENDCHAR
STARTCHAR 0x2342
ENCODING 9026
SWIDTH 886 0
DWIDTH 12 0
BBX 12 13 0 -2
BITMAP
0000
3f80
30c0
30c0
30c0
3f80
30c0
3060
3060
30c0
3f80
0000
0000
ENDCHAR
STARTCHAR 0x2343
ENCODING 9027
SWIDTH 886 0
DWIDTH 12 0
BBX 12 13 0 -2
BITMAP
0000
0fc0
1860
3000
3000
3000
3000
3000
3000
1860
0fc0
0000
0000
ENDCHAR
STARTCHAR 0x2344
ENCODING 9028
SWIDTH 886 0
DWIDTH 12 0
BBX 12 13 0 -2
BITMAP
0000
3f00
31c0
30c0
3060
3060
3060
3060
30c0
31c0
3f00
0000
0000
ENDCHAR
STARTCHAR 0x2345
ENCODING 9029
SWIDTH 886 0
DWIDTH 12 0
BBX 12 13 0 -2
BITMAP
0000
3fc0
3000
3000
3000
3f80
3000
3000
3000
3000
3fc0
0000
0000
ENDCHAR
STARTCHAR 0x2346
ENCODING 9030
SWIDTH 886 0
DWIDTH 12 0
BBX 12 13 0 -2
BITMAP
0000
3fc0
3000
3000
3000
3f80
3000
3000
3000
3000
3000
0000
0000
ENDCHAR
STARTCHAR 0x2347
ENCODING 9031
SWIDTH 886 0
DWIDTH 12 0
BBX 12 13 0 -2
BITMAP
0000
0fc0
1860
3000
3000
33e0
3060
3060
3060
18e0
0fa0
0000
0000
ENDCHAR
STARTCHAR 0x2348
ENCODING 9032
SWIDTH 886 0
DWIDTH 12 0
BBX 12 13 0 -2
BITMAP
0000
3060
3060
3060
3060
3fe0
3060
3060
3060
3060
3060
0000
0000
ENDCHAR
STARTCHAR 0x2349
ENCODING 9033
SWIDTH 886 0
DWIDTH 12 0
BBX 12 13 0 -2
BITMAP
0000
0600
0600
0600
0600
0600
0600
0600
0600
0600
0600
0000
0000
ENDCHAR
STARTCHAR 0x234A
ENCODING 9034
SWIDTH 886 0
DWIDTH 12 0
BBX 12 13 0 -2
BITMAP
0000
0180
0180
0180
0180
0180
6180
6180
6180
3300
1e00
0000
0000
ENDCHAR
STARTCHAR 0x234B
ENCODING 9035
SWIDTH 886 0
DWIDTH 12 0
BBX 12 13 0 -2
BITMAP
0000
30c0
3180
3300
3600
3400
3a00
3300
3180
30c0
3060
0000
0000
ENDCHAR
STARTCHAR 0x234C
ENCODING 9036
SWIDTH 886 0
DWIDTH 12 0
BBX 12 13 0 -2
BITMAP
0000
3000
3000
3000
3000
3000
3000
3000
3000
3000
3fc0
0000
0000
ENDCHAR
STARTCHAR 0x234D
ENCODING 9037
SWIDTH 886 0
DWIDTH 12 0
BBX 12 13 0 -2
BITMAP
0000
6060
70e0
69a0
6d60
6660
6060
6060
6060
6060
6060
0000
0000
ENDCHAR
STARTCHAR 0x234E
ENCODING 9038
SWIDTH 886 0
DWIDTH 12 0
BBX 12 13 0 -2
BITMAP
0000
30c0
38c0
34c0
36c0
3340
31c0
30c0
30c0
30c0
30c0
0000
0000
ENDCHAR
STARTCHAR 0x234F
ENCODING 9039
SWIDTH 886 0
DWIDTH 12 0
BBX 12 13 0 -2
BITMAP
0000
0f80
18c0
3060
3060
3060
3060
3060
3060
18c0
0f80
0000
0000
ENDCHAR
STARTCHAR 0x2350
ENCODING 9040
SWIDTH 886 0
DWIDTH 12 0
BBX 12 13 0 -2
BITMAP
0000
3f00
3180
30c0
30c0
3180
3f00
3000
3000
3000
3000
0000
0000
ENDCHAR
STARTCHAR 0x2351
ENCODING 9041
SWIDTH 886 0
DWIDTH 12 0
BBX 12 13 0 -2
BITMAP
0000
0f80
18c0
3060
3060
3060
3060
3060
3060
18c0
0f80
0300
01e0
ENDCHAR
STARTCHAR 0x2352
ENCODING 9042
SWIDTH 886 0
DWIDTH 12 0
BBX 12 13 0 -2
BITMAP
0000
3f00
3180
30c0
30c0
3180
3f00
3180
3180
30c0
30c0
0000
0000
ENDCHAR
STARTCHAR 0x2353
ENCODING 9043
SWIDTH 886 0
DWIDTH 12 0
BBX 12 13 0 -2
BITMAP
0000
0f80
18c0
3060
1800
0f80
00c0
0060
3060
18c0
0f80
0000
0000
ENDCHAR
STARTCHAR 0x2354
ENCODING 9044
SWIDTH 886 0
DWIDTH 12 0
BBX 12 13 0 -2
BITMAP
0000
7fe0
0600
0600
0600
0600
0600
0600
0600
0600
0600
0000
0000
ENDCHAR
STARTCHAR 0x2355
ENCODING 9045
SWIDTH 886 0
DWIDTH 12 0
BBX 12 13 0 -2
BITMAP
0000
30c0
30c0
30c0
30c0
30c0
30c0
30c0
30c0
1980
0f00
0000
0000
ENDCHAR
STARTCHAR 0x2356
ENCODING 9046
SWIDTH 886 0
DWIDTH 12 0
BBX 12 13 0 -2
BITMAP
0000
30c0
30c0
30c0
1980
1980
1980
0d00
0d00
0600
0600
0000
0000
ENDCHAR
STARTCHAR 0x2357
ENCODING 9047
SWIDTH 886 0
DWIDTH 12 0
BBX 12 13 0 -2
BITMAP
0000
6660
6660
6660
6660
3540
3540
3540
1980
1980
1980
0000
0000
ENDCHAR
STARTCHAR 0x2358
ENCODING 9048
SWIDTH 886 0
DWIDTH 12 0
BBX 12 13 0 -2
BITMAP
0000
30c0
30c0
1980
0d00
0600
0600
0d00
1980
30c0
30c0
0000
0000
ENDCHAR
STARTCHAR 0x2359
ENCODING 9049
SWIDTH 886 0
DWIDTH 12 0
BBX 12 13 0 -2
BITMAP
0000
30c0
30c0
1980
1980
0d00
0d00
0600
0600
0600
0600
0000
0000
ENDCHAR
STARTCHAR 0x235A
ENCODING 9050
SWIDTH 886 0
DWIDTH 12 0
BBX 12 13 0 -2
BITMAP
0000
3fc0
00c0
0180
0300
0600
0c00
1800
3000
3000
3fc0
0000
0000
ENDCHAR
STARTCHAR 0x2361
ENCODING 9057
SWIDTH 886 0
DWIDTH 12 0
BBX 12 13 0 -2
BITMAP
0000
0000
0000
0000
0f80
00c0
07c0
1cc0
18c0
19c0
0f40
0000
0000
ENDCHAR
STARTCHAR 0x2362
ENCODING 9058
SWIDTH 886 0
DWIDTH 12 0
BBX 12 13 0 -2
BITMAP
0000
1800
1800
1800
1b00
1d80
18c0
18c0
18c0
1d80
1b00
0000
0000
ENDCHAR
STARTCHAR 0x2363
ENCODING 9059
SWIDTH 886 0
DWIDTH 12 0
BBX 12 13 0 -2
BITMAP
0000
0000
0000
0000
0780
0cc0
1800
1800
1800
0cc0
0780
0000
0000
ENDCHAR
STARTCHAR 0x2364
ENCODING 9060
SWIDTH 886 0
DWIDTH 12 0
BBX 12 13 0 -2
BITMAP
0000
00c0
00c0
00c0
0740
0dc0
18c0
18c0
18c0
0dc0
0740
0000
0000
ENDCHAR
STARTCHAR 0x2365
ENCODING 9061
SWIDTH 886 0
DWIDTH 12 0
BBX 12 13 0 -2
BITMAP
0000
0000
0000
0000
0700
0d80
18c0
1fc0
1800
0cc0
0780
0000
0000
ENDCHAR
STARTCHAR 0x2366
ENCODING 9062
SWIDTH 886 0
DWIDTH 12 0
BBX 12 13 0 -2
BITMAP
0000
03c0
0600
0600
0600
1fc0
0600
0600
0600
0600
0600
0000
0000
ENDCHAR
STARTCHAR 0x2367
ENCODING 9063
SWIDTH 886 0
DWIDTH 12 0
BBX 12 13 0 -2
BITMAP
0000
0000
0000
0000
0740
0dc0
18c0
18c0
0dc0
0740
00c0
0180
0f00
ENDCHAR
STARTCHAR 0x2368
ENCODING 9064
SWIDTH 886 0
DWIDTH 12 0
BBX 12 13 0 -2
BITMAP
0000
1800
1800
1800
1b00
1d80
18c0
18c0
18c0
18c0
18c0
0000
0000
ENDCHAR
STARTCHAR 0x2369
ENCODING 9065
SWIDTH 886 0
DWIDTH 12 0
BBX 12 13 0 -2
BITMAP
0000
0600
0600
0000
0000
0600
0600
0600
0600
0600
0600
0000
0000
ENDCHAR
STARTCHAR 0x236A
ENCODING 9066
SWIDTH 886 0
DWIDTH 12 0
BBX 12 13 0 -2
BITMAP
0000
0300
0300
0000
0000
0300
0300
0300
0300
0300
0300
0600
3c00
ENDCHAR
STARTCHAR 0x236B
ENCODING 9067
SWIDTH 886 0
DWIDTH 12 0
BBX 12 13 0 -2
BITMAP
0000
1800
1800
1800
18c0
1980
1b00
1a00
1b00
1980
18c0
0000
0000
ENDCHAR
STARTCHAR 0x236C
ENCODING 9068
SWIDTH 886 0
DWIDTH 12 0
BBX 12 13 0 -2
BITMAP
0000
0600
0600
0600
0600
0600
0600
0600
0600
0600
0600
0000
0000
ENDCHAR
STARTCHAR 0x236D
ENCODING 9069
SWIDTH 886 0
DWIDTH 12 0
BBX 12 13 0 -2
BITMAP
0000
0000
0000
0000
6dc0
7760
6660
6660
6660
6660
6660
0000
0000
ENDCHAR
STARTCHAR 0x236E
ENCODING 9070
SWIDTH 886 0
DWIDTH 12 0
BBX 12 13 0 -2
BITMAP
0000
0000
0000
0000
1b80
1cc0
18c0
18c0
18c0
18c0
18c0
0000
0000
ENDCHAR
STARTCHAR 0x236F
ENCODING 9071
SWIDTH 886 0
DWIDTH 12 0
BBX 12 13 0 -2
BITMAP
0000
0000
0000
0000
0f00
1980
30c0
30c0
30c0
1980
0f00
0000
0000
ENDCHAR
STARTCHAR 0x2370
ENCODING 9072
SWIDTH 886 0
DWIDTH 12 0
BBX 12 13 0 -2
BITMAP
0000
0000
0000
0000
1b00
1d80
18c0
18c0
18c0
1d80
1b00
1800
1800
ENDCHAR
STARTCHAR 0x2371
ENCODING 9073
SWIDTH 886 0
DWIDTH 12 0
BBX 12 13 0 -2
BITMAP
0000
0000
0000
0000
0740
0dc0
18c0
18c0
18c0
0dc0
0740
00c0
00c0
ENDCHAR
STARTCHAR 0x2372
ENCODING 9074
SWIDTH 886 0
DWIDTH 12 0
BBX 12 13 0 -2
BITMAP
0000
0000
0000
0000
1b00
1d80
1800
1800
1800
1800
1800
0000
0000
ENDCHAR
STARTCHAR 0x2373
ENCODING 9075
SWIDTH 886 0
DWIDTH 12 0
BBX 12 13 0 -2
BITMAP
0000
0000
0000
0000
0f80
18c0
1800
0f80
00c0
18c0
0f80
0000
0000
ENDCHAR
STARTCHAR 0x2374
ENCODING 9076
SWIDTH 886 0
DWIDTH 12 0
BBX 12 13 0 -2
BITMAP
0000
0c00
0c00
0c00
3f80
0c00
0c00
0c00
0c00
0cc0
0780
0000
0000
ENDCHAR
STARTCHAR 0x2375
ENCODING 9077
SWIDTH 886 0
DWIDTH 12 0
BBX 12 13 0 -2
BITMAP
0000
0000
0000
0000
18c0
18c0
18c0
18c0
18c0
19c0
0f40
0000
0000
ENDCHAR
STARTCHAR 0x2376
ENCODING 9078
SWIDTH 886 0
DWIDTH 12 0
BBX 12 13 0 -2
BITMAP
0000
0000
0000
0000
30c0
30c0
1980
1980
0d00
0d00
0600
0000
0000
ENDCHAR
STARTCHAR 0x2377
ENCODING 9079
SWIDTH 886 0
DWIDTH 12 0
BBX 12 13 0 -2
BITMAP
0000
0000
0000
0000
6660
6660
6660
3540
3540
1980
1980
0000
0000
ENDCHAR
STARTCHAR 0x2378
ENCODING 9080
SWIDTH 886 0
DWIDTH 12 0
BBX 12 13 0 -2
BITMAP
0000
0000
0000
0000
30c0
1980
0d00
0600
0d00
1980
30c0
0000
0000
ENDCHAR
STARTCHAR 0x2379
ENCODING 9081
SWIDTH 886 0
DWIDTH 12 0
BBX 12 13 0 -2
BITMAP
0000
0000
0000
0000
18c0
18c0
0cc0
0d80
0680
0300
0300
0600
1c00
ENDCHAR
STARTCHAR 0x237A
ENCODING 9082
SWIDTH 886 0
DWIDTH 12 0
BBX 12 13 0 -2
BITMAP
0000
0000
0000
0000
1fc0
0180
0300
0600
0c00
1800
1fc0
0000
0000
ENDCHAR
STARTCHAR 0x2421
ENCODING 9249
SWIDTH 886 0
DWIDTH 12 0
BBX 12 13 0 -2
BITMAP
0000
0000
0000
0000
0600
3fc0
0c00
0f80
1d40
3540
36c0
1d80
0000
ENDCHAR
STARTCHAR 0x2422
ENCODING 9250
SWIDTH 886 0
DWIDTH 12 0
BBX 12 13 0 -2
BITMAP
0000
0600
06e0
7f80
0c00
0fc0
1da0
35b0
6d30
6e30
3a60
01c0
0000
ENDCHAR
STARTCHAR 0x2423
ENCODING 9251
SWIDTH 886 0
DWIDTH 12 0
BBX 12 13 0 -2
BITMAP
0000
0000
0000
0000
0000
3180
3180
30c0
30c0
36c0
1c00
0000
0000
ENDCHAR
STARTCHAR 0x2424
ENCODING 9252
SWIDTH 886 0
DWIDTH 12 0
BBX 12 13 0 -2
BITMAP
0000
0000
0000
3000
30c0
6060
6060
6030
6330
3600
1c00
0000
0000
ENDCHAR
STARTCHAR 0x2425
ENCODING 9253
SWIDTH 886 0
DWIDTH 12 0
BBX 12 13 0 -2
BITMAP
0000
0000
0000
0000
0e00
0380
0000
0780
1cc0
00c0
0180
0700
0000
ENDCHAR
STARTCHAR 0x2426
ENCODING 9254
SWIDTH 886 0
DWIDTH 12 0
BBX 12 13 0 -2
BITMAP
0000
1e00
0380
0000
0f00
3980
00c0
00c0
00c0
0180
0700
1c00
0000
ENDCHAR
STARTCHAR 0x2427
ENCODING 9255
SWIDTH 886 0
DWIDTH 12 0
BBX 12 13 0 -2
BITMAP
0000
0000
0000
0000
0e00
0380
0000
1f80
0300
0600
0d00
19c0
0000
ENDCHAR
STARTCHAR 0x2428
ENCODING 9256
SWIDTH 886 0
DWIDTH 12 0
BBX 12 13 0 -2
BITMAP
0000
0e00
0380
0000
3f80
0180
0300
0600
0e00
1b00
3300
61e0
0000
ENDCHAR
STARTCHAR 0x2429
ENCODING 9257
SWIDTH 886 0
DWIDTH 12 0
BBX 12 13 0 -2
BITMAP
0000
0000
0000
0000
0c00
0cc0
3f60
0c00
1f80
34c0
34c0
3b80
0000
ENDCHAR
STARTCHAR 0x242A
ENCODING 9258
SWIDTH 886 0
DWIDTH 12 0
BBX 12 13 0 -2
BITMAP
0000
0c00
0ce0
7f30
0c00
0c00
0fc0
1c60
3430
6c30
6c60
39c0
0000
ENDCHAR
STARTCHAR 0x242B
ENCODING 9259
SWIDTH 886 0
DWIDTH 12 0
BBX 12 13 0 -2
BITMAP
0000
1800
18c0
18c0
7e60
1b60
1b30
3330
3300
6300
6300
1e00
0000
ENDCHAR
STARTCHAR 0x242C
ENCODING 9260
SWIDTH 886 0
DWIDTH 12 0
BBX 12 13 0 -2
BITMAP
0000
1860
19b0
18c0
7e00
1b60
1b60
3330
3330
6300
6300
1e00
0000
ENDCHAR
STARTCHAR 0x242D
ENCODING 9261
SWIDTH 886 0
DWIDTH 12 0
BBX 12 13 0 -2
BITMAP
0000
0600
06c0
7f00
03e0
7f00
0180
1f40
31c0
3000
1800
0f80
0000
ENDCHAR
STARTCHAR 0x242E
ENCODING 9262
SWIDTH 886 0
DWIDTH 12 0
BBX 12 13 0 -2
BITMAP
0060
06b0
06c0
7f00
03e0
7f00
0180
1f40
31c0
3000
1800
0f80
0000
ENDCHAR
STARTCHAR 0x242F
ENCODING 9263
SWIDTH 886 0
DWIDTH 12 0
BBX 12 13 0 -2
BITMAP
0000
0000
0180
0300
0600
0c00
1800
1800
0e00
0300
0180
00c0
0000
ENDCHAR
STARTCHAR 0x2430
ENCODING 9264
SWIDTH 886 0
DWIDTH 12 0
BBX 12 13 0 -2
BITMAP
0000
0000
0300
0660
0db0
18c0
3000
3000
1c00
0600
0300
0180
0000
ENDCHAR
STARTCHAR 0x2431
ENCODING 9265
SWIDTH 886 0
DWIDTH 12 0
BBX 12 13 0 -2
BITMAP
0000
00c0
30c0
30c0
6ff0
60c0
60c0
60c0
60c0
60c0
3180
3700
0000
ENDCHAR
STARTCHAR 0x2432
ENCODING 9266
SWIDTH 886 0
DWIDTH 12 0
BBX 12 13 0 -2
BITMAP
0000
01a0
61b0
61c0
dfa0
c180
c180
c180
c180
c180
6300
6e00
0000
ENDCHAR
STARTCHAR 0x2433
ENCODING 9267
SWIDTH 886 0
DWIDTH 12 0
BBX 12 13 0 -2
BITMAP
0000
0000
1fc0
0000
0000
0000
0000
1800
3000
3060
1fc0
0000
0000
ENDCHAR
STARTCHAR 0x2434
ENCODING 9268
SWIDTH 886 0
DWIDTH 12 0
BBX 12 13 0 -2
BITMAP
0000
0000
3fa0
0030
00c0
0060
0000
3000
6000
60c0
3f80
0000
0000
ENDCHAR
STARTCHAR 0x2435
ENCODING 9269
SWIDTH 886 0
DWIDTH 12 0
BBX 12 13 0 -2
BITMAP
0000
0300
0300
0360
7f80
0180
0180
1f40
31c0
3000
1800
0f80
0000
ENDCHAR
STARTCHAR 0x2436
ENCODING 9270
SWIDTH 886 0
DWIDTH 12 0
BBX 12 13 0 -2
BITMAP
0000
0c60
0db0
0f40
fc00
0600
0300
3e80
6380
6000
3000
1f00
0000
ENDCHAR
STARTCHAR 0x2437
ENCODING 9271
SWIDTH 886 0
DWIDTH 12 0
BBX 12 13 0 -2
BITMAP
0000
0000
0c00
0c00
0c00
1800
1800
1800
1860
1860
0cc0
0780
0000
ENDCHAR
STARTCHAR 0x2438
ENCODING 9272
SWIDTH 886 0
DWIDTH 12 0
BBX 12 13 0 -2
BITMAP
0000
0000
18c0
1b60
1980
3000
3000
3000
30c0
30c0
1980
0f00
0000
ENDCHAR
STARTCHAR 0x2439
ENCODING 9273
SWIDTH 886 0
DWIDTH 12 0
BBX 12 13 0 -2
BITMAP
0000
0300
0300
fff0
0300
0f00
1b00
1b00
0f00
0300
0600
1c00
0000
ENDCHAR
STARTCHAR 0x243A
ENCODING 9274
SWIDTH 886 0
DWIDTH 12 0
BBX 12 13 0 -2
BITMAP
0000
0300
0300
fff0
0300
0f60
1b30
1b40
0f60
0300
0600
1c00
0000
ENDCHAR
STARTCHAR 0x243B
ENCODING 9275
SWIDTH 886 0
DWIDTH 12 0
BBX 12 13 0 -2
BITMAP
0000
00c0
18c0
18c0
1bf0
7ec0
18c0
18c0
1bc0
1800
1800
0fe0
0000
ENDCHAR
STARTCHAR 0x243C
ENCODING 9276
SWIDTH 886 0
DWIDTH 12 0
BBX 12 13 0 -2
BITMAP
0000
0180
31a0
31b0
37c0
fda0
3180
3180
3780
3000
3000
1fc0
0000
ENDCHAR
STARTCHAR 0x243D
ENCODING 9277
SWIDTH 886 0
DWIDTH 12 0
BBX 12 13 0 -2
BITMAP
0000
0000
1fc0
0180
0300
0600
7ff0
0600
0c00
0c00
0c00
07c0
0000
ENDCHAR
STARTCHAR 0x243E
ENCODING 9278
SWIDTH 886 0
DWIDTH 12 0
BBX 12 13 0 -2
BITMAP
0000
0000
3f60
03b0
06c0
0c00
ffe0
0c00
1800
1800
1800
0f80
0000
ENDCHAR
STARTCHAR 0x243F
ENCODING 9279
SWIDTH 886 0
DWIDTH 12 0
BBX 12 13 0 -2
BITMAP
0000
1800
1800
7fc0
1800
1be0
1800
3300
3600
3600
63f0
6000
0000
ENDCHAR
STARTCHAR 0x2440
ENCODING 9280
SWIDTH 886 0
DWIDTH 12 0
BBX 12 13 0 -2
BITMAP
0060
19b0
18c0
7f80
1800
1be0
1800
3300
3600
3600
63f0
6000
0000
ENDCHAR
STARTCHAR 0x2441
ENCODING 9281
SWIDTH 886 0
DWIDTH 12 0
BBX 12 13 0 -2
BITMAP
0000
0600
0600
06f0
7f00
0c00
1b80
1cc0
0060
0060
00c0
0f80
0000
ENDCHAR
STARTCHAR 0x2442
ENCODING 9282
SWIDTH 886 0
DWIDTH 12 0
BBX 12 13 0 -2
BITMAP
0060
0db0
0cc0
0f80
fc00
1800
3700
3980
00c0
00c0
0180
1f00
0000
ENDCHAR
STARTCHAR 0x2443
ENCODING 9283
SWIDTH 886 0
DWIDTH 12 0
BBX 12 13 0 -2
BITMAP
0000
0000
0000
0000
0000
0000
0f00
3980
00c0
00c0
0180
0f00
0000
ENDCHAR
STARTCHAR 0x2444
ENCODING 9284
SWIDTH 886 0
DWIDTH 12 0
BBX 12 13 0 -2
BITMAP
0000
0000
0000
0f80
78c0
0060
0060
0060
00c0
0380
1e00
0000
0000
ENDCHAR
STARTCHAR 0x2445
ENCODING 9285
SWIDTH 886 0
DWIDTH 12 0
BBX 12 13 0 -2
BITMAP
0060
01b0
00c0
0f80
78c0
0060
0060
0060
00c0
0380
1e00
0000
0000
ENDCHAR
STARTCHAR 0x2446
ENCODING 9286
SWIDTH 886 0
DWIDTH 12 0
BBX 12 13 0 -2
BITMAP
0000
0000
0000
0fe0
fb00
0600
0c00
0c00
0c00
0c00
0600
03c0
0000
ENDCHAR
STARTCHAR 0x2447
ENCODING 9287
SWIDTH 886 0
DWIDTH 12 0
BBX 12 13 0 -2
BITMAP
0000
0000
0000
0fe0
fb00
0660
0db0
0cc0
0c00
0c00
0600
03c0
0000
ENDCHAR
STARTCHAR 0x2448
ENCODING 9288
SWIDTH 886 0
DWIDTH 12 0
BBX 12 13 0 -2
BITMAP
0000
0c00
0c00
0c00
0600
07c0
0e00
1800
3000
3000
1800
0fc0
0000
ENDCHAR
STARTCHAR 0x2449
ENCODING 9289
SWIDTH 886 0
DWIDTH 12 0
BBX 12 13 0 -2
BITMAP
00c0
1b60
1980
1800
0c00
0f80
1c00
3000
6000
6000
3000
1f80
0000
ENDCHAR
STARTCHAR 0x244A
ENCODING 9290
SWIDTH 886 0
DWIDTH 12 0
BBX 12 13 0 -2
BITMAP
0000
0c00
0ce0
ff30
1800
18c0
30c0
30c0
67c0
6ce0
0cd0
0780
0000
ENDCHAR
STARTCHAR 0x244B
ENCODING 9291
SWIDTH 886 0
DWIDTH 12 0
BBX 12 13 0 -2
BITMAP
0000
0000
3000
33e0
6000
6000
6000
6300
6600
6600
33f0
3000
0000
ENDCHAR
STARTCHAR 0x244C
ENCODING 9292
SWIDTH 886 0
DWIDTH 12 0
BBX 12 13 0 -2
BITMAP
0000
0300
0300
3300
37c0
3b60
3330
6a30
6ad0
6d70
3b60
01d0
0000
ENDCHAR
STARTCHAR 0x244D
ENCODING 9293
SWIDTH 886 0
DWIDTH 12 0
BBX 12 13 0 -2
BITMAP
0000
1800
1800
1800
7bc0
1a60
1c30
1830
39d0
6b70
1b60
19d0
0000
ENDCHAR
STARTCHAR 0x244E
ENCODING 9294
SWIDTH 886 0
DWIDTH 12 0
BBX 12 13 0 -2
BITMAP
0000
0000
0000
0fc0
1a60
3630
6630
6c30
6c30
3860
01c0
0000
0000
ENDCHAR
STARTCHAR 0x244F
ENCODING 9295
SWIDTH 886 0
DWIDTH 12 0
BBX 12 13 0 -2
BITMAP
0000
00c0
30c0
30c0
6ff0
60c0
60c0
60c0
67c0
6ce0
34d0
3780
0000
ENDCHAR
STARTCHAR 0x2450
ENCODING 9296
SWIDTH 886 0
DWIDTH 12 0
BBX 12 13 0 -2
BITMAP
0000
01a0
61b0
61c0
dfa0
c180
c180
c180
cf80
d9c0
69a0
6f00
0000
ENDCHAR
STARTCHAR 0x2451
ENCODING 9297
SWIDTH 886 0
DWIDTH 12 0
BBX 12 13 0 -2
BITMAP
0000
00e0
61b0
61b0
dfe0
c180
c180
c180
cf80
d9c0
69a0
6f00
0000
ENDCHAR
STARTCHAR 0x2452
ENCODING 9298
SWIDTH 886 0
DWIDTH 12 0
BBX 12 13 0 -2
BITMAP
0000
0000
7d80
0d80
18c0
30e0
30d0
60c0
6180
6180
3300
1e00
0000
ENDCHAR
STARTCHAR 0x2453
ENCODING 9299
SWIDTH 886 0
DWIDTH 12 0
BBX 12 13 0 -2
BITMAP
0000
0060
7db0
0cc0
1800
30c0
30e0
60d0
6180
6180
3300
1e00
0000
ENDCHAR
STARTCHAR 0x2454
ENCODING 9300
SWIDTH 886 0
DWIDTH 12 0
BBX 12 13 0 -2
BITMAP
0000
00e0
7db0
0db0
18e0
30d0
30c0
60c0
6180
6180
3300
1e00
0000
ENDCHAR
STARTCHAR 0x2455n
ENCODING 9301
SWIDTH 886 0
DWIDTH 12 0
BBX 12 13 0 -2
BITMAP
0000
0000
1f80
0180
0300
0600
3660
3660
3330
6330
6330
0e00
0000
ENDCHAR
STARTCHAR 0x2456
ENCODING 9302
SWIDTH 886 0
DWIDTH 12 0
BBX 12 13 0 -2
BITMAP
0000
0060
1fb0
01c0
0360
0600
3600
3660
3360
6330
6330
0e00
0000
ENDCHAR
STARTCHAR 0x2457
ENCODING 9303
SWIDTH 886 0
DWIDTH 12 0
BBX 12 13 0 -2
BITMAP
0000
00e0
1fb0
01b0
0360
0600
3600
3660
3360
6330
6330
0e00
0000
ENDCHAR
STARTCHAR 0x2458
ENCODING 9304
SWIDTH 886 0
DWIDTH 12 0
BBX 12 13 0 -2
BITMAP
0000
0000
0000
0000
0000
3c00
6600
c300
01c0
0070
0000
0000
0000
ENDCHAR
STARTCHAR 0x2459
ENCODING 9305
SWIDTH 886 0
DWIDTH 12 0
BBX 12 13 0 -2
BITMAP
0000
0000
00c0
0360
0180
3c00
6600
c300
01c0
0070
0000
0000
0000
ENDCHAR
STARTCHAR 0x245A
ENCODING 9306
SWIDTH 886 0
DWIDTH 12 0
BBX 12 13 0 -2
BITMAP
0000
0000
01c0
0360
0360
3dc0
6600
c300
01c0
0070
0000
0000
0000
ENDCHAR
STARTCHAR 0x245B
ENCODING 9307
SWIDTH 886 0
DWIDTH 12 0
BBX 12 13 0 -2
BITMAP
0000
0000
37f0
30c0
60c0
6ff0
60c0
60c0
67c0
6ce0
34d0
3780
0000
ENDCHAR
STARTCHAR 0x245C
ENCODING 9308
SWIDTH 886 0
DWIDTH 12 0
BBX 12 13 0 -2
BITMAP
0000
0060
6fb0
61c0
c180
dfe0
c180
c180
cf80
d9c0
69a0
6f00
0000
ENDCHAR
STARTCHAR 0x245D
ENCODING 9309
SWIDTH 886 0
DWIDTH 12 0
BBX 12 13 0 -2
BITMAP
0000
00e0
6fb0
61b0
c1e0
df80
c180
c180
cf80
d9c0
69a0
6f00
0000
ENDCHAR
STARTCHAR 0x245E
ENCODING 9310
SWIDTH 886 0
DWIDTH 12 0
BBX 12 13 0 -2
BITMAP
0000
0300
0300
7fe0
0300
3fe0
0300
0300
1f00
33c0
3360
1e00
0000
ENDCHAR
STARTCHAR 0x245F
ENCODING 9311
SWIDTH 886 0
DWIDTH 12 0
BBX 12 13 0 -2
BITMAP
0000
0000
7e00
06c0
06c0
06c0
3fc0
6ce0
ccd0
d8c0
7180
0700
0000
ENDCHAR
STARTCHAR 0x2460
ENCODING 9312
SWIDTH 886 0
DWIDTH 12 0
BBX 12 13 0 -2
BITMAP
0000
0c00
0c00
7f60
0c30
0c00
3c00
6c00
6c60
3c60
0c60
07c0
0000
ENDCHAR
STARTCHAR 0x2461
ENCODING 9313
SWIDTH 886 0
DWIDTH 12 0
BBX 12 13 0 -2
BITMAP
0000
0300
0300
3300
37c0
1b60
3b30
6a30
6e30
6c30
3860
01c0
0000
ENDCHAR
STARTCHAR 0x2462
ENCODING 9314
SWIDTH 886 0
DWIDTH 12 0
BBX 12 13 0 -2
BITMAP
0000
0c00
0c00
7fc0
0c00
0c00
7fc0
1800
1860
1860
0cc0
0780
0000
ENDCHAR
STARTCHAR 0x2463
ENCODING 9315
SWIDTH 886 0
DWIDTH 12 0
BBX 12 13 0 -2
BITMAP
0000
0000
0000
0000
0300
1b00
1b80
3d40
0cc0
0d80
0600
0600
0000
ENDCHAR
STARTCHAR 0x2464
ENCODING 9316
SWIDTH 886 0
DWIDTH 12 0
BBX 12 13 0 -2
BITMAP
0000
0180
1980
19e0
1bb0
1db0
7430
06e0
0600
0600
0300
0300
0000
ENDCHAR
STARTCHAR 0x2465
ENCODING 9317
SWIDTH 886 0
DWIDTH 12 0
BBX 12 13 0 -2
BITMAP
0000
0000
0000
0000
0300
3300
37c0
35a0
39a0
1bc0
1980
0300
0000
ENDCHAR
STARTCHAR 0x2466
ENCODING 9318
SWIDTH 886 0
DWIDTH 12 0
BBX 12 13 0 -2
BITMAP
0000
0180
0180
67e0
6db0
69b0
69b0
31b0
37e0
3180
0180
0700
0000
ENDCHAR
STARTCHAR 0x2467
ENCODING 9319
SWIDTH 886 0
DWIDTH 12 0
BBX 12 13 0 -2
BITMAP
0000
0000
0000
0000
0300
0300
03c0
0300
0f00
1b80
1b40
0e00
0000
ENDCHAR
STARTCHAR 0x2468
ENCODING 9320
SWIDTH 886 0
DWIDTH 12 0
BBX 12 13 0 -2
BITMAP
0000
0600
0600
0600
07c0
0600
0600
0600
3e00
6780
66c0
3c00
0000
ENDCHAR
STARTCHAR 0x2469
ENCODING 9321
SWIDTH 886 0
DWIDTH 12 0
BBX 12 13 0 -2
BITMAP
0000
0e00
0380
0000
3000
3000
3780
3cc0
0060
0060
01c0
0f00
0000
ENDCHAR
STARTCHAR 0x246A
ENCODING 9322
SWIDTH 886 0
DWIDTH 12 0
BBX 12 13 0 -2
BITMAP
0000
0000
18c0
18c0
18c0
18c0
18c0
1ac0
0cc0
00c0
0180
0700
0000
ENDCHAR
STARTCHAR 0x246B
ENCODING 9323
SWIDTH 886 0
DWIDTH 12 0
BBX 12 13 0 -2
BITMAP
0000
0000
1fc0
0180
0300
0780
1cc0
3060
0e60
1b60
1b40
0f80
0000
ENDCHAR
STARTCHAR 0x246C
ENCODING 9324
SWIDTH 886 0
DWIDTH 12 0
BBX 12 13 0 -2
BITMAP
0000
1800
1800
1800
7bc0
1a60
1c60
1860
38c0
68c0
18c0
1870
0000
ENDCHAR
STARTCHAR 0x246D
ENCODING 9325
SWIDTH 886 0
DWIDTH 12 0
BBX 12 13 0 -2
BITMAP
0000
0000
1fc0
0180
0300
0780
1cc0
3060
0060
0060
01c0
0f00
0000
ENDCHAR
STARTCHAR 0x246E
ENCODING 9326
SWIDTH 886 0
DWIDTH 12 0
BBX 12 13 0 -2
BITMAP
0000
0000
0000
0000
0c00
0c00
3d80
0ec0
0cc0
1cc0
34c0
0d80
0000
ENDCHAR
STARTCHAR 0x246F
ENCODING 9327
SWIDTH 886 0
DWIDTH 12 0
BBX 12 13 0 -2
BITMAP
0000
1800
1800
1800
7bc0
1a60
1c30
1830
3830
6830
1860
19c0
0000
ENDCHAR
STARTCHAR 0x2470
ENCODING 9328
SWIDTH 886 0
DWIDTH 12 0
BBX 12 13 0 -2
BITMAP
0000
0000
3f00
0300
03c0
1e60
3630
6630
6cf0
6db0
39b0
00e0
0000
ENDCHAR
STARTCHAR 0x2471
ENCODING 9329
SWIDTH 886 0
DWIDTH 12 0
BBX 12 13 0 -2
BITMAP
0000
3fe0
0180
0300
0fc0
3860
0f60
19c0
1f80
0c00
3de0
6730
0000
ENDCHAR
STARTCHAR 0x2472
ENCODING 9330
SWIDTH 886 0
DWIDTH 12 0
BBX 12 13 0 -2
BITMAP
0000
0c00
0c00
7fc0
1800
1e00
3360
6780
6d00
1b00
1800
0fc0
0000
ENDCHAR
STARTCHAR 0x2473
ENCODING 9331
SWIDTH 886 0
DWIDTH 12 0
BBX 12 13 0 -2
BITMAP
0000
0000
0600
0600
0c00
0c00
1b00
1d80
3180
31b0
61b0
60e0
0000
ENDCHAR
STARTCHAR 0x2474
ENCODING 9332
SWIDTH 886 0
DWIDTH 12 0
BBX 12 13 0 -2
BITMAP
00c0
3860
0e80
00c0
1e00
7300
0180
0180
0180
0300
0e00
3800
0000
ENDCHAR
STARTCHAR 0x2521
ENCODING 9505
SWIDTH 886 0
DWIDTH 12 0
BBX 12 13 0 -2
BITMAP
0000
0000
0000
0000
0000
3fc0
00c0
06c0
0680
0600
0c00
1800
0000
ENDCHAR
STARTCHAR 0x2522
ENCODING 9506
SWIDTH 886 0
DWIDTH 12 0
BBX 12 13 0 -2
BITMAP
0000
0000
7ff0
0030
0060
06c0
0600
0600
0600
0600
0c00
3800
0000
ENDCHAR
STARTCHAR 0x2523
ENCODING 9507
SWIDTH 886 0
DWIDTH 12 0
BBX 12 13 0 -2
BITMAP
0000
0000
0000
0000
0000
00c0
0180
0700
1d00
0300
0300
0300
0000
ENDCHAR
STARTCHAR 0x2524
ENCODING 9508
SWIDTH 886 0
DWIDTH 12 0
BBX 12 13 0 -2
BITMAP
0000
0000
0060
00c0
0180
0700
1d00
7300
0300
0300
0300
0300
0000
ENDCHAR
STARTCHAR 0x2525
ENCODING 9509
SWIDTH 886 0
DWIDTH 12 0
BBX 12 13 0 -2
BITMAP
0000
0000
0000
0000
0600
0600
3fc0
30c0
30c0
00c0
0180
0f00
0000
ENDCHAR
STARTCHAR 0x2526
ENCODING 9510
SWIDTH 886 0
DWIDTH 12 0
BBX 12 13 0 -2
BITMAP
0000
0600
0600
7fe0
6060
6060
6060
00c0
00c0
0180
0700
1c00
0000
ENDCHAR
STARTCHAR 0x2527
ENCODING 9511
SWIDTH 886 0
DWIDTH 12 0
BBX 12 13 0 -2
BITMAP
0000
0000
0000
0000
0000
3fc0
0600
0600
0600
0600
3fc0
0000
0000
ENDCHAR
STARTCHAR 0x2528
ENCODING 9512
SWIDTH 886 0
DWIDTH 12 0
BBX 12 13 0 -2
BITMAP
0000
0000
0000
7fe0
0600
0600
0600
0600
0600
0600
fff0
0000
0000
ENDCHAR
STARTCHAR 0x2529
ENCODING 9513
SWIDTH 886 0
DWIDTH 12 0
BBX 12 13 0 -2
BITMAP
0000
0000
0000
0000
0300
0300
3fc0
0300
0700
0d00
3b00
0700
0000
ENDCHAR
STARTCHAR 0x252A
ENCODING 9514
SWIDTH 886 0
DWIDTH 12 0
BBX 12 13 0 -2
BITMAP
0000
0180
0180
0180
7ff0
0180
0380
0680
1d80
7180
0180
0780
0000
ENDCHAR
STARTCHAR 0x252B
ENCODING 9515
SWIDTH 886 0
DWIDTH 12 0
BBX 12 13 0 -2
BITMAP
0000
0600
0600
0600
7ff0
0630
0630
0630
0c30
0c30
1830
71e0
0000
ENDCHAR
STARTCHAR 0x252C
ENCODING 9516
SWIDTH 886 0
DWIDTH 12 0
BBX 12 13 0 -2
BITMAP
0060
0db0
0cc0
0c00
ffe0
0c60
0c60
0c60
1860
1860
3060
e3c0
0000
ENDCHAR
STARTCHAR 0x252D
ENCODING 9517
SWIDTH 886 0
DWIDTH 12 0
BBX 12 13 0 -2
BITMAP
0000
0600
0600
0600
7fe0
0600
0600
0600
7ff0
0300
0300
0300
0000
ENDCHAR
STARTCHAR 0x252E
ENCODING 9518
SWIDTH 886 0
DWIDTH 12 0
BBX 12 13 0 -2
BITMAP
0000
0c60
0db0
0cc0
ff80
0c00
0c00
0c00
ffe0
0600
0600
0600
0000
ENDCHAR
STARTCHAR 0x252F
ENCODING 9519
SWIDTH 886 0
DWIDTH 12 0
BBX 12 13 0 -2
BITMAP
0000
0600
0600
07e0
0c60
1860
3060
00c0
00c0
0180
0700
3c00
0000
ENDCHAR
STARTCHAR 0x2530
ENCODING 9520
SWIDTH 886 0
DWIDTH 12 0
BBX 12 13 0 -2
BITMAP
0060
0db0
0cc0
0fc0
18c0
30c0
60c0
0180
0180
0300
0e00
7800
0000
ENDCHAR
STARTCHAR 0x2531
ENCODING 9521
SWIDTH 886 0
DWIDTH 12 0
BBX 12 13 0 -2
BITMAP
0000
1800
1800
1800
1ff0
3180
6180
0180
0300
0300
0e00
3800
0000
ENDCHAR
STARTCHAR 0x2532
ENCODING 9522
SWIDTH 886 0
DWIDTH 12 0
BBX 12 13 0 -2
BITMAP
0060
31b0
30c0
3000
3fe0
6300
c300
0300
0600
0600
1c00
7000
0000
ENDCHAR
STARTCHAR 0x2533
ENCODING 9523
SWIDTH 886 0
DWIDTH 12 0
BBX 12 13 0 -2
BITMAP
0000
0000
0000
7fe0
0060
0060
0060
0060
0060
0060
7fe0
0060
0000
ENDCHAR
STARTCHAR 0x2534
ENCODING 9524
SWIDTH 886 0
DWIDTH 12 0
BBX 12 13 0 -2
BITMAP
0060
0330
0180
7fe0
0060
0060
0060
0060
0060
0060
7fe0
0060
0000
ENDCHAR
STARTCHAR 0x2535
ENCODING 9525
SWIDTH 886 0
DWIDTH 12 0
BBX 12 13 0 -2
BITMAP
0000
18c0
18c0
18c0
7ff0
18c0
18c0
18c0
0180
0180
0700
1c00
0000
ENDCHAR
STARTCHAR 0x2536
ENCODING 9526
SWIDTH 886 0
DWIDTH 12 0
BBX 12 13 0 -2
BITMAP
0000
31a0
31b0
31c0
ffa0
3180
3180
3180
0300
0300
0e00
3800
0000
ENDCHAR
STARTCHAR 0x2537
ENCODING 9527
SWIDTH 886 0
DWIDTH 12 0
BBX 12 13 0 -2
BITMAP
0000
0000
3800
0e00
0030
7030
1c60
0060
00c0
0180
0700
3c00
0000
ENDCHAR
STARTCHAR 0x2538
ENCODING 9528
SWIDTH 886 0
DWIDTH 12 0
BBX 12 13 0 -2
BITMAP
0060
01b0
38c0
0e00
0030
7030
1c60
0060
00c0
0180
0700
3c00
0000
ENDCHAR
STARTCHAR 0x2539
ENCODING 9529
SWIDTH 886 0
DWIDTH 12 0
BBX 12 13 0 -2
BITMAP
0000
0000
3fc0
00c0
00c0
00c0
0180
0180
0380
06c0
1c60
7030
0000
ENDCHAR
STARTCHAR 0x253A
ENCODING 9530
SWIDTH 886 0
DWIDTH 12 0
BBX 12 13 0 -2
BITMAP
0360
01b0
7f80
0180
0180
0180
0300
0300
0700
0d80
38c0
e060
0000
ENDCHAR
STARTCHAR 0x253B
ENCODING 9531
SWIDTH 886 0
DWIDTH 12 0
BBX 12 13 0 -2
BITMAP
0000
0c00
0c00
0cf0
0db0
1e60
f460
0cc0
0c00
0c00
0c00
07f0
0000
ENDCHAR
STARTCHAR 0x253C
ENCODING 9532
SWIDTH 886 0
DWIDTH 12 0
BBX 12 13 0 -2
BITMAP
0060
0db0
0cc0
0cf0
0db0
1e60
f460
0cc0
0c00
0c00
0c00
07f0
0000
ENDCHAR
STARTCHAR 0x253D
ENCODING 9533
SWIDTH 886 0
DWIDTH 12 0
BBX 12 13 0 -2
BITMAP
0000
0000
6060
6060
3060
3060
0060
00c0
00c0
0180
0700
1c00
0000
ENDCHAR
STARTCHAR 0x253E
ENCODING 9534
SWIDTH 886 0
DWIDTH 12 0
BBX 12 13 0 -2
BITMAP
0060
01b0
c0c0
c000
60c0
60c0
00c0
0180
0180
0300
0e00
3800
0000
ENDCHAR
STARTCHAR 0x253F
ENCODING 9535
SWIDTH 886 0
DWIDTH 12 0
BBX 12 13 0 -2
BITMAP
0000
0600
0600
07e0
0c60
1860
3760
01c0
00c0
0180
0700
3c00
0000
ENDCHAR
STARTCHAR 0x2540
ENCODING 9536
SWIDTH 886 0
DWIDTH 12 0
BBX 12 13 0 -2
BITMAP
0060
0db0
0cc0
0fc0
18c0
30c0
6ec0
0380
0180
0300
0e00
7800
0000
ENDCHAR
STARTCHAR 0x2541
ENCODING 9537
SWIDTH 886 0
DWIDTH 12 0
BBX 12 13 0 -2
BITMAP
0000
0000
03e0
7e00
0600
0600
fff0
0600
0600
0600
0c00
3800
0000
ENDCHAR
STARTCHAR 0x2542
ENCODING 9538
SWIDTH 886 0
DWIDTH 12 0
BBX 12 13 0 -2
BITMAP
0000
0060
03b0
7ec0
0600
0600
fff0
0600
0600
0600
0c00
3800
0000
ENDCHAR
STARTCHAR 0x2543
ENCODING 9539
SWIDTH 886 0
DWIDTH 12 0
BBX 12 13 0 -2
BITMAP
0000
0000
0000
0000
0000
36c0
36c0
36c0
0180
0180
0700
1c00
0000
ENDCHAR
STARTCHAR 0x2544
ENCODING 9540
SWIDTH 886 0
DWIDTH 12 0
BBX 12 13 0 -2
BITMAP
0000
0000
6c60
6c60
3660
3660
0060
00c0
00c0
0180
0700
1c00
0000
ENDCHAR
STARTCHAR 0x2545
ENCODING 9541
SWIDTH 886 0
DWIDTH 12 0
BBX 12 13 0 -2
BITMAP
0060
01b0
d8c0
d800
6cc0
6cc0
00c0
0180
0180
0300
0e00
3800
0000
ENDCHAR
STARTCHAR 0x2546
ENCODING 9542
SWIDTH 886 0
DWIDTH 12 0
BBX 12 13 0 -2
BITMAP
0000
0000
3fe0
0000
0000
7ff0
0300
0300
0300
0300
0600
1c00
0000
ENDCHAR
STARTCHAR 0x2547
ENCODING 9543
SWIDTH 886 0
DWIDTH 12 0
BBX 12 13 0 -2
BITMAP
0060
01b0
7f40
0000
0000
ffe0
0600
0600
0600
0600
0c00
3800
0000
ENDCHAR
STARTCHAR 0x2548
ENCODING 9544
SWIDTH 886 0
DWIDTH 12 0
BBX 12 13 0 -2
BITMAP
0000
1800
1800
1800
1800
1e00
1b80
18e0
1800
1800
1800
1800
0000
ENDCHAR
STARTCHAR 0x2549
ENCODING 9545
SWIDTH 886 0
DWIDTH 12 0
BBX 12 13 0 -2
BITMAP
0000
30c0
3360
3180
3000
3c00
3700
31c0
3000
3000
3000
3000
0000
ENDCHAR
STARTCHAR 0x254A
ENCODING 9546
SWIDTH 886 0
DWIDTH 12 0
BBX 12 13 0 -2
BITMAP
0000
0300
0300
0300
7ff0
0300
0300
0300
0600
0600
0c00
3800
0000
ENDCHAR
STARTCHAR 0x254B
ENCODING 9547
SWIDTH 886 0
DWIDTH 12 0
BBX 12 13 0 -2
BITMAP
0000
0000
0000
3fe0
0000
0000
0000
0000
0000
0000
7ff0
0000
0000
ENDCHAR
STARTCHAR 0x254C
ENCODING 9548
SWIDTH 886 0
DWIDTH 12 0
BBX 12 13 0 -2
BITMAP
0000
0000
3fe0
0060
0060
0cc0
06c0
0380
0180
0340
0e60
7800
0000
ENDCHAR
STARTCHAR 0x254D
ENCODING 9549
SWIDTH 886 0
DWIDTH 12 0
BBX 12 13 0 -2
BITMAP
0000
0600
0600
7fc0
00c0
0180
0300
0700
1ec0
f670
0600
0600
0000
ENDCHAR
STARTCHAR 0x254E
ENCODING 9550
SWIDTH 886 0
DWIDTH 12 0
BBX 12 13 0 -2
BITMAP
0000
0000
00c0
00c0
00c0
00c0
00c0
0180
0180
0300
0e00
3800
0000
ENDCHAR
STARTCHAR 0x254F
ENCODING 9551
SWIDTH 886 0
DWIDTH 12 0
BBX 12 13 0 -2
BITMAP
0000
0000
1800
18c0
18c0
1860
3060
3060
3030
6030
6030
6030
0000
ENDCHAR
STARTCHAR 0x2550
ENCODING 9552
SWIDTH 886 0
DWIDTH 12 0
BBX 12 13 0 -2
BITMAP
0000
0060
01b0
18c0
1800
1800
18c0
30c0
3060
3060
6030
6030
0000
ENDCHAR
STARTCHAR 0x2551
ENCODING 9553
SWIDTH 886 0
DWIDTH 12 0
BBX 12 13 0 -2
BITMAP
0000
00e0
01b0
19b0
18e0
1800
18c0
30c0
3060
3060
6030
6030
0000
ENDCHAR
STARTCHAR 0x2552
ENCODING 9554
SWIDTH 886 0
DWIDTH 12 0
BBX 12 13 0 -2
BITMAP
0000
3000
3000
3000
31e0
3f00
3000
3000
3000
3000
3000
1fe0
0000
ENDCHAR
STARTCHAR 0x2553
ENCODING 9555
SWIDTH 886 0
DWIDTH 12 0
BBX 12 13 0 -2
BITMAP
0000
0060
31b0
30c0
3000
31e0
3f00
3000
3000
3000
3000
1fe0
0000
ENDCHAR
STARTCHAR 0x2554
ENCODING 9556
SWIDTH 886 0
DWIDTH 12 0
BBX 12 13 0 -2
BITMAP
0000
00e0
61b0
61b0
60e0
6700
7c00
6000
6000
6000
6000
3fc0
0000
ENDCHAR
STARTCHAR 0x2555
ENCODING 9557
SWIDTH 886 0
DWIDTH 12 0
BBX 12 13 0 -2
BITMAP
0000
0000
7fe0
0060
0060
0060
0060
00c0
00c0
0180
0700
3c00
0000
ENDCHAR
STARTCHAR 0x2556
ENCODING 9558
SWIDTH 886 0
DWIDTH 12 0
BBX 12 13 0 -2
BITMAP
0060
0330
0180
ffc0
00c0
00c0
00c0
0180
0180
0300
0e00
3800
0000
ENDCHAR
STARTCHAR 0x2557
ENCODING 9559
SWIDTH 886 0
DWIDTH 12 0
BBX 12 13 0 -2
BITMAP
00e0
01b0
ffb0
00e0
00c0
00c0
00c0
0180
0180
0300
0e00
3800
0000
ENDCHAR
STARTCHAR 0x2558
ENCODING 9560
SWIDTH 886 0
DWIDTH 12 0
BBX 12 13 0 -2
BITMAP
0000
0000
0000
0000
1e00
3300
6180
c0c0
0060
0030
0000
0000
0000
ENDCHAR
STARTCHAR 0x2559
ENCODING 9561
SWIDTH 886 0
DWIDTH 12 0
BBX 12 13 0 -2
BITMAP
0000
0060
01b0
00c0
0000
1e00
3300
6180
c0c0
0060
0030
0000
0000
ENDCHAR
STARTCHAR 0x255A
ENCODING 9562
SWIDTH 886 0
DWIDTH 12 0
BBX 12 13 0 -2
BITMAP
0000
00e0
01b0
01b0
00e0
1e00
3300
6180
c0c0
0060
0030
0000
0000
ENDCHAR
STARTCHAR 0x255B
ENCODING 9563
SWIDTH 886 0
DWIDTH 12 0
BBX 12 13 0 -2
BITMAP
0000
0600
0600
0600
fff0
0600
0600
36c0
6660
c630
0600
0e00
0000
ENDCHAR
STARTCHAR 0x255C
ENCODING 9564
SWIDTH 886 0
DWIDTH 12 0
BBX 12 13 0 -2
BITMAP
0060
06b0
06c0
0600
fff0
0600
0600
36c0
6660
c630
0600
0e00
0000
ENDCHAR
STARTCHAR 0x255D
ENCODING 9565
SWIDTH 886 0
DWIDTH 12 0
BBX 12 13 0 -2
BITMAP
0000
06e0
06b0
06b0
ffe0
0600
0600
36c0
6660
c630
0600
0e00
0000
ENDCHAR
STARTCHAR 0x255E
ENCODING 9566
SWIDTH 886 0
DWIDTH 12 0
BBX 12 13 0 -2
BITMAP
0000
0000
0000
7ff0
0030
0060
00c0
1980
0d00
0600
0300
0180
0000
ENDCHAR
STARTCHAR 0x255F
ENCODING 9567
SWIDTH 886 0
DWIDTH 12 0
BBX 12 13 0 -2
BITMAP
0000
0000
1e00
03c0
0000
0000
1e00
0380
0000
0000
3e00
03c0
0000
ENDCHAR
STARTCHAR 0x2560
ENCODING 9568
SWIDTH 886 0
DWIDTH 12 0
BBX 12 13 0 -2
BITMAP
0000
0c00
0c00
0c00
0c00
1800
18c0
18c0
30c0
37a0
fc60
0060
0000
ENDCHAR
STARTCHAR 0x2561
ENCODING 9569
SWIDTH 886 0
DWIDTH 12 0
BBX 12 13 0 -2
BITMAP
0000
0180
0180
0180
0180
3980
0f00
03c0
0370
0600
1c00
7000
0000
ENDCHAR
STARTCHAR 0x2562
ENCODING 9570
SWIDTH 886 0
DWIDTH 12 0
BBX 12 13 0 -2
BITMAP
0000
0000
7fc0
0c00
0c00
0c00
fff0
0c00
0c00
0c00
0c00
07c0
0000
ENDCHAR
STARTCHAR 0x2563
ENCODING 9571
SWIDTH 886 0
DWIDTH 12 0
BBX 12 13 0 -2
BITMAP
0000
0000
0000
0000
0c00
0c00
0dc0
3ec0
0d80
0680
0600
0600
0000
ENDCHAR
STARTCHAR 0x2564
ENCODING 9572
SWIDTH 886 0
DWIDTH 12 0
BBX 12 13 0 -2
BITMAP
0000
1800
1800
19e0
1f60
f460
0cc0
0cc0
0c00
0600
0600
0600
0000
ENDCHAR
STARTCHAR 0x2565
ENCODING 9573
SWIDTH 886 0
DWIDTH 12 0
BBX 12 13 0 -2
BITMAP
0000
0000
0000
0000
0000
3f00
0300
0300
0300
0300
7fc0
0000
0000
ENDCHAR
STARTCHAR 0x2566
ENCODING 9574
SWIDTH 886 0
DWIDTH 12 0
BBX 12 13 0 -2
BITMAP
0000
0000
0000
3f80
0180
0180
0180
0180
0180
0180
fff0
0000
0000
ENDCHAR
STARTCHAR 0x2567
ENCODING 9575
SWIDTH 886 0
DWIDTH 12 0
BBX 12 13 0 -2
BITMAP
0000
0000
0000
0000
0000
1fc0
00c0
00c0
1fc0
00c0
00c0
1fc0
0000
ENDCHAR
STARTCHAR 0x2568
ENCODING 9576
SWIDTH 886 0
DWIDTH 12 0
BBX 12 13 0 -2
BITMAP
0000
0000
3fe0
0060
0060
0060
3fe0
0060
0060
0060
3fe0
0060
0000
ENDCHAR
STARTCHAR 0x2569
ENCODING 9577
SWIDTH 886 0
DWIDTH 12 0
BBX 12 13 0 -2
BITMAP
0000
0000
3fc0
0000
0000
7fe0
0060
0060
00c0
0180
0700
1c00
0000
ENDCHAR
STARTCHAR 0x256A
ENCODING 9578
SWIDTH 886 0
DWIDTH 12 0
BBX 12 13 0 -2
BITMAP
0000
30c0
30c0
30c0
30c0
30c0
30c0
00c0
0180
0180
0300
0e00
0000
ENDCHAR
STARTCHAR 0x256B
ENCODING 9579
SWIDTH 886 0
DWIDTH 12 0
BBX 12 13 0 -2
BITMAP
0000
0300
1b00
1b00
1b00
1b00
1b30
1b30
3360
3360
6340
6380
0000
ENDCHAR
STARTCHAR 0x256C
ENCODING 9580
SWIDTH 886 0
DWIDTH 12 0
BBX 12 13 0 -2
BITMAP
0000
0000
3000
3000
3000
3000
3000
3060
30c0
3180
3700
3c00
0000
ENDCHAR
STARTCHAR 0x256D
ENCODING 9581
SWIDTH 886 0
DWIDTH 12 0
BBX 12 13 0 -2
BITMAP
0000
0000
0000
7fe0
6060
6060
6060
6060
6060
6060
7fe0
6060
0000
ENDCHAR
STARTCHAR 0x256E
ENCODING 9582
SWIDTH 886 0
DWIDTH 12 0
BBX 12 13 0 -2
BITMAP
0000
0000
0000
0000
0000
3fc0
30c0
30c0
00c0
00c0
0180
0f00
0000
ENDCHAR
STARTCHAR 0x256F
ENCODING 9583
SWIDTH 886 0
DWIDTH 12 0
BBX 12 13 0 -2
BITMAP
0000
0000
7fe0
6060
6060
6060
0060
00c0
00c0
0180
0700
1c00
0000
ENDCHAR
STARTCHAR 0x2570
ENCODING 9584
SWIDTH 886 0
DWIDTH 12 0
BBX 12 13 0 -2
BITMAP
0000
0180
0180
0180
3fe0
1980
1980
1980
7ff0
0180
0180
0180
0000
ENDCHAR
STARTCHAR 0x2571
ENCODING 9585
SWIDTH 886 0
DWIDTH 12 0
BBX 12 13 0 -2
BITMAP
0000
0000
0000
3fe0
00c0
0180
0700
0600
0600
0600
7ff0
0000
0000
ENDCHAR
STARTCHAR 0x2572
ENCODING 9586
SWIDTH 886 0
DWIDTH 12 0
BBX 12 13 0 -2
BITMAP
0000
0000
3fe0
0060
0060
3fe0
0060
00c0
00c0
0180
0700
1c00
0000
ENDCHAR
STARTCHAR 0x2573
ENCODING 9587
SWIDTH 886 0
DWIDTH 12 0
BBX 12 13 0 -2
BITMAP
0000
0000
3800
0e00
0030
0030
0060
0060
00c0
0180
0700
3c00
0000
ENDCHAR
STARTCHAR 0x2574
ENCODING 9588
SWIDTH 886 0
DWIDTH 12 0
BBX 12 13 0 -2
BITMAP
0060
06b0
06c0
7fe0
6060
6060
6060
00c0
00c0
0180
0700
1c00
0000
ENDCHAR
STARTCHAR 0x2575
ENCODING 9589
SWIDTH 886 0
DWIDTH 12 0
BBX 12 13 0 -2
BITMAP
0000
0000
0000
0000
0c00
0c00
3fc0
0cc0
0cc0
0cc0
18c0
1b80
0000
ENDCHAR
STARTCHAR 0x2576
ENCODING 9590
SWIDTH 886 0
DWIDTH 12 0
BBX 12 13 0 -2
BITMAP
0000
0000
0000
0000
1800
1800
1fc0
3300
3300
0300
0600
1c00
0000
ENDCHAR
STARTCHAR 0x2621
ENCODING 9761
SWIDTH 886 0
DWIDTH 12 0
BBX 12 13 0 -2
BITMAP
0000
1e00
0600
0d00
0d00
1980
1980
1f80
30c0
30c0
f9f0
0000
0000
ENDCHAR
STARTCHAR 0x2622
ENCODING 9762
SWIDTH 886 0
DWIDTH 12 0
BBX 12 13 0 -2
BITMAP
0000
7f80
18c0
18c0
18c0
1f80
18c0
1860
1860
18c0
7f80
0000
0000
ENDCHAR
STARTCHAR 0x2623
ENCODING 9763
SWIDTH 886 0
DWIDTH 12 0
BBX 12 13 0 -2
BITMAP
0000
3fe0
0c60
0c60
0c00
0c00
0c00
0c00
0c00
0c00
3f00
0000
0000
ENDCHAR
STARTCHAR 0x2624
ENCODING 9764
SWIDTH 886 0
DWIDTH 12 0
BBX 12 13 0 -2
BITMAP
0000
0600
0600
0d00
0d00
1980
1980
30c0
30c0
6060
7fe0
0000
0000
ENDCHAR
STARTCHAR 0x2625
ENCODING 9765
SWIDTH 886 0
DWIDTH 12 0
BBX 12 13 0 -2
BITMAP
0000
3fe0
0c60
0c00
0d80
0f80
0d80
0c00
0c60
0c60
3fe0
0000
0000
ENDCHAR
STARTCHAR 0x2626
ENCODING 9766
SWIDTH 886 0
DWIDTH 12 0
BBX 12 13 0 -2
BITMAP
0000
3fc0
30c0
3180
0300
0600
0c00
1800
30c0
30c0
3fc0
0000
0000
ENDCHAR
STARTCHAR 0x2627
ENCODING 9767
SWIDTH 886 0
DWIDTH 12 0
BBX 12 13 0 -2
BITMAP
0000
7df0
18c0
18c0
18c0
1fc0
18c0
18c0
18c0
18c0
7df0
0000
0000
ENDCHAR
STARTCHAR 0x2628
ENCODING 9768
SWIDTH 886 0
DWIDTH 12 0
BBX 12 13 0 -2
BITMAP
0000
1fc0
3060
6030
68d0
6fd0
68d0
6030
6030
3060
1fc0
0000
0000
ENDCHAR
STARTCHAR 0x2629
ENCODING 9769
SWIDTH 886 0
DWIDTH 12 0
BBX 12 13 0 -2
BITMAP
0000
1f80
0600
0600
0600
0600
0600
0600
0600
0600
1f80
0000
0000
ENDCHAR
STARTCHAR 0x262A
ENCODING 9770
SWIDTH 886 0
DWIDTH 12 0
BBX 12 13 0 -2
BITMAP
0000
7df0
18c0
1980
1b00
1a00
1e00
1b00
1980
18c0
7df0
0000
0000
ENDCHAR
STARTCHAR 0x262B
ENCODING 9771
SWIDTH 886 0
DWIDTH 12 0
BBX 12 13 0 -2
BITMAP
0000
1e00
0600
0d00
0d00
1980
1980
1980
30c0
30c0
f9f0
0000
0000
ENDCHAR
STARTCHAR 0x262C
ENCODING 9772
SWIDTH 886 0
DWIDTH 12 0
BBX 12 13 0 -2
BITMAP
0000
f9f0
39c0
39c0
3540
3540
3540
36c0
36c0
36c0
f9f0
0000
0000
ENDCHAR
STARTCHAR 0x262D
ENCODING 9773
SWIDTH 886 0
DWIDTH 12 0
BBX 12 13 0 -2
BITMAP
0000
7df0
1cc0
1ac0
1ac0
1b40
1b40
19c0
19c0
18c0
7cc0
0000
0000
ENDCHAR
STARTCHAR 0x262E
ENCODING 9774
SWIDTH 886 0
DWIDTH 12 0
BBX 12 13 0 -2
BITMAP
0000
1ff0
3060
0000
18c0
1f80
3180
0000
60c0
c180
ff80
0000
0000
ENDCHAR
STARTCHAR 0x262F
ENCODING 9775
SWIDTH 886 0
DWIDTH 12 0
BBX 12 13 0 -2
BITMAP
0000
1f80
30c0
6060
6060
6060
6060
6060
6060
30c0
1f80
0000
0000
ENDCHAR
STARTCHAR 0x2630
ENCODING 9776
SWIDTH 886 0
DWIDTH 12 0
BBX 12 13 0 -2
BITMAP
0000
3fe0
18c0
18c0
18c0
18c0
18c0
18c0
18c0
18c0
7df0
0000
0000
ENDCHAR
STARTCHAR 0x2631
ENCODING 9777
SWIDTH 886 0
DWIDTH 12 0
BBX 12 13 0 -2
BITMAP
0000
7f80
18c0
1860
1860
18c0
1f80
1800
1800
1800
7c00
0000
0000
ENDCHAR
STARTCHAR 0x2632
ENCODING 9778
SWIDTH 886 0
DWIDTH 12 0
BBX 12 13 0 -2
BITMAP
00c0
3fc0
18c0
0cc0
0600
0300
0600
0c00
18c0
30c0
3fc0
00c0
0000
ENDCHAR
STARTCHAR 0x2633
ENCODING 9779
SWIDTH 886 0
DWIDTH 12 0
BBX 12 13 0 -2
BITMAP
0000
7fe0
6660
6660
0600
0600
0600
0600
0600
0600
1f80
0000
0000
ENDCHAR
STARTCHAR 0x2634
ENCODING 9780
SWIDTH 886 0
DWIDTH 12 0
BBX 12 13 0 -2
BITMAP
0000
39c0
6d60
c630
0600
0600
0600
0600
0600
0600
1f80
0000
0000
ENDCHAR
STARTCHAR 0x2635
ENCODING 9781
SWIDTH 886 0
DWIDTH 12 0
BBX 12 13 0 -2
BITMAP
0000
1f80
0600
1f80
36c0
6660
6660
36c0
1f80
0600
1f80
0000
0000
ENDCHAR
STARTCHAR 0x2636
ENCODING 9782
SWIDTH 886 0
DWIDTH 12 0
BBX 12 13 0 -2
BITMAP
0000
7de0
1980
1980
0d00
0600
0600
0d00
1980
1980
7de0
0000
0000
ENDCHAR
STARTCHAR 0x2637
ENCODING 9783
SWIDTH 886 0
DWIDTH 12 0
BBX 12 13 0 -2
BITMAP
0000
1f80
0600
6660
d6d0
36c0
36c0
1f80
0600
0600
1f80
0000
0000
ENDCHAR
STARTCHAR 0x2638
ENCODING 9784
SWIDTH 886 0
DWIDTH 12 0
BBX 12 13 0 -2
BITMAP
0000
0f80
18c0
3060
3060
3060
3060
18c0
0d80
35a0
3de0
0000
0000
ENDCHAR
STARTCHAR 0x2641
ENCODING 9793
SWIDTH 886 0
DWIDTH 12 0
BBX 12 13 0 -2
BITMAP
0000
0000
0000
0000
0e60
3b40
3180
6180
6300
6700
3dc0
0000
0000
ENDCHAR
STARTCHAR 0x2642
ENCODING 9794
SWIDTH 886 0
DWIDTH 12 0
BBX 12 13 0 -2
BITMAP
0000
0380
06c0
0cc0
0d40
1980
18c0
18c0
34c0
3780
3000
3000
0000
ENDCHAR
STARTCHAR 0x2643
ENCODING 9795
SWIDTH 886 0
DWIDTH 12 0
BBX 12 13 0 -2
BITMAP
0000
0000
0000
0000
39c0
0d60
0600
0600
0c00
0c00
1800
1800
0000
ENDCHAR
STARTCHAR 0x2644
ENCODING 9796
SWIDTH 886 0
DWIDTH 12 0
BBX 12 13 0 -2
BITMAP
0000
0700
0dc0
0c00
0600
0d00
1980
3180
3180
3300
1e00
0000
0000
ENDCHAR
STARTCHAR 0x2645
ENCODING 9797
SWIDTH 886 0
DWIDTH 12 0
BBX 12 13 0 -2
BITMAP
0000
0000
0000
07c0
0c60
0c00
0780
0e00
1800
18c0
0f80
0000
0000
ENDCHAR
STARTCHAR 0x2646
ENCODING 9798
SWIDTH 886 0
DWIDTH 12 0
BBX 12 13 0 -2
BITMAP
0000
0c00
19c0
1b00
0c00
1800
3000
3000
1c00
0700
0180
0f00
0000
ENDCHAR
STARTCHAR 0x2647
ENCODING 9799
SWIDTH 886 0
DWIDTH 12 0
BBX 12 13 0 -2
BITMAP
0000
0000
0000
3b80
0ec0
0cc0
18c0
1980
3180
3300
0300
0000
0000
ENDCHAR
STARTCHAR 0x2648
ENCODING 9800
SWIDTH 886 0
DWIDTH 12 0
BBX 12 13 0 -2
BITMAP
0000
0380
06c0
0cc0
0cc0
18c0
1fc0
18c0
1980
1980
1b00
0e00
0000
ENDCHAR
STARTCHAR 0x2649
ENCODING 9801
SWIDTH 886 0
DWIDTH 12 0
BBX 12 13 0 -2
BITMAP
0000
0000
0000
0c00
0c00
0c00
1800
18c0
30c0
3180
1f00
0000
0000
ENDCHAR
STARTCHAR 0x264A
ENCODING 9802
SWIDTH 886 0
DWIDTH 12 0
BBX 12 13 0 -2
BITMAP
0000
0000
0000
18e0
0d80
0d00
0e00
1a00
1b00
3340
3180
0000
0000
ENDCHAR
STARTCHAR 0x264B
ENCODING 9803
SWIDTH 886 0
DWIDTH 12 0
BBX 12 13 0 -2
BITMAP
0000
1e00
0300
0300
0300
0f00
1b00
3300
3180
6180
60e0
0000
0000
ENDCHAR
STARTCHAR 0x264C
ENCODING 9804
SWIDTH 886 0
DWIDTH 12 0
BBX 12 13 0 -2
BITMAP
0000
0000
0000
0060
0c60
0cc0
0cc0
1980
1b80
1e80
30e0
3000
0000
ENDCHAR
STARTCHAR 0x264D
ENCODING 9805
SWIDTH 886 0
DWIDTH 12 0
BBX 12 13 0 -2
BITMAP
0000
0000
0000
0060
3860
0cc0
0cc0
0d80
1980
1b00
1e00
0000
0000
ENDCHAR
STARTCHAR 0x264E
ENCODING 9806
SWIDTH 886 0
DWIDTH 12 0
BBX 12 13 0 -2
BITMAP
0000
07c0
0c00
0fc0
1800
1fc0
3000
3000
1f00
0180
0180
0f00
0000
ENDCHAR
STARTCHAR 0x264F
ENCODING 9807
SWIDTH 886 0
DWIDTH 12 0
BBX 12 13 0 -2
BITMAP
0000
0000
0000
0780
1cc0
18c0
30c0
30c0
3180
3380
1e00
0000
0000
ENDCHAR
STARTCHAR 0x2650
ENCODING 9808
SWIDTH 886 0
DWIDTH 12 0
BBX 12 13 0 -2
BITMAP
0000
0000
0000
0060
3fc0
0d80
0d80
1b00
1b60
3660
63c0
0000
0000
ENDCHAR
STARTCHAR 0x2651
ENCODING 9809
SWIDTH 886 0
DWIDTH 12 0
BBX 12 13 0 -2
BITMAP
0000
0000
0000
03c0
0e60
0c60
1860
18c0
39c0
3700
3000
3000
0000
ENDCHAR
STARTCHAR 0x2652
ENCODING 9810
SWIDTH 886 0
DWIDTH 12 0
BBX 12 13 0 -2
BITMAP
0000
0000
0030
0fe0
3980
3180
6180
6180
6300
6700
3c00
0000
0000
ENDCHAR
STARTCHAR 0x2653
ENCODING 9811
SWIDTH 886 0
DWIDTH 12 0
BBX 12 13 0 -2
BITMAP
0000
0000
0000
0060
3fc0
0600
0600
0c00
0c60
0cc0
0780
0000
0000
ENDCHAR
STARTCHAR 0x2654
ENCODING 9812
SWIDTH 886 0
DWIDTH 12 0
BBX 12 13 0 -2
BITMAP
0000
0000
0000
0cc0
0c60
0c60
18c0
18c0
3180
3300
1e00
0000
0000
ENDCHAR
STARTCHAR 0x2655
ENCODING 9813
SWIDTH 886 0
DWIDTH 12 0
BBX 12 13 0 -2
BITMAP
0000
0300
0300
0f80
1ac0
36c0
36c0
36c0
3680
1f00
0c00
0c00
0000
ENDCHAR
STARTCHAR 0x2656
ENCODING 9814
SWIDTH 886 0
DWIDTH 12 0
BBX 12 13 0 -2
BITMAP
0000
0000
0000
0e60
1b40
0380
0300
0300
0700
0d30
1b60
31c0
0000
ENDCHAR
STARTCHAR 0x2657
ENCODING 9815
SWIDTH 886 0
DWIDTH 12 0
BBX 12 13 0 -2
BITMAP
0000
0180
0180
0300
7330
1b60
1a60
36c0
36c0
1f80
0c00
0c00
0000
ENDCHAR
STARTCHAR 0x2658
ENCODING 9816
SWIDTH 886 0
DWIDTH 12 0
BBX 12 13 0 -2
BITMAP
0000
0000
0000
0cc0
1860
1b60
3360
3660
3660
36c0
1d80
0000
0000
ENDCHAR
STARTCHAR 0x2721
ENCODING 10017
SWIDTH 886 0
DWIDTH 12 0
BBX 12 13 0 -2
BITMAP
0000
1e00
0600
0d00
0d00
1980
1980
1f80
30c0
30c0
f9f0
0000
0000
ENDCHAR
STARTCHAR 0x2722
ENCODING 10018
SWIDTH 886 0
DWIDTH 12 0
BBX 12 13 0 -2
BITMAP
0000
7f80
18c0
1860
1800
1f80
18c0
1860
1860
18c0
7f80
0000
0000
ENDCHAR
STARTCHAR 0x2723
ENCODING 10019
SWIDTH 886 0
DWIDTH 12 0
BBX 12 13 0 -2
BITMAP
0000
7f80
18c0
18c0
18c0
1f80
18c0
1860
1860
18c0
7f80
0000
0000
ENDCHAR
STARTCHAR 0x2724
ENCODING 10020
SWIDTH 886 0
DWIDTH 12 0
BBX 12 13 0 -2
BITMAP
0000
3fe0
0c60
0c60
0c00
0c00
0c00
0c00
0c00
0c00
3e00
0000
0000
ENDCHAR
STARTCHAR 0x2725
ENCODING 10021
SWIDTH 886 0
DWIDTH 12 0
BBX 12 13 0 -2
BITMAP
0000
3fe0
0cc0
0cc0
0cc0
0cc0
0cc0
18c0
18c0
3fc0
3060
6030
0000
ENDCHAR
STARTCHAR 0x2726
ENCODING 10022
SWIDTH 886 0
DWIDTH 12 0
BBX 12 13 0 -2
BITMAP
0000
7f80
1980
18c0
1b00
1f00
1b00
1800
1860
18c0
7fc0
0000
0000
ENDCHAR
STARTCHAR 0x2727
ENCODING 10023
SWIDTH 886 0
DWIDTH 12 0
BBX 12 13 0 -2
BITMAP
39c0
0000
7fc0
18c0
1860
1b00
1f00
1b00
1830
1860
7fe0
0000
0000
ENDCHAR
STARTCHAR 0x2728
ENCODING 10024
SWIDTH 886 0
DWIDTH 12 0
BBX 12 13 0 -2
BITMAP
0000
1f80
6660
d6d0
36c0
1f80
1a80
36c0
36c0
6660
efb0
0000
0000
ENDCHAR
STARTCHAR 0x2729
ENCODING 10025
SWIDTH 886 0
DWIDTH 12 0
BBX 12 13 0 -2
BITMAP
0000
3780
38c0
3060
00c0
0380
00c0
0060
3060
38c0
3780
0000
0000
ENDCHAR
STARTCHAR 0x272A
ENCODING 10026
SWIDTH 886 0
DWIDTH 12 0
BBX 12 13 0 -2
BITMAP
0000
7df0
19c0
1b40
1b40
1ac0
1ac0
1cc0
1cc0
18c0
79f0
0000
0000
ENDCHAR
STARTCHAR 0x272B
ENCODING 10027
SWIDTH 886 0
DWIDTH 12 0
BBX 12 13 0 -2
BITMAP
0d80
0700
78f0
19c0
19c0
1b40
1b40
1ac0
1ac0
1cc0
7df0
0000
0000
ENDCHAR
STARTCHAR 0x272C
ENCODING 10028
SWIDTH 886 0
DWIDTH 12 0
BBX 12 13 0 -2
BITMAP
0000
7ce0
19b0
1980
1b00
1a00
1e00
1b00
1980
18c0
7df0
0000
0000
ENDCHAR
STARTCHAR 0x272D
ENCODING 10029
SWIDTH 886 0
DWIDTH 12 0
BBX 12 13 0 -2
BITMAP
0000
1ff0
06c0
06c0
06c0
06c0
06c0
66c0
66c0
6cc0
39f0
0000
0000
ENDCHAR
STARTCHAR 0x272E
ENCODING 10030
SWIDTH 886 0
DWIDTH 12 0
BBX 12 13 0 -2
BITMAP
0000
79e0
1980
1980
3540
3540
3540
36c0
36c0
36c0
f9f0
0000
0000
ENDCHAR
STARTCHAR 0x272F
ENCODING 10031
SWIDTH 886 0
DWIDTH 12 0
BBX 12 13 0 -2
BITMAP
0000
7df0
18c0
18c0
18c0
1fc0
18c0
18c0
18c0
18c0
7df0
0000
0000
ENDCHAR
STARTCHAR 0x2730
ENCODING 10032
SWIDTH 886 0
DWIDTH 12 0
BBX 12 13 0 -2
BITMAP
0000
1f80
30c0
6060
6060
6060
6060
6060
6060
30c0
1f80
0000
0000
ENDCHAR
STARTCHAR 0x2731
ENCODING 10033
SWIDTH 886 0
DWIDTH 12 0
BBX 12 13 0 -2
BITMAP
0000
3fe0
18c0
18c0
18c0
18c0
18c0
18c0
18c0
18c0
7df0
0000
0000
ENDCHAR
STARTCHAR 0x2732
ENCODING 10034
SWIDTH 886 0
DWIDTH 12 0
BBX 12 13 0 -2
BITMAP
0000
7f80
18c0
1860
1860
18c0
1f80
1800
1800
1800
7c00
0000
0000
ENDCHAR
STARTCHAR 0x2733
ENCODING 10035
SWIDTH 886 0
DWIDTH 12 0
BBX 12 13 0 -2
BITMAP
0000
0fa0
18e0
3060
3000
3000
3000
3000
3060
18e0
0f80
0000
0000
ENDCHAR
STARTCHAR 0x2734
ENCODING 10036
SWIDTH 886 0
DWIDTH 12 0
BBX 12 13 0 -2
BITMAP
0000
7fe0
6660
6660
c630
0600
0600
0600
0600
0600
1f80
0000
0000
ENDCHAR
STARTCHAR 0x2735
ENCODING 10037
SWIDTH 886 0
DWIDTH 12 0
BBX 12 13 0 -2
BITMAP
0000
7df0
18c0
18c0
0d80
0d80
0d00
0d00
0600
6600
6c00
3800
0000
ENDCHAR
STARTCHAR 0x2736
ENCODING 10038
SWIDTH 886 0
DWIDTH 12 0
BBX 12 13 0 -2
BITMAP
0000
1f80
0600
1f80
36c0
6660
6660
36c0
1f80
0600
1f80
0000
0000
ENDCHAR
STARTCHAR 0x2737
ENCODING 10039
SWIDTH 886 0
DWIDTH 12 0
BBX 12 13 0 -2
BITMAP
0000
7de0
1980
1980
0d00
0600
0600
0d00
1980
1980
7de0
0000
0000
ENDCHAR
STARTCHAR 0x2738
ENCODING 10040
SWIDTH 886 0
DWIDTH 12 0
BBX 12 13 0 -2
BITMAP
0000
7de0
1980
1980
1980
1980
1980
1980
1980
1980
7fe0
0030
0000
ENDCHAR
STARTCHAR 0x2739
ENCODING 10041
SWIDTH 886 0
DWIDTH 12 0
BBX 12 13 0 -2
BITMAP
0000
7df0
18c0
18c0
18c0
18c0
19c0
0f40
00c0
00c0
01f0
0000
0000
ENDCHAR
STARTCHAR 0x273A
ENCODING 10042
SWIDTH 886 0
DWIDTH 12 0
BBX 12 13 0 -2
BITMAP
0000
f770
36c0
36c0
36c0
36c0
36c0
36c0
36c0
36c0
fff0
0000
0000
ENDCHAR
STARTCHAR 0x273B
ENCODING 10043
SWIDTH 886 0
DWIDTH 12 0
BBX 12 13 0 -2
BITMAP
0000
f770
36c0
36c0
36c0
36c0
36c0
36c0
36c0
36c0
fff0
0018
0000
ENDCHAR
STARTCHAR 0x273C
ENCODING 10044
SWIDTH 886 0
DWIDTH 12 0
BBX 12 13 0 -2
BITMAP
0000
7f00
6c00
6c00
0c00
0fc0
0c60
0c30
0c30
0c60
3fc0
0000
0000
ENDCHAR
STARTCHAR 0x273D
ENCODING 10045
SWIDTH 886 0
DWIDTH 12 0
BBX 12 13 0 -2
BITMAP
0000
fdf0
30c0
30c0
30c0
3ec0
3340
3340
3340
3340
fef0
0000
0000
ENDCHAR
STARTCHAR 0x273E
ENCODING 10046
SWIDTH 886 0
DWIDTH 12 0
BBX 12 13 0 -2
BITMAP
0000
7e00
1800
1800
1800
1f80
18c0
1860
1860
18c0
7f80
0000
0000
ENDCHAR
STARTCHAR 0x273F
ENCODING 10047
SWIDTH 886 0
DWIDTH 12 0
BBX 12 13 0 -2
BITMAP
0000
3780
38c0
3060
0060
0760
0de0
0060
3060
38c0
3780
0000
0000
ENDCHAR
STARTCHAR 0x2740
ENCODING 10048
SWIDTH 886 0
DWIDTH 12 0
BBX 12 13 0 -2
BITMAP
0000
f9c0
3360
3630
3630
3e30
3630
3630
3630
3360
f9c0
0000
0000
ENDCHAR
STARTCHAR 0x2741
ENCODING 10049
SWIDTH 886 0
DWIDTH 12 0
BBX 12 13 0 -2
BITMAP
0000
0ff0
18c0
30c0
30c0
18c0
0fc0
06c0
0cc0
18c0
71f0
0000
0000
ENDCHAR
STARTCHAR 0x2751
ENCODING 10065
SWIDTH 886 0
DWIDTH 12 0
BBX 12 13 0 -2
BITMAP
0000
0000
0000
0f80
18c0
00c0
07c0
1cc0
18c0
19c0
0f60
0000
0000
ENDCHAR
STARTCHAR 0x2752
ENCODING 10066
SWIDTH 886 0
DWIDTH 12 0
BBX 12 13 0 -2
BITMAP
0180
0700
0c00
1800
1b00
1d80
18c0
18c0
18c0
0d80
0700
0000
0000
ENDCHAR
STARTCHAR 0x2753
ENCODING 10067
SWIDTH 886 0
DWIDTH 12 0
BBX 12 13 0 -2
BITMAP
0000
0000
0000
3f00
1980
1980
1f00
1980
18c0
1980
3f00
0000
0000
ENDCHAR
STARTCHAR 0x2754
ENCODING 10068
SWIDTH 886 0
DWIDTH 12 0
BBX 12 13 0 -2
BITMAP
0000
0000
0000
1f80
0cc0
0c60
0c00
0c00
0c00
0c00
1f00
0000
0000
ENDCHAR
STARTCHAR 0x2755
ENCODING 10069
SWIDTH 886 0
DWIDTH 12 0
BBX 12 13 0 -2
BITMAP
0000
0000
0000
3fc0
0d80
0d80
0d80
0d80
1980
1fc0
3060
6060
0000
ENDCHAR
STARTCHAR 0x2756
ENCODING 10070
SWIDTH 886 0
DWIDTH 12 0
BBX 12 13 0 -2
BITMAP
0000
0000
0000
0f00
1980
30c0
3fc0
3000
3000
18c0
0f80
0000
0000
ENDCHAR
STARTCHAR 0x2757
ENCODING 10071
SWIDTH 886 0
DWIDTH 12 0
BBX 12 13 0 -2
BITMAP
39c0
0000
0000
0f00
1980
30c0
3fc0
3000
3000
18c0
0f80
0000
0000
ENDCHAR
STARTCHAR 0x2758
ENCODING 10072
SWIDTH 886 0
DWIDTH 12 0
BBX 12 13 0 -2
BITMAP
0000
0000
0000
6f60
6660
3ac0
1f80
36c0
36c0
36c0
7760
0000
0000
ENDCHAR
STARTCHAR 0x2759
ENCODING 10073
SWIDTH 886 0
DWIDTH 12 0
BBX 12 13 0 -2
BITMAP
0000
0000
0000
1f80
30c0
00c0
0780
00c0
30c0
38c0
0f80
0000
0000
ENDCHAR
STARTCHAR 0x275A
ENCODING 10074
SWIDTH 886 0
DWIDTH 12 0
BBX 12 13 0 -2
BITMAP
0000
0000
0000
3de0
19c0
1b40
1b40
1ac0
1ac0
1cc0
3de0
0000
0000
ENDCHAR
STARTCHAR 0x275B
ENCODING 10075
SWIDTH 886 0
DWIDTH 12 0
BBX 12 13 0 -2
BITMAP
0d80
0700
0000
3de0
19c0
1b40
1b40
1ac0
1ac0
1cc0
3de0
0000
0000
ENDCHAR
STARTCHAR 0x275C
ENCODING 10076
SWIDTH 886 0
DWIDTH 12 0
BBX 12 13 0 -2
BITMAP
0000
0000
0000
3dc0
1b60
1b00
1a00
1d00
1980
18c0
3de0
0000
0000
ENDCHAR
STARTCHAR 0x275D
ENCODING 10077
SWIDTH 886 0
DWIDTH 12 0
BBX 12 13 0 -2
BITMAP
0000
0000
0000
1fe0
06c0
06c0
06c0
06c0
36c0
36c0
1de0
0000
0000
ENDCHAR
STARTCHAR 0x275E
ENCODING 10078
SWIDTH 886 0
DWIDTH 12 0
BBX 12 13 0 -2
BITMAP
0000
0000
0000
79e0
39c0
3540
3540
3540
36c0
36c0
79e0
0000
0000
ENDCHAR
STARTCHAR 0x275F
ENCODING 10079
SWIDTH 886 0
DWIDTH 12 0
BBX 12 13 0 -2
BITMAP
0000
0000
0000
3de0
18c0
18c0
1fc0
18c0
18c0
18c0
3de0
0000
0000
ENDCHAR
STARTCHAR 0x2760
ENCODING 10080
SWIDTH 886 0
DWIDTH 12 0
BBX 12 13 0 -2
BITMAP
0000
0000
0000
0f80
18c0
3060
3060
3060
3060
18c0
0f80
0000
0000
ENDCHAR
STARTCHAR 0x2761
ENCODING 10081
SWIDTH 886 0
DWIDTH 12 0
BBX 12 13 0 -2
BITMAP
0000
0000
0000
3fe0
18c0
18c0
18c0
18c0
18c0
18c0
3de0
0000
0000
ENDCHAR
STARTCHAR 0x2762
ENCODING 10082
SWIDTH 886 0
DWIDTH 12 0
BBX 12 13 0 -2
BITMAP
0000
0000
0000
3b80
1cc0
1860
1860
1860
1cc0
1b80
1800
3c00
0000
ENDCHAR
STARTCHAR 0x2763
ENCODING 10083
SWIDTH 886 0
DWIDTH 12 0
BBX 12 13 0 -2
BITMAP
0000
0000
0000
0f80
18c0
30c0
3000
3000
3000
18c0
0f80
0000
0000
ENDCHAR
STARTCHAR 0x2764
ENCODING 10084
SWIDTH 886 0
DWIDTH 12 0
BBX 12 13 0 -2
BITMAP
0000
0000
0000
3fc0
36c0
6660
0600
0600
0600
0600
0f00
0000
0000
ENDCHAR
STARTCHAR 0x2765
ENCODING 10085
SWIDTH 886 0
DWIDTH 12 0
BBX 12 13 0 -2
BITMAP
0000
0000
0000
1ee0
0cc0
0cc0
0680
0680
0300
1b00
1b00
0e00
0000
ENDCHAR
STARTCHAR 0x2766
ENCODING 10086
SWIDTH 886 0
DWIDTH 12 0
BBX 12 13 0 -2
BITMAP
0000
0e00
0600
3ac0
6f60
6660
6660
6f60
3ac0
0600
0f00
0000
0000
ENDCHAR
STARTCHAR 0x2767
ENCODING 10087
SWIDTH 886 0
DWIDTH 12 0
BBX 12 13 0 -2
BITMAP
0000
0000
0000
3dc0
1980
0d00
0600
0600
0d00
1980
3dc0
0000
0000
ENDCHAR
STARTCHAR 0x2768
ENCODING 10088
SWIDTH 886 0
DWIDTH 12 0
BBX 12 13 0 -2
BITMAP
0000
0000
0000
3dc0
1980
1980
1980
1980
1980
1980
3fc0
0060
0000
ENDCHAR
STARTCHAR 0x2769
ENCODING 10089
SWIDTH 886 0
DWIDTH 12 0
BBX 12 13 0 -2
BITMAP
0000
0000
0000
3dc0
1980
1980
1980
1b80
0e80
0180
03c0
0000
0000
ENDCHAR
STARTCHAR 0x276A
ENCODING 10090
SWIDTH 886 0
DWIDTH 12 0
BBX 12 13 0 -2
BITMAP
0000
0000
0000
7760
36c0
36c0
36c0
36c0
36c0
36c0
7fe0
0000
0000
ENDCHAR
STARTCHAR 0x276B
ENCODING 10091
SWIDTH 886 0
DWIDTH 12 0
BBX 12 13 0 -2
BITMAP
0000
0000
0000
7760
36c0
36c0
36c0
36c0
36c0
36c0
7fe0
0030
0000
ENDCHAR
STARTCHAR 0x276C
ENCODING 10092
SWIDTH 886 0
DWIDTH 12 0
BBX 12 13 0 -2
BITMAP
0000
0000
0000
1f00
3600
3600
07c0
0660
0660
0660
1fc0
0000
0000
ENDCHAR
STARTCHAR 0x276D
ENCODING 10093
SWIDTH 886 0
DWIDTH 12 0
BBX 12 13 0 -2
BITMAP
0000
0000
0000
79e0
30c0
30c0
3ec0
3340
3340
3340
7ee0
0000
0000
ENDCHAR
STARTCHAR 0x276E
ENCODING 10094
SWIDTH 886 0
DWIDTH 12 0
BBX 12 13 0 -2
BITMAP
0000
0000
0000
1e00
0c00
0c00
0f80
0cc0
0cc0
0cc0
1f80
0000
0000
ENDCHAR
STARTCHAR 0x276F
ENCODING 10095
SWIDTH 886 0
DWIDTH 12 0
BBX 12 13 0 -2
BITMAP
0000
0000
0000
1f00
3180
00c0
0ec0
1bc0
00c0
3180
1f00
0000
0000
ENDCHAR
STARTCHAR 0x2770
ENCODING 10096
SWIDTH 886 0
DWIDTH 12 0
BBX 12 13 0 -2
BITMAP
0000
0000
0000
3dc0
1a60
1a60
1e60
1a60
1a60
1a60
3dc0
0000
0000
ENDCHAR
STARTCHAR 0x2771
ENCODING 10097
SWIDTH 886 0
DWIDTH 12 0
BBX 12 13 0 -2
BITMAP
0000
0000
0000
1fc0
3180
3180
1f80
0680
0d80
0d80
3bc0
0000
0000
ENDCHAR
STARTCHAR 0x2821
ENCODING 10273
SWIDTH 886 0
DWIDTH 12 0
BBX 12 13 0 -2
BITMAP
0000
0000
0000
0000
0000
0000
fff8
0000
0000
0000
0000
0000
0000
ENDCHAR
STARTCHAR 0x2822
ENCODING 10274
SWIDTH 886 0
DWIDTH 12 0
BBX 12 13 0 -2
BITMAP
0600
0600
0600
0600
0600
0600
0600
0600
0600
0600
0600
0600
0600
ENDCHAR
STARTCHAR 0x2823
ENCODING 10275
SWIDTH 886 0
DWIDTH 12 0
BBX 12 13 0 -2
BITMAP
0000
0000
0000
0000
0000
0000
07f8
0600
0600
0600
0600
0600
0600
ENDCHAR
STARTCHAR 0x2824
ENCODING 10276
SWIDTH 886 0
DWIDTH 12 0
BBX 12 13 0 -2
BITMAP
0000
0000
0000
0000
0000
0000
fe00
0600
0600
0600
0600
0600
0600
ENDCHAR
STARTCHAR 0x2825
ENCODING 10277
SWIDTH 886 0
DWIDTH 12 0
BBX 12 13 0 -2
BITMAP
0600
0600
0600
0600
0600
0600
fe00
0000
0000
0000
0000
0000
0000
ENDCHAR
STARTCHAR 0x2826
ENCODING 10278
SWIDTH 886 0
DWIDTH 12 0
BBX 12 13 0 -2
BITMAP
0600
0600
0600
0600
0600
0600
07f8
0000
0000
0000
0000
0000
0000
ENDCHAR
STARTCHAR 0x2827
ENCODING 10279
SWIDTH 886 0
DWIDTH 12 0
BBX 12 13 0 -2
BITMAP
0600
0600
0600
0600
0600
0600
07f8
0600
0600
0600
0600
0600
0600
ENDCHAR
STARTCHAR 0x2828
ENCODING 10280
SWIDTH 886 0
DWIDTH 12 0
BBX 12 13 0 -2
BITMAP
0000
0000
0000
0000
0000
0000
fff8
0600
0600
0600
0600
0600
0600
ENDCHAR
STARTCHAR 0x2829
ENCODING 10281
SWIDTH 886 0
DWIDTH 12 0
BBX 12 13 0 -2
BITMAP
0600
0600
0600
0600
0600
0600
fe00
0600
0600
0600
0600
0600
0600
ENDCHAR
STARTCHAR 0x282A
ENCODING 10282
SWIDTH 886 0
DWIDTH 12 0
BBX 12 13 0 -2
BITMAP
0600
0600
0600
0600
0600
0600
fff8
0000
0000
0000
0000
0000
0000
ENDCHAR
STARTCHAR 0x282B
ENCODING 10283
SWIDTH 886 0
DWIDTH 12 0
BBX 12 13 0 -2
BITMAP
0600
0600
0600
0600
0600
0600
fff8
0600
0600
0600
0600
0600
0600
ENDCHAR
STARTCHAR 0x282C
ENCODING 10284
SWIDTH 886 0
DWIDTH 12 0
BBX 12 13 0 -2
BITMAP
0000
0000
0000
0000
0000
fff8
fff8
0000
0000
0000
0000
0000
0000
ENDCHAR
STARTCHAR 0x282D
ENCODING 10285
SWIDTH 886 0
DWIDTH 12 0
BBX 12 13 0 -2
BITMAP
0700
0700
0700
0700
0700
0700
0700
0700
0700
0700
0700
0700
0700
ENDCHAR
STARTCHAR 0x282E
ENCODING 10286
SWIDTH 886 0
DWIDTH 12 0
BBX 12 13 0 -2
BITMAP
0000
0000
0000
0000
0000
07f8
07f8
0700
0700
0700
0700
0700
0700
ENDCHAR
STARTCHAR 0x282F
ENCODING 10287
SWIDTH 886 0
DWIDTH 12 0
BBX 12 13 0 -2
BITMAP
0000
0000
0000
0000
0000
ff00
ff00
0700
0700
0700
0700
0700
0700
ENDCHAR
STARTCHAR 0x2830
ENCODING 10288
SWIDTH 886 0
DWIDTH 12 0
BBX 12 13 0 -2
BITMAP
0700
0700
0700
0700
0700
ff00
ff00
0000
0000
0000
0000
0000
0000
ENDCHAR
STARTCHAR 0x2831
ENCODING 10289
SWIDTH 886 0
DWIDTH 12 0
BBX 12 13 0 -2
BITMAP
0700
0700
0700
0700
0700
07f8
07f8
0000
0000
0000
0000
0000
0000
ENDCHAR
STARTCHAR 0x2832
ENCODING 10290
SWIDTH 886 0
DWIDTH 12 0
BBX 12 13 0 -2
BITMAP
0700
0700
0700
0700
0700
07f8
07f8
0700
0700
0700
0700
0700
0700
ENDCHAR
STARTCHAR 0x2833
ENCODING 10291
SWIDTH 886 0
DWIDTH 12 0
BBX 12 13 0 -2
BITMAP
0000
0000
0000
0000
0000
fff8
fff8
0700
0700
0700
0700
0700
0700
ENDCHAR
STARTCHAR 0x2834
ENCODING 10292
SWIDTH 886 0
DWIDTH 12 0
BBX 12 13 0 -2
BITMAP
0700
0700
0700
0700
0700
ff00
ff00
0700
0700
0700
0700
0700
0700
ENDCHAR
STARTCHAR 0x2835
ENCODING 10293
SWIDTH 886 0
DWIDTH 12 0
BBX 12 13 0 -2
BITMAP
0700
0700
0700
0700
0700
fff8
fff8
0000
0000
0000
0000
0000
0000
ENDCHAR
STARTCHAR 0x2836
ENCODING 10294
SWIDTH 886 0
DWIDTH 12 0
BBX 12 13 0 -2
BITMAP
0700
0700
0700
0700
0700
fff8
fff8
0700
0700
0700
0700
0700
0700
ENDCHAR
STARTCHAR 0x2837
ENCODING 10295
SWIDTH 886 0
DWIDTH 12 0
BBX 12 13 0 -2
BITMAP
0700
0700
0700
0700
0700
0700
07f8
0700
0700
0700
0700
0700
0700
ENDCHAR
STARTCHAR 0x2838
ENCODING 10296
SWIDTH 886 0
DWIDTH 12 0
BBX 12 13 0 -2
BITMAP
0000
0000
0000
0000
0000
fff8
fff8
0600
0600
0600
0600
0600
0600
ENDCHAR
STARTCHAR 0x2839
ENCODING 10297
SWIDTH 886 0
DWIDTH 12 0
BBX 12 13 0 -2
BITMAP
0700
0700
0700
0700
0700
0700
ff00
0700
0700
0700
0700
0700
0700
ENDCHAR
STARTCHAR 0x283A
ENCODING 10298
SWIDTH 886 0
DWIDTH 12 0
BBX 12 13 0 -2
BITMAP
0600
0600
0600
0600
0600
fff8
fff8
0000
0000
0000
0000
0000
0000
ENDCHAR
STARTCHAR 0x283B
ENCODING 10299
SWIDTH 886 0
DWIDTH 12 0
BBX 12 13 0 -2
BITMAP
0600
0600
0600
0600
0600
fff8
fff8
0600
0600
0600
0600
0600
0600
ENDCHAR
STARTCHAR 0x283C
ENCODING 10300
SWIDTH 886 0
DWIDTH 12 0
BBX 12 13 0 -2
BITMAP
0600
0600
0600
0600
0600
07f8
07f8
0600
0600
0600
0600
0600
0600
ENDCHAR
STARTCHAR 0x283D
ENCODING 10301
SWIDTH 886 0
DWIDTH 12 0
BBX 12 13 0 -2
BITMAP
0000
0000
0000
0000
0000
0000
fff8
0700
0700
0700
0700
0700
0700
ENDCHAR
STARTCHAR 0x283E
ENCODING 10302
SWIDTH 886 0
DWIDTH 12 0
BBX 12 13 0 -2
BITMAP
0600
0600
0600
0600
0600
fe00
fe00
0600
0600
0600
0600
0600
0600
ENDCHAR
STARTCHAR 0x283F
ENCODING 10303
SWIDTH 886 0
DWIDTH 12 0
BBX 12 13 0 -2
BITMAP
0700
0700
0700
0700
0700
fff8
0000
0000
0000
0000
0000
0000
0000
ENDCHAR
STARTCHAR 0x2840
ENCODING 10304
SWIDTH 886 0
DWIDTH 12 0
BBX 12 13 0 -2
BITMAP
0700
0700
0700
0700
0700
0700
fff8
0700
0700
0700
0700
0700
0700
ENDCHAR
STARTCHAR 0x2D21
ENCODING 11553
SWIDTH 886 0
DWIDTH 12 0
BBX 12 13 0 -2
BITMAP
0000
0f00
39c0
6660
6e60
da30
c630
c630
6660
6660
39c0
0f00
0000
ENDCHAR
STARTCHAR 0x2D22
ENCODING 11554
SWIDTH 886 0
DWIDTH 12 0
BBX 12 13 0 -2
BITMAP
0000
0f00
39c0
6f60
69a0
c1b0
c730
cc30
6860
6fa0
39c0
0f00
0000
ENDCHAR
STARTCHAR 0x2D23
ENCODING 11555
SWIDTH 886 0
DWIDTH 12 0
BBX 12 13 0 -2
BITMAP
0000
0f00
39c0
6f60
69a0
c1b0
c730
c1b0
69a0
6f60
39c0
0f00
0000
ENDCHAR
STARTCHAR 0x2D24
ENCODING 11556
SWIDTH 886 0
DWIDTH 12 0
BBX 12 13 0 -2
BITMAP
0000
0f00
39c0
6760
6760
cd30
cd30
db30
6fa0
6360
39c0
0f00
0000
ENDCHAR
STARTCHAR 0x2D25
ENCODING 11557
SWIDTH 886 0
DWIDTH 12 0
BBX 12 13 0 -2
BITMAP
0000
0f00
39c0
6fa0
6860
df30
c1b0
c1b0
69a0
6f60
39c0
0f00
0000
ENDCHAR
STARTCHAR 0x2D26
ENCODING 11558
SWIDTH 886 0
DWIDTH 12 0
BBX 12 13 0 -2
BITMAP
0000
0f00
39c0
6f60
6860
df30
d9b0
d9b0
69a0
6f60
39c0
0f00
0000
ENDCHAR
STARTCHAR 0x2D27
ENCODING 11559
SWIDTH 886 0
DWIDTH 12 0
BBX 12 13 0 -2
BITMAP
0000
0f00
39c0
6fa0
61a0
c330
c630
c630
6c60
6c60
39c0
0f00
0000
ENDCHAR
STARTCHAR 0x2D28
ENCODING 11560
SWIDTH 886 0
DWIDTH 12 0
BBX 12 13 0 -2
BITMAP
0000
0f00
39c0
6f60
69a0
d9b0
cf30
d9b0
69a0
6f60
39c0
0f00
0000
ENDCHAR
STARTCHAR 0x2D29
ENCODING 11561
SWIDTH 886 0
DWIDTH 12 0
BBX 12 13 0 -2
BITMAP
0000
0f00
39c0
6f60
69a0
d9b0
d9b0
cfb0
61a0
6f60
39c0
0f00
0000
ENDCHAR
STARTCHAR 0x2D2A
ENCODING 11562
SWIDTH 886 0
DWIDTH 12 0
BBX 12 13 0 -2
BITMAP
0000
0f00
39c0
6ba0
7ae0
dad0
dad0
dad0
6ae0
6ba0
39c0
0f00
0000
ENDCHAR
STARTCHAR 0x2D2B
ENCODING 11563
SWIDTH 886 0
DWIDTH 12 0
BBX 12 13 0 -2
BITMAP
0000
0f00
39c0
69a0
7ba0
d9b0
d9b0
d9b0
69a0
69a0
39c0
0f00
0000
ENDCHAR
STARTCHAR 0x2D2C
ENCODING 11564
SWIDTH 886 0
DWIDTH 12 0
BBX 12 13 0 -2
BITMAP
0000
0f00
39c0
6ba0
7ae0
d8d0
d9b0
db30
6a60
6be0
39c0
0f00
0000
ENDCHAR
STARTCHAR 0x2D2D
ENCODING 11565
SWIDTH 886 0
DWIDTH 12 0
BBX 12 13 0 -2
BITMAP
0000
0f00
39c0
6ba0
7ae0
d8d0
dbb0
d8d0
6ae0
6ba0
39c0
0f00
0000
ENDCHAR
STARTCHAR 0x2D2E
ENCODING 11566
SWIDTH 886 0
DWIDTH 12 0
BBX 12 13 0 -2
BITMAP
0000
0f00
39c0
6ba0
7ba0
dab0
dab0
dab0
6be0
69a0
39c0
0f00
0000
ENDCHAR
STARTCHAR 0x2D2F
ENCODING 11567
SWIDTH 886 0
DWIDTH 12 0
BBX 12 13 0 -2
BITMAP
0000
0f00
39c0
6be0
7a60
dbb0
d8d0
d8d0
6ae0
6ba0
39c0
0f00
0000
ENDCHAR
STARTCHAR 0x2D30
ENCODING 11568
SWIDTH 886 0
DWIDTH 12 0
BBX 12 13 0 -2
BITMAP
0000
0f00
39c0
6ba0
7a60
dbb0
dad0
dad0
6ae0
6ba0
39c0
0f00
0000
ENDCHAR
STARTCHAR 0x2D31
ENCODING 11569
SWIDTH 886 0
DWIDTH 12 0
BBX 12 13 0 -2
BITMAP
0000
0f00
39c0
6be0
78e0
d9b0
d9b0
db30
6b60
6b60
39c0
0f00
0000
ENDCHAR
STARTCHAR 0x2D32
ENCODING 11570
SWIDTH 886 0
DWIDTH 12 0
BBX 12 13 0 -2
BITMAP
0000
0f00
39c0
6ba0
7ae0
dad0
dbb0
dad0
6ae0
6ba0
39c0
0f00
0000
ENDCHAR
STARTCHAR 0x2D33
ENCODING 11571
SWIDTH 886 0
DWIDTH 12 0
BBX 12 13 0 -2
BITMAP
0000
0f00
39c0
6ba0
7ae0
dad0
dad0
dbd0
68e0
6ba0
39c0
0f00
0000
ENDCHAR
STARTCHAR 0x2D34
ENCODING 11572
SWIDTH 886 0
DWIDTH 12 0
BBX 12 13 0 -2
BITMAP
0000
0f00
39c0
6ea0
6b60
c750
cd50
db50
6b60
6ea0
39c0
0f00
0000
ENDCHAR
STARTCHAR 0x2D35
ENCODING 11573
SWIDTH 886 0
DWIDTH 12 0
BBX 12 13 0 -2
BITMAP
0000
1f80
0600
0600
0600
0600
0600
0600
0600
0600
1f80
0000
0000
ENDCHAR
STARTCHAR 0x2D36
ENCODING 11574
SWIDTH 886 0
DWIDTH 12 0
BBX 12 13 0 -2
BITMAP
0000
1fc0
0d80
0d80
0d80
0d80
0d80
0d80
0d80
0d80
1fc0
0000
0000
ENDCHAR
STARTCHAR 0x2D37
ENCODING 11575
SWIDTH 886 0
DWIDTH 12 0
BBX 12 13 0 -2
BITMAP
0000
7fe0
36c0
36c0
36c0
36c0
36c0
36c0
36c0
36c0
7fe0
0000
0000
ENDCHAR
STARTCHAR 0x2D38
ENCODING 11576
SWIDTH 886 0
DWIDTH 12 0
BBX 12 13 0 -2
BITMAP
0000
7ee0
34c0
34c0
34c0
3680
3680
3680
3300
3300
7b00
0000
0000
ENDCHAR
STARTCHAR 0x2D39
ENCODING 11577
SWIDTH 886 0
DWIDTH 12 0
BBX 12 13 0 -2
BITMAP
0000
79e0
30c0
30c0
1980
1980
1980
0d00
0d00
0600
0600
0000
0000
ENDCHAR
STARTCHAR 0x2D3A
ENCODING 11578
SWIDTH 886 0
DWIDTH 12 0
BBX 12 13 0 -2
BITMAP
0000
7be0
3340
3340
3340
1ac0
1ac0
1ac0
0cc0
0cc0
0de0
0000
0000
ENDCHAR
STARTCHAR 0x2D3B
ENCODING 11579
SWIDTH 886 0
DWIDTH 12 0
BBX 12 13 0 -2
BITMAP
0000
f7f0
66a0
66a0
66a0
35a0
35a0
35a0
19a0
19a0
1bf0
0000
0000
ENDCHAR
STARTCHAR 0x2D3C
ENCODING 11580
SWIDTH 886 0
DWIDTH 12 0
BBX 12 13 0 -2
BITMAP
0000
eff0
6aa0
6aa0
6aa0
6aa0
6aa0
36a0
36a0
36a0
37f0
0000
0000
ENDCHAR
STARTCHAR 0x2D3D
ENCODING 11581
SWIDTH 886 0
DWIDTH 12 0
BBX 12 13 0 -2
BITMAP
0000
7ee0
34c0
3680
3680
3300
3300
3680
3680
34c0
7ee0
0000
0000
ENDCHAR
STARTCHAR 0x2D3E
ENCODING 11582
SWIDTH 886 0
DWIDTH 12 0
BBX 12 13 0 -2
BITMAP
0000
79e0
30c0
1980
0d00
0600
0600
0d00
1980
30c0
79e0
0000
0000
ENDCHAR
STARTCHAR 0x2D40
ENCODING 11584
SWIDTH 886 0
DWIDTH 12 0
BBX 12 13 0 -2
BITMAP
0000
f000
1c00
f000
1c00
f000
1d30
0330
0330
0330
0060
01c0
0000
ENDCHAR
STARTCHAR 0x2D41
ENCODING 11585
SWIDTH 886 0
DWIDTH 12 0
BBX 12 13 0 -2
BITMAP
0000
3000
fc00
3000
3000
fe00
1800
1bf0
0330
0330
0330
03f0
0000
ENDCHAR
STARTCHAR 0x2D42
ENCODING 11586
SWIDTH 886 0
DWIDTH 12 0
BBX 12 13 0 -2
BITMAP
0000
6300
fdb0
6c30
6060
3dc0
0000
7c00
1800
fe00
1800
7000
0000
ENDCHAR
STARTCHAR 0x2D43
ENCODING 11587
SWIDTH 886 0
DWIDTH 12 0
BBX 12 13 0 -2
BITMAP
0000
0c00
6c00
3bf0
1c00
f600
0000
6340
6340
7d40
6350
66e0
0000
ENDCHAR
STARTCHAR 0x2D44
ENCODING 11588
SWIDTH 886 0
DWIDTH 12 0
BBX 12 13 0 -2
BITMAP
0000
6ae0
7c00
cdf0
0c30
1830
f1e0
3000
3000
6c00
6600
fe00
0000
ENDCHAR
STARTCHAR 0x2D45
ENCODING 11589
SWIDTH 886 0
DWIDTH 12 0
BBX 12 13 0 -2
BITMAP
0000
6000
6000
6000
7c00
6000
6000
6730
01b0
0030
0060
07c0
0000
ENDCHAR
STARTCHAR 0x2D46
ENCODING 11590
SWIDTH 886 0
DWIDTH 12 0
BBX 12 13 0 -2
BITMAP
0000
fe00
0600
3400
33f0
3000
6000
1800
6800
6b00
6b00
de00
0000
ENDCHAR
STARTCHAR 0x2D47
ENCODING 11591
SWIDTH 886 0
DWIDTH 12 0
BBX 12 13 0 -2
BITMAP
0000
0180
71f0
dbb0
cc30
0660
61c0
7860
d9a0
69a0
37a0
e1b0
0000
ENDCHAR
STARTCHAR 0x2D48
ENCODING 11592
SWIDTH 886 0
DWIDTH 12 0
BBX 12 13 0 -2
BITMAP
0000
d800
db50
db50
1830
71e0
0000
c6c0
c6c0
fac0
c6d0
c6e0
0000
ENDCHAR
STARTCHAR 0x2D49
ENCODING 11593
SWIDTH 886 0
DWIDTH 12 0
BBX 12 13 0 -2
BITMAP
0000
fc00
cd50
cd50
0c30
79e0
0000
6000
6000
7c00
6000
6000
0000
ENDCHAR
STARTCHAR 0x2D4A
ENCODING 11594
SWIDTH 886 0
DWIDTH 12 0
BBX 12 13 0 -2
BITMAP
0000
6000
fdf0
6d30
6d30
ddf0
0000
6c00
6c00
6df0
0c00
3800
0000
ENDCHAR
STARTCHAR 0x2D4B
ENCODING 11595
SWIDTH 886 0
DWIDTH 12 0
BBX 12 13 0 -2
BITMAP
0000
6a00
6a00
6000
7c00
6000
6340
6340
0340
0350
0350
06e0
0000
ENDCHAR
STARTCHAR 0x2D4C
ENCODING 11596
SWIDTH 886 0
DWIDTH 12 0
BBX 12 13 0 -2
BITMAP
0000
6300
fdb0
6c30
6060
3dc0
0000
6000
6000
7c00
6000
6000
0000
ENDCHAR
STARTCHAR 0x2D4D
ENCODING 11597
SWIDTH 886 0
DWIDTH 12 0
BBX 12 13 0 -2
BITMAP
0000
6b00
6a80
6b00
6df0
cc00
0000
6da0
faa0
69b0
61a0
7b60
0000
ENDCHAR
STARTCHAR 0x2D4E
ENCODING 11598
SWIDTH 886 0
DWIDTH 12 0
BBX 12 13 0 -2
BITMAP
0000
fb60
0360
fb60
0060
f9c0
0000
d5a0
c1a0
d7a0
d9a0
d9b0
0000
ENDCHAR
STARTCHAR 0x2D4F
ENCODING 11599
SWIDTH 886 0
DWIDTH 12 0
BBX 12 13 0 -2
BITMAP
0000
0600
7500
da00
cdf0
0600
0000
e340
0d40
ec00
1800
f000
0000
ENDCHAR
STARTCHAR 0x2D50
ENCODING 11600
SWIDTH 886 0
DWIDTH 12 0
BBX 12 13 0 -2
BITMAP
0000
0000
0000
0000
0000
fbe0
d550
d550
d550
d550
d550
0000
0000
ENDCHAR
STARTCHAR 0x2D51
ENCODING 11601
SWIDTH 886 0
DWIDTH 12 0
BBX 12 13 0 -2
BITMAP
0000
0000
0000
0000
0000
7be0
cd50
c350
c350
cd50
7b50
0000
0000
ENDCHAR
STARTCHAR 0x2D52
ENCODING 11602
SWIDTH 886 0
DWIDTH 12 0
BBX 12 13 0 -2
BITMAP
0000
0000
c000
c000
c000
dbe0
d350
e350
d350
db50
cd50
0000
0000
ENDCHAR
STARTCHAR 0x2D53
ENCODING 11603
SWIDTH 886 0
DWIDTH 12 0
BBX 12 13 0 -2
BITMAP
0000
0000
0000
0000
0070
f9c0
d560
d5c0
d500
d5e0
d530
01e0
0000
ENDCHAR
STARTCHAR 0x2D54
ENCODING 11604
SWIDTH 886 0
DWIDTH 12 0
BBX 12 13 0 -2
BITMAP
0000
0000
c000
c000
c070
d9c0
d360
e1c0
d300
d9e0
cd30
01e0
0000
ENDCHAR
STARTCHAR 0x2D55
ENCODING 11605
SWIDTH 886 0
DWIDTH 12 0
BBX 12 13 0 -2
BITMAP
0000
0000
0000
0000
0000
79e0
cd30
c300
c300
cd30
79e0
0000
0000
ENDCHAR
STARTCHAR 0x2D56
ENCODING 11606
SWIDTH 886 0
DWIDTH 12 0
BBX 12 13 0 -2
BITMAP
0000
00e0
01b0
0060
00c0
fef0
db00
db00
db00
db00
db00
0000
0000
ENDCHAR
STARTCHAR 0x2D5F
ENCODING 11615
SWIDTH 886 0
DWIDTH 12 0
BBX 12 13 0 -2
BITMAP
0000
00d0
fdf0
3340
d550
d550
d5a0
33a0
fea0
36a0
35d0
34d0
0000
ENDCHAR
STARTCHAR 0x2D60
ENCODING 11616
SWIDTH 886 0
DWIDTH 12 0
BBX 12 13 0 -2
BITMAP
01a0
01a0
0340
0340
0000
0000
0000
0000
0000
0000
0000
0000
0000
ENDCHAR
STARTCHAR 0x2D61
ENCODING 11617
SWIDTH 886 0
DWIDTH 12 0
BBX 12 13 0 -2
BITMAP
0000
0000
0000
0000
0000
0000
0000
3400
3400
6800
6800
0000
0000
ENDCHAR
STARTCHAR 0x2D62
ENCODING 11618
SWIDTH 886 0
DWIDTH 12 0
BBX 12 13 0 -2
BITMAP
0000
0000
cc00
ec00
ec00
d5c0
d560
dd60
dd60
cd60
cdd0
0000
0000
ENDCHAR
STARTCHAR 0x2D63
ENCODING 11619
SWIDTH 886 0
DWIDTH 12 0
BBX 12 13 0 -2
BITMAP
0000
0000
6d60
6d60
6b40
6b40
7380
6b40
6b40
6d60
6d60
0000
0000
ENDCHAR
STARTCHAR 0x2D64
ENCODING 11620
SWIDTH 886 0
DWIDTH 12 0
BBX 12 13 0 -2
BITMAP
0000
0000
fcc0
30c0
3740
34c0
34c0
3740
34c0
34c0
3770
0000
0000
ENDCHAR
STARTCHAR 0x2D65
ENCODING 11621
SWIDTH 886 0
DWIDTH 12 0
BBX 12 13 0 -2
BITMAP
0000
0f00
39c0
6660
6660
c7b0
c630
c630
7fe0
6060
39c0
0f00
0000
ENDCHAR
STARTCHAR 0x2D66
ENCODING 11622
SWIDTH 886 0
DWIDTH 12 0
BBX 12 13 0 -2
BITMAP
0000
0f00
39c0
6660
7fe0
d6d0
d6d0
dfd0
6660
6660
39c0
0f00
0000
ENDCHAR
STARTCHAR 0x2D67
ENCODING 11623
SWIDTH 886 0
DWIDTH 12 0
BBX 12 13 0 -2
BITMAP
0000
0f00
39c0
6060
7fe0
c630
c730
c6b0
6660
6660
39c0
0f00
0000
ENDCHAR
STARTCHAR 0x2D68
ENCODING 11624
SWIDTH 886 0
DWIDTH 12 0
BBX 12 13 0 -2
BITMAP
0000
0f00
39c0
6c60
7fe0
cc30
cfb0
db30
7360
6fe0
39c0
0f00
0000
ENDCHAR
STARTCHAR 0x2D69
ENCODING 11625
SWIDTH 886 0
DWIDTH 12 0
BBX 12 13 0 -2
BITMAP
0000
0f00
39c0
6c60
7fe0
cc30
dfb0
d5b0
6da0
6fa0
39c0
0f00
0000
ENDCHAR
STARTCHAR 0x2D6A
ENCODING 11626
SWIDTH 886 0
DWIDTH 12 0
BBX 12 13 0 -2
BITMAP
0000
30c0
6aa0
dab0
fff0
dab0
dbf0
edb0
dbd0
dab0
69a0
30c0
0000
ENDCHAR
STARTCHAR 0x2D6B
ENCODING 11627
SWIDTH 886 0
DWIDTH 12 0
BBX 12 13 0 -2
BITMAP
0000
30c0
6c60
dfd0
cc30
cfb0
ddb0
d7b0
cdb0
cfb0
6da0
30c0
0000
ENDCHAR
STARTCHAR 0x2D6C
ENCODING 11628
SWIDTH 886 0
DWIDTH 12 0
BBX 12 13 0 -2
BITMAP
0000
30c0
6d60
cd50
db30
dfd0
db30
eb30
db30
db30
69a0
30c0
0000
ENDCHAR
STARTCHAR 0x2D6D
ENCODING 11629
SWIDTH 886 0
DWIDTH 12 0
BBX 12 13 0 -2
BITMAP
0000
3cc0
f6c0
d540
ddb0
f6b0
d5f0
dc00
f5f0
35b0
36b0
6df0
0000
ENDCHAR
STARTCHAR 0x2D6E
ENCODING 11630
SWIDTH 886 0
DWIDTH 12 0
BBX 12 13 0 -2
BITMAP
0000
3000
37f0
30c0
fcc0
3340
3370
6b40
6b40
6b40
cd40
cff0
0000
ENDCHAR
STARTCHAR 0x2D6F
ENCODING 11631
SWIDTH 886 0
DWIDTH 12 0
BBX 12 13 0 -2
BITMAP
0000
7b80
3500
f570
d7d0
dd50
f350
df50
d5d0
d550
f550
3d70
0000
ENDCHAR
STARTCHAR 0x2D70
ENCODING 11632
SWIDTH 886 0
DWIDTH 12 0
BBX 12 13 0 -2
BITMAP
0000
1800
3c00
1800
0000
7fe0
0000
7fe0
0000
0180
03c0
0180
0000
ENDCHAR
STARTCHAR 0x2D71
ENCODING 11633
SWIDTH 886 0
DWIDTH 12 0
BBX 12 13 0 -2
BITMAP
0000
0000
0000
7fe0
0000
0000
7fe0
0000
0000
7fe0
0000
0000
0000
ENDCHAR
STARTCHAR 0x2D72
ENCODING 11634
SWIDTH 886 0
DWIDTH 12 0
BBX 12 13 0 -2
BITMAP
0600
0d00
0c00
0c00
0c00
0600
0600
0300
0300
0300
0d00
0600
0000
ENDCHAR
STARTCHAR 0x2D73
ENCODING 11635
SWIDTH 886 0
DWIDTH 12 0
BBX 12 13 0 -2
BITMAP
0600
0d00
0c00
0f00
1a80
1a80
1a80
1a80
0f00
0300
0d00
0600
0000
ENDCHAR
STARTCHAR 0x2D74
ENCODING 11636
SWIDTH 886 0
DWIDTH 12 0
BBX 12 13 0 -2
BITMAP
0000
0000
7fe0
3000
1800
0c00
0600
0c00
1800
3000
7fe0
0000
0000
ENDCHAR
STARTCHAR 0x2D75
ENCODING 11637
SWIDTH 886 0
DWIDTH 12 0
BBX 12 13 0 -2
BITMAP
03f0
0300
0300
0600
0600
6600
6c00
d400
d400
1800
1800
0000
0000
ENDCHAR
STARTCHAR 0x2D76
ENCODING 11638
SWIDTH 886 0
DWIDTH 12 0
BBX 12 13 0 -2
BITMAP
0000
0000
0600
0600
0600
0600
0600
0600
0600
7fe0
0000
0000
0000
ENDCHAR
STARTCHAR 0x2D77
ENCODING 11639
SWIDTH 886 0
DWIDTH 12 0
BBX 12 13 0 -2
BITMAP
0000
0000
00c0
0180
0300
0600
0c00
1800
3000
7fe0
0000
0000
0000
ENDCHAR
STARTCHAR 0x2D78
ENCODING 11640
SWIDTH 886 0
DWIDTH 12 0
BBX 12 13 0 -2
BITMAP
0000
0000
3000
3000
3000
3000
3000
3000
3000
3fe0
0000
0000
0000
ENDCHAR
STARTCHAR 0x2D79
ENCODING 11641
SWIDTH 886 0
DWIDTH 12 0
BBX 12 13 0 -2
BITMAP
0000
0000
00c0
01c0
0340
06c0
0cc0
18c0
30c0
7fc0
0000
0000
0000
ENDCHAR
STARTCHAR 0x2D7A
ENCODING 11642
SWIDTH 886 0
DWIDTH 12 0
BBX 12 13 0 -2
BITMAP
0000
0000
30c0
79e0
30c0
0000
0000
0600
0f00
0600
0000
0000
0000
ENDCHAR
STARTCHAR 0x2D7B
ENCODING 11643
SWIDTH 886 0
DWIDTH 12 0
BBX 12 13 0 -2
BITMAP
0000
0000
0f00
1980
30c0
30c0
30c0
30c0
30c0
30c0
30c0
0000
0000
ENDCHAR
STARTCHAR 0x2D7C
ENCODING 11644
SWIDTH 886 0
DWIDTH 12 0
BBX 12 13 0 -2
BITMAP
0000
0000
30c0
30c0
30c0
30c0
30c0
30c0
30c0
1980
0f00
0000
0000
ENDCHAR
STARTCHAR 0x3021
ENCODING 12321
SWIDTH 886 0
DWIDTH 12 0
BBX 12 13 0 -2
BITMAP
0000
fff0
0d00
0d00
7fe0
6d60
6d60
6d60
7fe0
0d00
0d00
fff0
0000
ENDCHAR
STARTCHAR 0x3022
ENCODING 12322
SWIDTH 886 0
DWIDTH 12 0
BBX 12 13 0 -2
BITMAP
0000
1ff0
f340
d340
d7f0
d550
d550
d550
d7f0
d340
f340
1ff0
0000
ENDCHAR
STARTCHAR 0x3023
ENCODING 12323
SWIDTH 886 0
DWIDTH 12 0
BBX 12 13 0 -2
BITMAP
0180
6180
67f0
f980
6980
6ff0
6980
d980
f7f0
3980
6180
6ff0
0000
ENDCHAR
STARTCHAR 0x3024
ENCODING 12324
SWIDTH 886 0
DWIDTH 12 0
BBX 12 13 0 -2
BITMAP
0000
f7f0
d060
d060
ef60
d560
d560
d560
d760
e060
c060
c1e0
0000
ENDCHAR
STARTCHAR 0x3025
ENCODING 12325
SWIDTH 886 0
DWIDTH 12 0
BBX 12 13 0 -2
BITMAP
0600
0600
fff0
0000
3fc0
30c0
30c0
3fc0
1a30
f360
31c0
7e70
0000
ENDCHAR
STARTCHAR 0x3026
ENCODING 12326
SWIDTH 886 0
DWIDTH 12 0
BBX 12 13 0 -2
BITMAP
0000
7fa0
6c60
36c0
fff0
db30
69a0
cfd0
38c0
0d80
0f00
f9f0
0000
ENDCHAR
STARTCHAR 0x3027
ENCODING 12327
SWIDTH 886 0
DWIDTH 12 0
BBX 12 13 0 -2
BITMAP
0300
6360
6660
fff0
6c00
6ff0
6d80
7980
eff0
6340
6660
ec30
0000
ENDCHAR
STARTCHAR 0x3028
ENCODING 12328
SWIDTH 886 0
DWIDTH 12 0
BBX 12 13 0 -2
BITMAP
0000
63e0
6630
fc00
6800
6bf0
6800
d800
f7f0
3a30
6630
67f0
0000
ENDCHAR
STARTCHAR 0x3029
ENCODING 12329
SWIDTH 886 0
DWIDTH 12 0
BBX 12 13 0 -2
BITMAP
0000
07e0
dc60
66c0
07b0
1d80
f7e0
3180
37f0
3180
6800
cff0
0000
ENDCHAR
STARTCHAR 0x302A
ENCODING 12330
SWIDTH 886 0
DWIDTH 12 0
BBX 12 13 0 -2
BITMAP
1980
1980
fff0
1980
feb0
6d60
39c0
efb0
0600
7fe0
1980
f0f0
0000
ENDCHAR
STARTCHAR 0x302B
ENCODING 12331
SWIDTH 886 0
DWIDTH 12 0
BBX 12 13 0 -2
BITMAP
1980
1980
fff0
1980
fff0
1b00
7fe0
6d60
6b60
71e0
6060
7fe0
0000
ENDCHAR
STARTCHAR 0x302C
ENCODING 12332
SWIDTH 886 0
DWIDTH 12 0
BBX 12 13 0 -2
BITMAP
0000
1de0
f6c0
37f0
36b0
fbf0
36b0
77f0
75b0
d7f0
d580
30f0
0000
ENDCHAR
STARTCHAR 0x302D
ENCODING 12333
SWIDTH 886 0
DWIDTH 12 0
BBX 12 13 0 -2
BITMAP
0000
fff0
0d00
7fe0
6d60
7fe0
0d00
fff0
0600
1b60
6830
cfc0
0000
ENDCHAR
STARTCHAR 0x302E
ENCODING 12334
SWIDTH 886 0
DWIDTH 12 0
BBX 12 13 0 -2
BITMAP
0000
6ff0
6c30
f7f0
6c00
6ff0
6d60
75f0
ecc0
6bf0
68c0
e7f0
0000
ENDCHAR
STARTCHAR 0x302F
ENCODING 12335
SWIDTH 886 0
DWIDTH 12 0
BBX 12 13 0 -2
BITMAP
0000
0ff0
cc30
6ff0
0c00
cff0
6d60
0df0
6cc0
6bf0
d8c0
c7f0
0000
ENDCHAR
STARTCHAR 0x3030
ENCODING 12336
SWIDTH 886 0
DWIDTH 12 0
BBX 12 13 0 -2
BITMAP
0000
67e0
6660
6660
fbe0
6a60
6a60
6a60
6be0
6800
d830
cff0
0000
ENDCHAR
STARTCHAR 0x3031
ENCODING 12337
SWIDTH 886 0
DWIDTH 12 0
BBX 12 13 0 -2
BITMAP
1980
1980
fff0
0600
3fc0
0cc0
fff0
1980
3fe0
3600
fff0
0600
0000
ENDCHAR
STARTCHAR 0x3032
ENCODING 12338
SWIDTH 886 0
DWIDTH 12 0
BBX 12 13 0 -2
BITMAP
1980
1980
fff0
1980
7fe0
0000
3fe0
3060
3fe0
3000
6000
6000
0000
ENDCHAR
STARTCHAR 0x3033
ENCODING 12339
SWIDTH 886 0
DWIDTH 12 0
BBX 12 13 0 -2
BITMAP
0300
7b60
da60
37f0
fd80
d7f0
fda0
d530
fee0
0380
d470
d5c0
0000
ENDCHAR
STARTCHAR 0x3034
ENCODING 12340
SWIDTH 886 0
DWIDTH 12 0
BBX 12 13 0 -2
BITMAP
0180
3180
37f0
fa60
3660
36c0
77f0
7180
d980
d7f0
3180
3180
0000
ENDCHAR
STARTCHAR 0x3035
ENCODING 12341
SWIDTH 886 0
DWIDTH 12 0
BBX 12 13 0 -2
BITMAP
0000
7ff0
6000
6180
6180
6180
6ff0
6180
6180
c180
c180
1ff0
0000
ENDCHAR
STARTCHAR 0x3036
ENCODING 12342
SWIDTH 886 0
DWIDTH 12 0
BBX 12 13 0 -2
BITMAP
3000
31c0
fd60
3630
fda0
cce0
fd60
cda0
fc70
30e0
fda0
3060
0000
ENDCHAR
STARTCHAR 0x3037
ENCODING 12343
SWIDTH 886 0
DWIDTH 12 0
BBX 12 13 0 -2
BITMAP
0000
6fe0
6660
f6c0
6680
66e0
6c60
7560
e9a0
68c0
63a0
ee30
0000
ENDCHAR
STARTCHAR 0x3038
ENCODING 12344
SWIDTH 886 0
DWIDTH 12 0
BBX 12 13 0 -2
BITMAP
0600
0600
fff0
c030
6030
7de0
6d60
7560
dd60
0d00
3b30
e1f0
0000
ENDCHAR
STARTCHAR 0x3039
ENCODING 12345
SWIDTH 886 0
DWIDTH 12 0
BBX 12 13 0 -2
BITMAP
0000
67f0
6630
fa30
6bf0
6a30
6a30
dbf0
f630
3a30
6630
6ff0
0000
ENDCHAR
STARTCHAR 0x303A
ENCODING 12346
SWIDTH 886 0
DWIDTH 12 0
BBX 12 13 0 -2
BITMAP
0180
3180
3180
fff0
d500
d500
d500
fd00
3300
3500
3500
fdf0
0000
ENDCHAR
STARTCHAR 0x303B
ENCODING 12347
SWIDTH 886 0
DWIDTH 12 0
BBX 12 13 0 -2
BITMAP
0000
7980
cd80
3330
fd30
cdf0
fc00
cc00
fdf0
db30
cd30
fbf0
0000
ENDCHAR
STARTCHAR 0x303C
ENCODING 12348
SWIDTH 886 0
DWIDTH 12 0
BBX 12 13 0 -2
BITMAP
0600
3600
67f0
cc30
f430
37d0
66d0
fbd0
36d0
dbd0
d030
30e0
0000
ENDCHAR
STARTCHAR 0x303D
ENCODING 12349
SWIDTH 886 0
DWIDTH 12 0
BBX 12 13 0 -2
BITMAP
0180
3180
6ff0
c180
f7f0
3340
6e70
fbe0
3660
d360
d3c0
3670
0000
ENDCHAR
STARTCHAR 0x303E
ENCODING 12350
SWIDTH 886 0
DWIDTH 12 0
BBX 12 13 0 -2
BITMAP
0180
7980
d980
31f0
fd80
d580
fd80
d5f0
fd30
0330
d530
d5f0
0000
ENDCHAR
STARTCHAR 0x303F
ENCODING 12351
SWIDTH 886 0
DWIDTH 12 0
BBX 12 13 0 -2
BITMAP
0180
01b0
fff0
0180
7d80
6db0
6cd0
7cd0
0060
1ce0
f3b0
0e30
0000
ENDCHAR
STARTCHAR 0x3040
ENCODING 12352
SWIDTH 886 0
DWIDTH 12 0
BBX 12 13 0 -2
BITMAP
0000
fff0
0d00
7fe0
6d60
6d60
7fe0
36c0
fff0
0e80
3ac0
e670
0000
ENDCHAR
STARTCHAR 0x3041
ENCODING 12353
SWIDTH 886 0
DWIDTH 12 0
BBX 12 13 0 -2
BITMAP
0000
33e0
3630
fc00
1800
1bf0
3000
7000
dbf0
3630
3630
37f0
0000
ENDCHAR
STARTCHAR 0x3042
ENCODING 12354
SWIDTH 886 0
DWIDTH 12 0
BBX 12 13 0 -2
BITMAP
0600
0600
fff0
c030
cc30
0c00
fff0
18c0
18c0
3980
0f80
78e0
0000
ENDCHAR
STARTCHAR 0x3043
ENCODING 12355
SWIDTH 886 0
DWIDTH 12 0
BBX 12 13 0 -2
BITMAP
0300
0300
7ff0
6600
7ff0
6d40
6b60
7ff0
6b60
6fe0
db30
c3f0
0000
ENDCHAR
STARTCHAR 0x3044
ENCODING 12356
SWIDTH 886 0
DWIDTH 12 0
BBX 12 13 0 -2
BITMAP
0300
6300
6ff0
f830
6b30
6300
6ff0
7660
e660
6ec0
63c0
ee70
0000
ENDCHAR
STARTCHAR 0x3045
ENCODING 12357
SWIDTH 886 0
DWIDTH 12 0
BBX 12 13 0 -2
BITMAP
0180
0180
fff0
db60
db60
dff0
f800
dbf0
da30
dbf0
fa30
07f0
0000
ENDCHAR
STARTCHAR 0x3046
ENCODING 12358
SWIDTH 886 0
DWIDTH 12 0
BBX 12 13 0 -2
BITMAP
0600
0600
fff0
cc30
fff0
18c0
1f80
36c0
fff0
0e80
3ac0
e670
0000
ENDCHAR
STARTCHAR 0x3047
ENCODING 12359
SWIDTH 886 0
DWIDTH 12 0
BBX 12 13 0 -2
BITMAP
0000
fdf0
cd30
fdf0
cd30
fff0
cd30
dfd0
d9b0
dfb0
d9b0
dfb0
0000
ENDCHAR
STARTCHAR 0x3048
ENCODING 12360
SWIDTH 886 0
DWIDTH 12 0
BBX 12 13 0 -2
BITMAP
0180
6980
fff0
6a30
7ab0
3180
fff0
d560
fd60
3340
fdc0
3770
0000
ENDCHAR
STARTCHAR 0x3049
ENCODING 12361
SWIDTH 886 0
DWIDTH 12 0
BBX 12 13 0 -2
BITMAP
0600
0600
fff0
0600
0e80
3ac0
e660
0630
3fc0
30c0
30c0
3fc0
0000
ENDCHAR
STARTCHAR 0x304A
ENCODING 12362
SWIDTH 886 0
DWIDTH 12 0
BBX 12 13 0 -2
BITMAP
0000
3060
3660
3660
3360
3360
3060
30c0
3cc0
e1a0
0730
1c30
0000
ENDCHAR
STARTCHAR 0x304B
ENCODING 12363
SWIDTH 886 0
DWIDTH 12 0
BBX 12 13 0 -2
BITMAP
0000
37f0
31b0
61b0
6ff0
e1b0
61b0
6ff0
6180
6180
6300
6e00
0000
ENDCHAR
STARTCHAR 0x304C
ENCODING 12364
SWIDTH 886 0
DWIDTH 12 0
BBX 12 13 0 -2
BITMAP
0180
3180
3180
6ff0
6000
e660
6660
6660
6660
66c0
60c0
6ff0
0000
ENDCHAR
STARTCHAR 0x304D
ENCODING 12365
SWIDTH 886 0
DWIDTH 12 0
BBX 12 13 0 -2
BITMAP
0180
3180
3ff0
6300
6300
e6b0
6db0
6da0
74c0
6cc0
6da0
6e30
0000
ENDCHAR
STARTCHAR 0x304E
ENCODING 12366
SWIDTH 886 0
DWIDTH 12 0
BBX 12 13 0 -2
BITMAP
0180
3180
37f0
6330
6ff0
ec60
6fe0
6180
6ff0
6d80
6ff0
6180
0000
ENDCHAR
STARTCHAR 0x304F
ENCODING 12367
SWIDTH 886 0
DWIDTH 12 0
BBX 12 13 0 -2
BITMAP
0000
fff0
c030
cdb0
dfd0
cdb0
cdb0
dfd0
d9b0
d9b0
c030
fff0
0000
ENDCHAR
STARTCHAR 0x3050
ENCODING 12368
SWIDTH 886 0
DWIDTH 12 0
BBX 12 13 0 -2
BITMAP
0600
0600
fff0
0600
7fe0
0660
7fe0
6600
fff0
0d30
39c0
e070
0000
ENDCHAR
STARTCHAR 0x3051
ENCODING 12369
SWIDTH 886 0
DWIDTH 12 0
BBX 12 13 0 -2
BITMAP
0000
7fe0
0600
fff0
0e80
3ac0
e670
0c00
fff0
18c0
1f80
70e0
0000
ENDCHAR
STARTCHAR 0x3052
ENCODING 12370
SWIDTH 886 0
DWIDTH 12 0
BBX 12 13 0 -2
BITMAP
00c0
00d0
7ff0
60c0
7f40
6cd0
7fd0
6b50
6b60
6a60
ced0
dbb0
0000
ENDCHAR
STARTCHAR 0x3053
ENCODING 12371
SWIDTH 886 0
DWIDTH 12 0
BBX 12 13 0 -2
BITMAP
0030
7f30
6330
7ff0
6030
7f30
61b0
7f50
6c30
d530
d530
1c70
0000
ENDCHAR
STARTCHAR 0x3054
ENCODING 12372
SWIDTH 886 0
DWIDTH 12 0
BBX 12 13 0 -2
BITMAP
0300
3360
3360
37f0
d6c0
d7f0
dac0
d6c0
d7f0
36c0
36c0
37f0
0000
ENDCHAR
STARTCHAR 0x3055
ENCODING 12373
SWIDTH 886 0
DWIDTH 12 0
BBX 12 13 0 -2
BITMAP
0600
0600
fff0
1980
fff0
30c0
3fc0
30c0
3fc0
1b60
6830
cfc0
0000
ENDCHAR
STARTCHAR 0x3056
ENCODING 12374
SWIDTH 886 0
DWIDTH 12 0
BBX 12 13 0 -2
BITMAP
0060
fc60
cff0
fc60
c360
fda0
3060
d460
d6e0
1800
6860
cfb0
0000
ENDCHAR
STARTCHAR 0x3057
ENCODING 12375
SWIDTH 886 0
DWIDTH 12 0
BBX 12 13 0 -2
BITMAP
0000
3fe0
3060
3fe0
3060
3fe0
1800
3ff0
6db0
cdb0
1b30
36e0
0000
ENDCHAR
STARTCHAR 0x3058
ENCODING 12376
SWIDTH 886 0
DWIDTH 12 0
BBX 12 13 0 -2
BITMAP
0180
3180
37f0
fb40
3660
3430
77f0
7030
d7b0
d6b0
37b0
3070
0000
ENDCHAR
STARTCHAR 0x3059
ENCODING 12377
SWIDTH 886 0
DWIDTH 12 0
BBX 12 13 0 -2
BITMAP
3300
1b00
0600
7fc0
0cc0
1fe0
3060
7ff0
c030
6ab0
6ab0
00e0
0000
ENDCHAR
STARTCHAR 0x305A
ENCODING 12378
SWIDTH 886 0
DWIDTH 12 0
BBX 12 13 0 -2
BITMAP
0000
7fe0
6660
7fe0
6660
7fe0
0000
fff0
3660
3360
31c0
fc70
0000
ENDCHAR
STARTCHAR 0x305B
ENCODING 12379
SWIDTH 886 0
DWIDTH 12 0
BBX 12 13 0 -2
BITMAP
0000
7fe0
6660
7fe0
6660
7fe0
1980
fff0
1980
fff0
30c0
6060
0000
ENDCHAR
STARTCHAR 0x305C
ENCODING 12380
SWIDTH 886 0
DWIDTH 12 0
BBX 12 13 0 -2
BITMAP
0180
1d80
f3f0
3630
3360
f9c0
3700
73f0
7630
d360
d1c0
3700
0000
ENDCHAR
STARTCHAR 0x305D
ENCODING 12381
SWIDTH 886 0
DWIDTH 12 0
BBX 12 13 0 -2
BITMAP
0300
3360
6360
c7f0
fac0
37f0
66c0
fac0
37f0
dac0
d6c0
37f0
0000
ENDCHAR
STARTCHAR 0x305E
ENCODING 12382
SWIDTH 886 0
DWIDTH 12 0
BBX 12 13 0 -2
BITMAP
00c0
30c0
6ff0
c1b0
f7f0
3630
67f0
f8c0
37f0
dac0
d7f0
30c0
0000
ENDCHAR
STARTCHAR 0x305F
ENCODING 12383
SWIDTH 886 0
DWIDTH 12 0
BBX 12 13 0 -2
BITMAP
0000
7ff0
6630
7ff0
6630
7ff0
3060
3fe0
3060
3fe0
3060
30e0
0000
ENDCHAR
STARTCHAR 0x3060
ENCODING 12384
SWIDTH 886 0
DWIDTH 12 0
BBX 12 13 0 -2
BITMAP
1980
1980
fff0
0600
fff0
1a80
76e0
0c00
fff0
18c0
1f80
70e0
0000
ENDCHAR
STARTCHAR 0x3061
ENCODING 12385
SWIDTH 886 0
DWIDTH 12 0
BBX 12 13 0 -2
BITMAP
0600
0600
fff0
0600
0c00
1b30
3360
71c0
d180
30c0
3760
7c30
0000
ENDCHAR
STARTCHAR 0x3062
ENCODING 12386
SWIDTH 886 0
DWIDTH 12 0
BBX 12 13 0 -2
BITMAP
0000
f7f0
0db0
f7f0
0db0
f7f0
0660
07e0
f660
d7e0
d660
f6e0
0000
ENDCHAR
STARTCHAR 0x3063
ENCODING 12387
SWIDTH 886 0
DWIDTH 12 0
BBX 12 13 0 -2
BITMAP
0180
0180
6ff0
31b0
0ff0
0660
f7f0
36c0
37f0
30c0
6800
cff0
0000
ENDCHAR
STARTCHAR 0x3064
ENCODING 12388
SWIDTH 886 0
DWIDTH 12 0
BBX 12 13 0 -2
BITMAP
0180
0180
cff0
6db0
1ff0
0660
f7e0
3660
37e0
3430
6800
cff0
0000
ENDCHAR
STARTCHAR 0x3065
ENCODING 12389
SWIDTH 886 0
DWIDTH 12 0
BBX 12 13 0 -2
BITMAP
0000
fff0
d800
dfe0
db00
d300
dfe0
c680
ccc0
d860
c000
fff0
0000
ENDCHAR
STARTCHAR 0x3066
ENCODING 12390
SWIDTH 886 0
DWIDTH 12 0
BBX 12 13 0 -2
BITMAP
1980
1980
1980
fff0
1980
1980
1980
fff0
3180
3180
6180
6180
0000
ENDCHAR
STARTCHAR 0x3067
ENCODING 12391
SWIDTH 886 0
DWIDTH 12 0
BBX 12 13 0 -2
BITMAP
0600
0600
fff0
18c0
3180
1b00
0e60
78c0
0180
0700
1dc0
f070
0000
ENDCHAR
STARTCHAR 0x3068
ENCODING 12392
SWIDTH 886 0
DWIDTH 12 0
BBX 12 13 0 -2
BITMAP
00c0
60d0
6ff0
60c0
f740
6d50
6d50
6f60
6060
6f50
f1b0
0730
0000
ENDCHAR
STARTCHAR 0x3069
ENCODING 12393
SWIDTH 886 0
DWIDTH 12 0
BBX 12 13 0 -2
BITMAP
0600
0600
fff0
0d80
18c0
ffe0
30d0
3fc0
30c0
3fc0
30c0
31c0
0000
ENDCHAR
STARTCHAR 0x306A
ENCODING 12394
SWIDTH 886 0
DWIDTH 12 0
BBX 12 13 0 -2
BITMAP
1800
19f0
ffb0
31b0
31a0
7ec0
e6a0
7eb0
66b0
7eb0
66e0
6e80
0000
ENDCHAR
STARTCHAR 0x306B
ENCODING 12395
SWIDTH 886 0
DWIDTH 12 0
BBX 12 13 0 -2
BITMAP
0180
06a0
fdd0
36a0
3550
37f0
7980
ebf0
6ac0
6b50
6ce0
7bb0
0000
ENDCHAR
STARTCHAR 0x306C
ENCODING 12396
SWIDTH 886 0
DWIDTH 12 0
BBX 12 13 0 -2
BITMAP
0000
0000
0000
0000
0000
0000
fff0
0000
0000
0000
0000
0000
0000
ENDCHAR
STARTCHAR 0x306D
ENCODING 12397
SWIDTH 886 0
DWIDTH 12 0
BBX 12 13 0 -2
BITMAP
0600
0600
fff0
0600
7fe0
0000
fff0
d830
d9d0
1f00
1860
0fe0
0000
ENDCHAR
STARTCHAR 0x306E
ENCODING 12398
SWIDTH 886 0
DWIDTH 12 0
BBX 12 13 0 -2
BITMAP
18c0
0cc0
c180
7ff0
0cc0
ccc0
6860
1ff0
6aa0
6aa0
daa0
dff0
0000
ENDCHAR
STARTCHAR 0x306F
ENCODING 12399
SWIDTH 886 0
DWIDTH 12 0
BBX 12 13 0 -2
BITMAP
0000
07e0
ccc0
6ff0
0db0
0db0
f7f0
3340
36c0
34f0
6800
cff0
0000
ENDCHAR
STARTCHAR 0x3070
ENCODING 12400
SWIDTH 886 0
DWIDTH 12 0
BBX 12 13 0 -2
BITMAP
0000
1fd0
f330
35a0
3660
f800
35f0
7530
75f0
d530
d530
35f0
0000
ENDCHAR
STARTCHAR 0x3071
ENCODING 12401
SWIDTH 886 0
DWIDTH 12 0
BBX 12 13 0 -2
BITMAP
1980
1980
fff0
1980
0600
67f0
35b0
19a0
0180
3340
6660
dc30
0000
ENDCHAR
STARTCHAR 0x3072
ENCODING 12402
SWIDTH 886 0
DWIDTH 12 0
BBX 12 13 0 -2
BITMAP
1980
1980
fff0
1980
0000
7fe0
0600
0600
fff0
0600
0600
1e00
0000
ENDCHAR
STARTCHAR 0x3073
ENCODING 12403
SWIDTH 886 0
DWIDTH 12 0
BBX 12 13 0 -2
BITMAP
0000
7ff0
db30
3770
fcc0
d770
fbb0
d550
fb70
0d50
dbb0
d6e0
0000
ENDCHAR
STARTCHAR 0x3074
ENCODING 12404
SWIDTH 886 0
DWIDTH 12 0
BBX 12 13 0 -2
BITMAP
0c00
0c00
18c0
18c0
3060
ffe0
1b30
1b30
1b00
1b00
3330
e1f0
0000
ENDCHAR
STARTCHAR 0x3075
ENCODING 12405
SWIDTH 886 0
DWIDTH 12 0
BBX 12 13 0 -2
BITMAP
0000
1c00
f3f0
c330
c330
fd30
c330
c330
c330
c330
fd70
0300
0000
ENDCHAR
STARTCHAR 0x3076
ENCODING 12406
SWIDTH 886 0
DWIDTH 12 0
BBX 12 13 0 -2
BITMAP
0000
0ff0
f5b0
d5b0
d7f0
d5b0
d5b0
d5b0
d550
d670
f430
0ff0
0000
ENDCHAR
STARTCHAR 0x3077
ENCODING 12407
SWIDTH 886 0
DWIDTH 12 0
BBX 12 13 0 -2
BITMAP
0000
7fe0
6060
7fe0
0000
7fe0
6060
7fe0
6060
7fe0
30c0
e070
0000
ENDCHAR
STARTCHAR 0x3078
ENCODING 12408
SWIDTH 886 0
DWIDTH 12 0
BBX 12 13 0 -2
BITMAP
0000
fff0
c630
c630
dfd0
c630
c630
cd30
d9b0
d0d0
c030
fff0
0000
ENDCHAR
STARTCHAR 0x3079
ENCODING 12409
SWIDTH 886 0
DWIDTH 12 0
BBX 12 13 0 -2
BITMAP
0000
6ff0
6db0
fdb0
6ff0
6db0
6db0
cdb0
f550
3e70
6c30
6ff0
0000
ENDCHAR
STARTCHAR 0x307A
ENCODING 12410
SWIDTH 886 0
DWIDTH 12 0
BBX 12 13 0 -2
BITMAP
0000
fc60
0c60
0c60
fc60
c060
c060
fc60
0c60
0c60
1860
7060
0000
ENDCHAR
STARTCHAR 0x307B
ENCODING 12411
SWIDTH 886 0
DWIDTH 12 0
BBX 12 13 0 -2
BITMAP
0300
7b00
cdf0
3350
fd50
cd50
fcc0
ccc0
fda0
d9a0
cd30
fa30
0000
ENDCHAR
STARTCHAR 0x307C
ENCODING 12412
SWIDTH 886 0
DWIDTH 12 0
BBX 12 13 0 -2
BITMAP
0000
1fd0
c330
6da0
0660
c000
6ff0
0180
6ff0
6180
c180
dff0
0000
ENDCHAR
STARTCHAR 0x307D
ENCODING 12413
SWIDTH 886 0
DWIDTH 12 0
BBX 12 13 0 -2
BITMAP
0600
6c60
69a0
6fa0
6660
6da0
6fa0
69a0
6fa0
69b0
dfb0
d9b0
0000
ENDCHAR
STARTCHAR 0x307E
ENCODING 12414
SWIDTH 886 0
DWIDTH 12 0
BBX 12 13 0 -2
BITMAP
1980
1980
fff0
1980
fbe0
da30
d3e0
d0c0
dbf0
db00
f630
c7f0
0000
ENDCHAR
STARTCHAR 0x3121
ENCODING 12577
SWIDTH 886 0
DWIDTH 12 0
BBX 12 13 0 -2
BITMAP
0180
f180
d7f0
d430
e7f0
d000
d000
d7f0
d340
e340
c6d0
dcf0
0000
ENDCHAR
STARTCHAR 0x3122
ENCODING 12578
SWIDTH 886 0
DWIDTH 12 0
BBX 12 13 0 -2
BITMAP
0000
f3c0
d660
d430
ebe0
d000
d7e0
d0c0
d7f0
e600
cc30
cff0
0000
ENDCHAR
STARTCHAR 0x3123
ENCODING 12579
SWIDTH 886 0
DWIDTH 12 0
BBX 12 13 0 -2
BITMAP
0000
f7f0
d6b0
d6a0
eff0
d030
d7f0
d030
d7f0
e680
da60
d3d0
0000
ENDCHAR
STARTCHAR 0x3124
ENCODING 12580
SWIDTH 886 0
DWIDTH 12 0
BBX 12 13 0 -2
BITMAP
3000
37f0
fa30
6bf0
6800
fff0
0630
fbf0
da30
fbf0
db60
fe30
0000
ENDCHAR
STARTCHAR 0x3125
ENCODING 12581
SWIDTH 886 0
DWIDTH 12 0
BBX 12 13 0 -2
BITMAP
0060
0060
f860
dff0
d860
d860
da60
db60
d860
d860
f860
01e0
0000
ENDCHAR
STARTCHAR 0x3126
ENCODING 12582
SWIDTH 886 0
DWIDTH 12 0
BBX 12 13 0 -2
BITMAP
0600
0600
fff0
0600
0600
0c00
1fe0
3860
e860
1860
1860
1fe0
0000
ENDCHAR
STARTCHAR 0x3127
ENCODING 12583
SWIDTH 886 0
DWIDTH 12 0
BBX 12 13 0 -2
BITMAP
0600
0600
fff0
c030
c030
3fc0
0600
0600
fff0
0600
0600
1e00
0000
ENDCHAR
STARTCHAR 0x3128
ENCODING 12584
SWIDTH 886 0
DWIDTH 12 0
BBX 12 13 0 -2
BITMAP
0600
0c00
3fc0
30c0
3fc0
3000
3ff0
3000
3ff0
0030
6ab0
dab0
0000
ENDCHAR
STARTCHAR 0x3129
ENCODING 12585
SWIDTH 886 0
DWIDTH 12 0
BBX 12 13 0 -2
BITMAP
0000
fdf0
0c30
0c30
cd30
6db0
1c70
34d0
6db0
cd30
0c30
1c70
0000
ENDCHAR
STARTCHAR 0x312A
ENCODING 12586
SWIDTH 886 0
DWIDTH 12 0
BBX 12 13 0 -2
BITMAP
0000
0ff0
60c0
30c0
00c0
0ff0
f0c0
30c0
30c0
31c0
6800
cff0
0000
ENDCHAR
STARTCHAR 0x312B
ENCODING 12587
SWIDTH 886 0
DWIDTH 12 0
BBX 12 13 0 -2
BITMAP
0000
fff0
0600
0600
fff0
c630
d6b0
dad0
c630
d6b0
dad0
c670
0000
ENDCHAR
STARTCHAR 0x312C
ENCODING 12588
SWIDTH 886 0
DWIDTH 12 0
BBX 12 13 0 -2
BITMAP
0000
0ef0
79b0
61b0
66b0
66b0
66b0
6eb0
f6b0
06b0
0d80
3980
0000
ENDCHAR
STARTCHAR 0x312D
ENCODING 12589
SWIDTH 886 0
DWIDTH 12 0
BBX 12 13 0 -2
BITMAP
ccc0
6d80
1be0
fd60
35e0
fd60
d3f0
fd00
35f0
7430
d6b0
35b0
0000
ENDCHAR
STARTCHAR 0x312E
ENCODING 12590
SWIDTH 886 0
DWIDTH 12 0
BBX 12 13 0 -2
BITMAP
0600
0600
fff0
cd30
7be0
3660
ffe0
3660
ffe0
3340
6b50
cef0
0000
ENDCHAR
STARTCHAR 0x312F
ENCODING 12591
SWIDTH 886 0
DWIDTH 12 0
BBX 12 13 0 -2
BITMAP
0000
7fc0
0cc0
0cc0
0cc0
0cc0
fff0
1980
1980
1980
1980
fff0
0000
ENDCHAR
STARTCHAR 0x3130
ENCODING 12592
SWIDTH 886 0
DWIDTH 12 0
BBX 12 13 0 -2
BITMAP
0300
0360
fd60
37f0
36c0
37f0
7ac0
eac0
6bf0
6ac0
6ac0
7bf0
0000
ENDCHAR
STARTCHAR 0x3131
ENCODING 12593
SWIDTH 886 0
DWIDTH 12 0
BBX 12 13 0 -2
BITMAP
0000
0700
1c00
71f0
6030
6030
6030
7df0
6030
6030
6030
7ff0
0000
ENDCHAR
STARTCHAR 0x3132
ENCODING 12594
SWIDTH 886 0
DWIDTH 12 0
BBX 12 13 0 -2
BITMAP
0000
0fe0
cc60
6de0
0d60
dff0
6830
1bd0
6ad0
6ad0
dbd0
d870
0000
ENDCHAR
STARTCHAR 0x3133
ENCODING 12595
SWIDTH 886 0
DWIDTH 12 0
BBX 12 13 0 -2
BITMAP
0300
03e0
f300
dff0
d630
dfe0
d600
d7f0
db50
d560
f340
1ff0
0000
ENDCHAR
STARTCHAR 0x3134
ENCODING 12596
SWIDTH 886 0
DWIDTH 12 0
BBX 12 13 0 -2
BITMAP
0000
07f0
fa30
dbf0
da30
dbf0
da30
da30
dbf0
f800
0660
0c30
0000
ENDCHAR
STARTCHAR 0x3135
ENCODING 12597
SWIDTH 886 0
DWIDTH 12 0
BBX 12 13 0 -2
BITMAP
30c0
3540
faf0
7560
d6d0
fff0
d9b0
fff0
c6b0
fed0
cc30
fb70
0000
ENDCHAR
STARTCHAR 0x3136
ENCODING 12598
SWIDTH 886 0
DWIDTH 12 0
BBX 12 13 0 -2
BITMAP
1980
1980
fff0
1980
fc60
cff0
fc60
c360
fda0
3060
d460
d6e0
0000
ENDCHAR
STARTCHAR 0x3137
ENCODING 12599
SWIDTH 886 0
DWIDTH 12 0
BBX 12 13 0 -2
BITMAP
0000
7be0
db60
33e0
fd60
d7f0
fd50
d7f0
fd60
0360
d5c0
d770
0000
ENDCHAR
STARTCHAR 0x3138
ENCODING 12600
SWIDTH 886 0
DWIDTH 12 0
BBX 12 13 0 -2
BITMAP
0300
6300
6ff0
fb60
6b40
6ff0
6b00
dae0
f780
3a00
6630
67f0
0000
ENDCHAR
STARTCHAR 0x3139
ENCODING 12601
SWIDTH 886 0
DWIDTH 12 0
BBX 12 13 0 -2
BITMAP
0000
fff0
c000
def0
d6a0
dea0
d6a0
dff0
d060
d4e0
d6a0
dd70
0000
ENDCHAR
STARTCHAR 0x313A
ENCODING 12602
SWIDTH 886 0
DWIDTH 12 0
BBX 12 13 0 -2
BITMAP
0180
01b0
dff0
6180
0ff0
cdb0
6ff0
0db0
0ff0
35b0
6db0
cdb0
0000
ENDCHAR
STARTCHAR 0x313B
ENCODING 12603
SWIDTH 886 0
DWIDTH 12 0
BBX 12 13 0 -2
BITMAP
0000
7ff0
6cc0
6cc0
6cc0
6cc0
6cc0
6c60
6da0
cda0
dfb0
c030
0000
ENDCHAR
STARTCHAR 0x313C
ENCODING 12604
SWIDTH 886 0
DWIDTH 12 0
BBX 12 13 0 -2
BITMAP
0000
fdf0
cd30
fdf0
cd30
fdf0
c030
dfd0
c630
dfb0
c630
dfd0
0000
ENDCHAR
STARTCHAR 0x313D
ENCODING 12605
SWIDTH 886 0
DWIDTH 12 0
BBX 12 13 0 -2
BITMAP
0660
06c0
fff0
d340
d7f0
d550
d6f0
d430
dff0
d060
f660
0360
0000
ENDCHAR
STARTCHAR 0x313E
ENCODING 12606
SWIDTH 886 0
DWIDTH 12 0
BBX 12 13 0 -2
BITMAP
0000
7fe0
0000
0000
0000
fff0
1800
18c0
30c0
30c0
63a0
7e60
0000
ENDCHAR
STARTCHAR 0x313F
ENCODING 12607
SWIDTH 886 0
DWIDTH 12 0
BBX 12 13 0 -2
BITMAP
0000
1ff0
d9b0
6ff0
0db0
0ff0
f5b0
37f0
3180
37f0
6980
cff0
0000
ENDCHAR
STARTCHAR 0x3140
ENCODING 12608
SWIDTH 886 0
DWIDTH 12 0
BBX 12 13 0 -2
BITMAP
0000
7fe0
0600
fff0
d6b0
dad0
0600
7fe0
0000
fff0
30c0
7fa0
0000
ENDCHAR
STARTCHAR 0x3141
ENCODING 12609
SWIDTH 886 0
DWIDTH 12 0
BBX 12 13 0 -2
BITMAP
1980
1980
fff0
1980
3000
37f0
6180
e180
6ff0
6180
6180
6ff0
0000
ENDCHAR
STARTCHAR 0x3142
ENCODING 12610
SWIDTH 886 0
DWIDTH 12 0
BBX 12 13 0 -2
BITMAP
0000
7bf0
cd60
3360
fde0
cd60
fd60
cde0
fd60
d370
dbe0
f460
0000
ENDCHAR
STARTCHAR 0x3143
ENCODING 12611
SWIDTH 886 0
DWIDTH 12 0
BBX 12 13 0 -2
BITMAP
1800
1ef0
1830
ff30
db50
6ad0
d550
7ed0
e760
7e60
66d0
7fb0
0000
ENDCHAR
STARTCHAR 0x3144
ENCODING 12612
SWIDTH 886 0
DWIDTH 12 0
BBX 12 13 0 -2
BITMAP
0600
3660
36c0
fff0
d9b0
d9b0
dfb0
0600
3fc0
30c0
30c0
3fc0
0000
ENDCHAR
STARTCHAR 0x3145
ENCODING 12613
SWIDTH 886 0
DWIDTH 12 0
BBX 12 13 0 -2
BITMAP
0000
fdf0
cd30
fdf0
cd30
fdf0
36c0
6c60
fff0
18c0
1f80
70e0
0000
ENDCHAR
STARTCHAR 0x3146
ENCODING 12614
SWIDTH 886 0
DWIDTH 12 0
BBX 12 13 0 -2
BITMAP
0000
fe30
c660
fec0
c600
fe30
1860
ff40
6c00
7c30
da60
db40
0000
ENDCHAR
STARTCHAR 0x3147
ENCODING 12615
SWIDTH 886 0
DWIDTH 12 0
BBX 12 13 0 -2
BITMAP
0180
0180
f7f0
d5b0
d5b0
d5b0
f5b0
dff0
d180
d340
f660
1c30
0000
ENDCHAR
STARTCHAR 0x3148
ENCODING 12616
SWIDTH 886 0
DWIDTH 12 0
BBX 12 13 0 -2
BITMAP
0600
0600
7fe0
6660
7fe0
6660
7fe0
0360
0340
0380
0eb0
f8f0
0000
ENDCHAR
STARTCHAR 0x3149
ENCODING 12617
SWIDTH 886 0
DWIDTH 12 0
BBX 12 13 0 -2
BITMAP
0c60
66c0
3180
fff0
c630
0600
7fe0
0600
0e80
3ac0
e670
0600
0000
ENDCHAR
STARTCHAR 0x314A
ENCODING 12618
SWIDTH 886 0
DWIDTH 12 0
BBX 12 13 0 -2
BITMAP
1c00
0700
0000
3e60
06c0
fa80
1b00
1a80
36c0
6660
c630
1e00
0000
ENDCHAR
STARTCHAR 0x314B
ENCODING 12619
SWIDTH 886 0
DWIDTH 12 0
BBX 12 13 0 -2
BITMAP
0300
0180
c000
6f80
01b0
dea0
66c0
0680
6dc0
6da0
d9b0
db80
0000
ENDCHAR
STARTCHAR 0x314C
ENCODING 12620
SWIDTH 886 0
DWIDTH 12 0
BBX 12 13 0 -2
BITMAP
0180
0180
dff0
69b0
1ff0
d9b0
6ff0
01b0
01a0
31c0
6750
dc70
0000
ENDCHAR
STARTCHAR 0x314D
ENCODING 12621
SWIDTH 886 0
DWIDTH 12 0
BBX 12 13 0 -2
BITMAP
0660
0660
f7f0
66a0
6180
f7f0
6db0
6db0
6ff0
6340
f660
1c30
0000
ENDCHAR
STARTCHAR 0x314E
ENCODING 12622
SWIDTH 886 0
DWIDTH 12 0
BBX 12 13 0 -2
BITMAP
0000
ffc0
3180
3ef0
66b0
6c30
cee0
d800
7fe0
6d60
6d60
fff0
0000
ENDCHAR
STARTCHAR 0x314F
ENCODING 12623
SWIDTH 886 0
DWIDTH 12 0
BBX 12 13 0 -2
BITMAP
0000
cff0
f980
c7f0
fa30
07f0
fa30
37f0
fe30
37f0
7b60
d630
0000
ENDCHAR
STARTCHAR 0x3150
ENCODING 12624
SWIDTH 886 0
DWIDTH 12 0
BBX 12 13 0 -2
BITMAP
0000
cff0
f980
c7f0
fa30
07f0
fa30
07f0
fe30
37f0
d360
d630
0000
ENDCHAR
STARTCHAR 0x3151
ENCODING 12625
SWIDTH 886 0
DWIDTH 12 0
BBX 12 13 0 -2
BITMAP
1980
1980
fff0
1a80
0600
3fc0
36c0
36c0
fff0
0d00
39c0
e070
0000
ENDCHAR
STARTCHAR 0x3152
ENCODING 12626
SWIDTH 886 0
DWIDTH 12 0
BBX 12 13 0 -2
BITMAP
0600
36f0
6f80
c680
1ff0
35b0
6fb0
e330
6fd0
6b30
7fd0
6370
0000
ENDCHAR
STARTCHAR 0x3153
ENCODING 12627
SWIDTH 886 0
DWIDTH 12 0
BBX 12 13 0 -2
BITMAP
0300
f180
0000
f780
01b0
f1a0
1ec0
0680
f6c0
d5a0
d9b0
f780
0000
ENDCHAR
STARTCHAR 0x3154
ENCODING 12628
SWIDTH 886 0
DWIDTH 12 0
BBX 12 13 0 -2
BITMAP
0660
3b60
6cc0
c7f0
fa30
3630
fbf0
3340
db40
d340
36d0
fcf0
0000
ENDCHAR
STARTCHAR 0x3155
ENCODING 12629
SWIDTH 886 0
DWIDTH 12 0
BBX 12 13 0 -2
BITMAP
0180
0180
dff0
6d80
0de0
db60
6b60
3aa0
6aa0
68c0
d9c0
db70
0000
ENDCHAR
STARTCHAR 0x3156
ENCODING 12630
SWIDTH 886 0
DWIDTH 12 0
BBX 12 13 0 -2
BITMAP
0300
0300
7ff0
6000
efc0
6cd0
6cf0
e000
6fe0
6c60
c7c0
dc70
0000
ENDCHAR
STARTCHAR 0x3157
ENCODING 12631
SWIDTH 886 0
DWIDTH 12 0
BBX 12 13 0 -2
BITMAP
3180
1980
0300
fff0
1980
30c0
6060
fff0
6d60
6d60
6d60
fff0
0000
ENDCHAR
STARTCHAR 0x3158
ENCODING 12632
SWIDTH 886 0
DWIDTH 12 0
BBX 12 13 0 -2
BITMAP
0000
fdf0
d330
fd30
d330
fdf0
d340
fd40
0d60
d560
0e30
3a30
0000
ENDCHAR
STARTCHAR 0x3159
ENCODING 12633
SWIDTH 886 0
DWIDTH 12 0
BBX 12 13 0 -2
BITMAP
0660
3360
30c0
37f0
da30
d630
d7f0
d340
d340
3340
36d0
3cf0
0000
ENDCHAR
STARTCHAR 0x315A
ENCODING 12634
SWIDTH 886 0
DWIDTH 12 0
BBX 12 13 0 -2
BITMAP
0000
f7e0
0c60
f7e0
0c60
f7e0
0600
0ff0
fc30
d5b0
d7b0
f0e0
0000
ENDCHAR
STARTCHAR 0x315B
ENCODING 12635
SWIDTH 886 0
DWIDTH 12 0
BBX 12 13 0 -2
BITMAP
30c0
30d0
fdf0
3340
3350
ff50
3360
3d60
d350
d7b0
f800
cff0
0000
ENDCHAR
STARTCHAR 0x315C
ENCODING 12636
SWIDTH 886 0
DWIDTH 12 0
BBX 12 13 0 -2
BITMAP
0000
fdf0
cd30
fdf0
cd30
fdf0
cd30
dfb0
d9b0
dfb0
cd50
dbd0
0000
ENDCHAR
STARTCHAR 0x315D
ENCODING 12637
SWIDTH 886 0
DWIDTH 12 0
BBX 12 13 0 -2
BITMAP
0000
37f0
3180
fbf0
3630
37f0
7630
77f0
d660
d560
31c0
3770
0000
ENDCHAR
STARTCHAR 0x315E
ENCODING 12638
SWIDTH 886 0
DWIDTH 12 0
BBX 12 13 0 -2
BITMAP
0000
fff0
d6c0
ded0
c3f0
dec0
d6c0
dee0
d6a0
dea0
d730
d630
0000
ENDCHAR
STARTCHAR 0x315F
ENCODING 12639
SWIDTH 886 0
DWIDTH 12 0
BBX 12 13 0 -2
BITMAP
0000
fff0
c630
c630
c630
c630
fff0
c030
c030
c030
c030
c0f0
0000
ENDCHAR
STARTCHAR 0x3160
ENCODING 12640
SWIDTH 886 0
DWIDTH 12 0
BBX 12 13 0 -2
BITMAP
0000
fff0
c630
dfd0
c630
fff0
d9b0
dfb0
cd50
ddb0
ccd0
fff0
0000
ENDCHAR
STARTCHAR 0x3161
ENCODING 12641
SWIDTH 886 0
DWIDTH 12 0
BBX 12 13 0 -2
BITMAP
0000
6ff0
6d30
6df0
f530
6df0
6d80
6ff0
6da0
6de0
f530
0ff0
0000
ENDCHAR
STARTCHAR 0x3162
ENCODING 12642
SWIDTH 886 0
DWIDTH 12 0
BBX 12 13 0 -2
BITMAP
0600
0600
fff0
1980
36c0
7ff0
d6c0
3fc0
36c0
3fc0
0630
07f0
0000
ENDCHAR
STARTCHAR 0x3163
ENCODING 12643
SWIDTH 886 0
DWIDTH 12 0
BBX 12 13 0 -2
BITMAP
0600
0600
fff0
d0d0
dfd0
30c0
3fc0
0c00
fff0
18c0
1f80
70e0
0000
ENDCHAR
STARTCHAR 0x3164
ENCODING 12644
SWIDTH 886 0
DWIDTH 12 0
BBX 12 13 0 -2
BITMAP
0000
00e0
f780
3180
6180
c6f0
f680
3680
d680
6ff0
d800
cff0
0000
ENDCHAR
STARTCHAR 0x3165
ENCODING 12645
SWIDTH 886 0
DWIDTH 12 0
BBX 12 13 0 -2
BITMAP
0000
7df0
6d30
7530
dd70
0d00
3b30
e1f0
0600
1b60
6830
cfc0
0000
ENDCHAR
STARTCHAR 0x3166
ENCODING 12646
SWIDTH 886 0
DWIDTH 12 0
BBX 12 13 0 -2
BITMAP
0180
6180
6ff0
f660
6db0
6ff0
6db0
77f0
edb0
6ff0
6180
e1f0
0000
ENDCHAR
STARTCHAR 0x3167
ENCODING 12647
SWIDTH 886 0
DWIDTH 12 0
BBX 12 13 0 -2
BITMAP
0000
6ff0
66b0
f6a0
6ff0
6180
6ff0
7300
e7e0
6d60
61c0
ef70
0000
ENDCHAR
STARTCHAR 0x3168
ENCODING 12648
SWIDTH 886 0
DWIDTH 12 0
BBX 12 13 0 -2
BITMAP
0000
03e0
c060
6660
0630
cc30
6c00
07f0
0630
3630
6630
c7f0
0000
ENDCHAR
STARTCHAR 0x3169
ENCODING 12649
SWIDTH 886 0
DWIDTH 12 0
BBX 12 13 0 -2
BITMAP
0180
0180
dff0
6830
0ff0
c180
6ff0
0db0
6ff0
6db0
cff0
d830
0000
ENDCHAR
STARTCHAR 0x316A
ENCODING 12650
SWIDTH 886 0
DWIDTH 12 0
BBX 12 13 0 -2
BITMAP
0600
0600
3660
66c0
0d00
39c0
e670
36c0
36c0
0d00
39c0
e070
0000
ENDCHAR
STARTCHAR 0x316B
ENCODING 12651
SWIDTH 886 0
DWIDTH 12 0
BBX 12 13 0 -2
BITMAP
0000
33e0
3660
d4c0
d3f0
d530
3530
35f0
6d30
6d30
cd30
cdf0
0000
ENDCHAR
STARTCHAR 0x316C
ENCODING 12652
SWIDTH 886 0
DWIDTH 12 0
BBX 12 13 0 -2
BITMAP
0000
37f0
3340
d7f0
d550
d550
37f0
3180
6bf0
6980
c180
cff0
0000
ENDCHAR
STARTCHAR 0x316D
ENCODING 12653
SWIDTH 886 0
DWIDTH 12 0
BBX 12 13 0 -2
BITMAP
1980
1980
fff0
0d00
3750
f0e0
3740
7550
d770
0000
6b60
cdb0
0000
ENDCHAR
STARTCHAR 0x316E
ENCODING 12654
SWIDTH 886 0
DWIDTH 12 0
BBX 12 13 0 -2
BITMAP
0180
3180
d7f0
6180
6ff0
d660
3660
77e0
d350
3ed0
3660
efb0
0000
ENDCHAR
STARTCHAR 0x316F
ENCODING 12655
SWIDTH 886 0
DWIDTH 12 0
BBX 12 13 0 -2
BITMAP
0000
37e0
6060
c7e0
f060
37f0
6180
fb50
31e0
d750
dcd0
33c0
0000
ENDCHAR
STARTCHAR 0x3170
ENCODING 12656
SWIDTH 886 0
DWIDTH 12 0
BBX 12 13 0 -2
BITMAP
3600
36e0
ff60
d6c0
fff0
d6d0
fed0
67f0
7e00
3600
3630
fff0
0000
ENDCHAR
STARTCHAR 0x3171
ENCODING 12657
SWIDTH 886 0
DWIDTH 12 0
BBX 12 13 0 -2
BITMAP
1980
1980
fff0
1980
6000
7de0
6d60
7560
dd60
0d00
3b30
e1f0
0000
ENDCHAR
STARTCHAR 0x3172
ENCODING 12658
SWIDTH 886 0
DWIDTH 12 0
BBX 12 13 0 -2
BITMAP
1980
1980
fff0
1980
fff0
c630
dfd0
d9b0
dfb0
d550
cdb0
fff0
0000
ENDCHAR
STARTCHAR 0x3173
ENCODING 12659
SWIDTH 886 0
DWIDTH 12 0
BBX 12 13 0 -2
BITMAP
0180
0180
cff0
6180
1ff0
0660
f7e0
31b0
36a0
35b0
6800
cff0
0000
ENDCHAR
STARTCHAR 0x3174
ENCODING 12660
SWIDTH 886 0
DWIDTH 12 0
BBX 12 13 0 -2
BITMAP
0000
39e0
6c60
c360
fb30
3630
fa00
33f0
d530
d530
3330
fdf0
0000
ENDCHAR
STARTCHAR 0x3175
ENCODING 12661
SWIDTH 886 0
DWIDTH 12 0
BBX 12 13 0 -2
BITMAP
0000
7df0
6d30
d570
1b00
3fd0
f0f0
3fc0
30c0
3ff0
6030
dab0
0000
ENDCHAR
STARTCHAR 0x3176
ENCODING 12662
SWIDTH 886 0
DWIDTH 12 0
BBX 12 13 0 -2
BITMAP
0600
6600
67f0
6c00
fbe0
6660
67e0
6000
6ff0
6d50
f550
1ff0
0000
ENDCHAR
STARTCHAR 0x3177
ENCODING 12663
SWIDTH 886 0
DWIDTH 12 0
BBX 12 13 0 -2
BITMAP
3000
31e0
3330
fe00
3000
31c0
3e70
6600
6600
c600
cdc0
3870
0000
ENDCHAR
STARTCHAR 0x3178
ENCODING 12664
SWIDTH 886 0
DWIDTH 12 0
BBX 12 13 0 -2
BITMAP
0000
1ff0
c300
6300
1ff0
c600
6600
07f0
0c30
3430
6060
c1c0
0000
ENDCHAR
STARTCHAR 0x3179
ENCODING 12665
SWIDTH 886 0
DWIDTH 12 0
BBX 12 13 0 -2
BITMAP
0000
37f0
d5b0
fff0
d5b0
37f0
f980
37f0
3330
3330
fa30
06e0
0000
ENDCHAR
STARTCHAR 0x317A
ENCODING 12666
SWIDTH 886 0
DWIDTH 12 0
BBX 12 13 0 -2
BITMAP
0000
f9f0
d9b0
d9b0
d9b0
d9b0
dfb0
c030
c030
c030
c030
fff0
0000
ENDCHAR
STARTCHAR 0x317B
ENCODING 12667
SWIDTH 886 0
DWIDTH 12 0
BBX 12 13 0 -2
BITMAP
0600
0600
7fe0
6660
6660
6660
6660
fff0
0600
0d00
39c0
e070
0000
ENDCHAR
STARTCHAR 0x317C
ENCODING 12668
SWIDTH 886 0
DWIDTH 12 0
BBX 12 13 0 -2
BITMAP
0600
0c00
7fe0
6aa0
6660
7fe0
6660
6aa0
fff0
0d00
39c0
e070
0000
ENDCHAR
STARTCHAR 0x317D
ENCODING 12669
SWIDTH 886 0
DWIDTH 12 0
BBX 12 13 0 -2
BITMAP
0300
3180
6000
cff0
0180
3180
6180
eff0
6180
6180
6180
6ff0
0000
ENDCHAR
STARTCHAR 0x317E
ENCODING 12670
SWIDTH 886 0
DWIDTH 12 0
BBX 12 13 0 -2
BITMAP
0300
0300
7ff0
6000
6300
6180
6000
6660
6630
6a00
d630
c3f0
0000
ENDCHAR
STARTCHAR 0x3221
ENCODING 12833
SWIDTH 886 0
DWIDTH 12 0
BBX 12 13 0 -2
BITMAP
0000
6ff0
6db0
f5b0
6ff0
6db0
6db0
75b0
eff0
6180
6180
e180
0000
ENDCHAR
STARTCHAR 0x3222
ENCODING 12834
SWIDTH 886 0
DWIDTH 12 0
BBX 12 13 0 -2
BITMAP
0000
0ff0
f980
d980
d980
d980
fbf0
d980
d980
d980
f980
0ff0
0000
ENDCHAR
STARTCHAR 0x3223
ENCODING 12835
SWIDTH 886 0
DWIDTH 12 0
BBX 12 13 0 -2
BITMAP
06c0
36c0
37f0
f6c0
3ff0
35b0
77f0
75b0
d7f0
d000
3660
3430
0000
ENDCHAR
STARTCHAR 0x3224
ENCODING 12836
SWIDTH 886 0
DWIDTH 12 0
BBX 12 13 0 -2
BITMAP
0300
fd00
c3f0
db50
eb50
d350
d0c0
e8c0
cda0
c1a0
fb30
0e30
0000
ENDCHAR
STARTCHAR 0x3225
ENCODING 12837
SWIDTH 886 0
DWIDTH 12 0
BBX 12 13 0 -2
BITMAP
0000
fde0
c360
db60
eb60
d670
d000
ebf0
db30
c360
f9c0
0f70
0000
ENDCHAR
STARTCHAR 0x3226
ENCODING 12838
SWIDTH 886 0
DWIDTH 12 0
BBX 12 13 0 -2
BITMAP
0000
fff0
0600
0600
0600
0600
7fe0
0600
0600
0600
0600
fff0
0000
ENDCHAR
STARTCHAR 0x3227
ENCODING 12839
SWIDTH 886 0
DWIDTH 12 0
BBX 12 13 0 -2
BITMAP
0000
0f80
30c0
ec70
18c0
7fc0
0000
fdf0
6db0
34d0
6db0
dd70
0000
ENDCHAR
STARTCHAR 0x3228
ENCODING 12840
SWIDTH 886 0
DWIDTH 12 0
BBX 12 13 0 -2
BITMAP
0180
6300
6ff0
f6b0
35d0
36b0
6dd0
eeb0
7180
6ff0
6660
6c30
0000
ENDCHAR
STARTCHAR 0x3229
ENCODING 12841
SWIDTH 886 0
DWIDTH 12 0
BBX 12 13 0 -2
BITMAP
0600
36c0
fff0
cc30
dfd0
30c0
3fc0
30c0
3ff0
0030
6ab0
dab0
0000
ENDCHAR
STARTCHAR 0x322A
ENCODING 12842
SWIDTH 886 0
DWIDTH 12 0
BBX 12 13 0 -2
BITMAP
0180
fb00
c7e0
da60
ebe0
d660
d7f0
ea00
dbf0
c030
fab0
1ab0
0000
ENDCHAR
STARTCHAR 0x322B
ENCODING 12843
SWIDTH 886 0
DWIDTH 12 0
BBX 12 13 0 -2
BITMAP
1980
1980
7fe0
1980
fff0
0600
3fc0
36c0
3fc0
36c0
3fc0
e070
0000
ENDCHAR
STARTCHAR 0x322C
ENCODING 12844
SWIDTH 886 0
DWIDTH 12 0
BBX 12 13 0 -2
BITMAP
0000
fff0
c030
d9b0
d9b0
db30
dfd0
c630
d6d0
d6d0
dfd0
c070
0000
ENDCHAR
STARTCHAR 0x322D
ENCODING 12845
SWIDTH 886 0
DWIDTH 12 0
BBX 12 13 0 -2
BITMAP
0180
0180
c180
6ff0
0db0
cdb0
6db0
0ff0
0180
3180
6180
c180
0000
ENDCHAR
STARTCHAR 0x322E
ENCODING 12846
SWIDTH 886 0
DWIDTH 12 0
BBX 12 13 0 -2
BITMAP
1980
1980
fff0
1800
6980
3180
76b0
daa0
3980
69c0
db60
7630
0000
ENDCHAR
STARTCHAR 0x322F
ENCODING 12847
SWIDTH 886 0
DWIDTH 12 0
BBX 12 13 0 -2
BITMAP
0180
3180
3ff0
6660
6ff0
ec30
6ff0
6c30
6ff0
6680
6a60
77d0
0000
ENDCHAR
STARTCHAR 0x3230
ENCODING 12848
SWIDTH 886 0
DWIDTH 12 0
BBX 12 13 0 -2
BITMAP
0000
7ff0
6030
7ff0
6000
7ff0
6cc0
6fe0
6330
dfe0
c300
3ff0
0000
ENDCHAR
STARTCHAR 0x3231
ENCODING 12849
SWIDTH 886 0
DWIDTH 12 0
BBX 12 13 0 -2
BITMAP
0180
3180
37f0
3660
dff0
d430
d7f0
d430
d7f0
3680
3a60
37d0
0000
ENDCHAR
STARTCHAR 0x3232
ENCODING 12850
SWIDTH 886 0
DWIDTH 12 0
BBX 12 13 0 -2
BITMAP
0180
f180
d7f0
d6c0
f7f0
d430
d7f0
f430
d7f0
d680
da60
d7d0
0000
ENDCHAR
STARTCHAR 0x3233
ENCODING 12851
SWIDTH 886 0
DWIDTH 12 0
BBX 12 13 0 -2
BITMAP
0000
37e0
30c0
f980
37f0
35b0
77f0
75b0
d7f0
d5b0
35b0
35b0
0000
ENDCHAR
STARTCHAR 0x3234
ENCODING 12852
SWIDTH 886 0
DWIDTH 12 0
BBX 12 13 0 -2
BITMAP
00c0
d0c0
d0c0
fcc0
d7f0
d0c0
30c0
3cc0
f0c0
30c0
30c0
37f0
0000
ENDCHAR
STARTCHAR 0x3235
ENCODING 12853
SWIDTH 886 0
DWIDTH 12 0
BBX 12 13 0 -2
BITMAP
0000
7fc0
00c0
0180
0300
0600
0c00
1800
3060
6060
6060
3fc0
0000
ENDCHAR
STARTCHAR 0x3236
ENCODING 12854
SWIDTH 886 0
DWIDTH 12 0
BBX 12 13 0 -2
BITMAP
0180
3180
3ff0
6660
6db0
eff0
75b0
6ff0
6db0
6ff0
6180
61f0
0000
ENDCHAR
STARTCHAR 0x3237
ENCODING 12855
SWIDTH 886 0
DWIDTH 12 0
BBX 12 13 0 -2
BITMAP
6000
6000
7ef0
d9b0
d9b0
feb0
19b0
1eb0
d9b0
d9b0
deb0
f180
0000
ENDCHAR
STARTCHAR 0x3238
ENCODING 12856
SWIDTH 886 0
DWIDTH 12 0
BBX 12 13 0 -2
BITMAP
0000
7fe0
6660
6fa0
6660
6d60
69a0
7fe0
0600
1b60
6830
cfc0
0000
ENDCHAR
STARTCHAR 0x3239
ENCODING 12857
SWIDTH 886 0
DWIDTH 12 0
BBX 12 13 0 -2
BITMAP
0000
0fe0
cc60
6fe0
0c60
cfe0
6000
0ff0
0d50
3550
6d50
dff0
0000
ENDCHAR
STARTCHAR 0x323A
ENCODING 12858
SWIDTH 886 0
DWIDTH 12 0
BBX 12 13 0 -2
BITMAP
0000
1ff0
f6b0
36a0
37f0
f830
37f0
7030
77f0
d680
da60
37d0
0000
ENDCHAR
STARTCHAR 0x323B
ENCODING 12859
SWIDTH 886 0
DWIDTH 12 0
BBX 12 13 0 -2
BITMAP
0600
0600
7fe0
1980
1980
fff0
0000
3fc0
30c0
3fc0
30c0
3fc0
0000
ENDCHAR
STARTCHAR 0x323C
ENCODING 12860
SWIDTH 886 0
DWIDTH 12 0
BBX 12 13 0 -2
BITMAP
0000
fff0
0600
0600
0600
0780
06e0
0600
0600
0600
0600
0600
0000
ENDCHAR
STARTCHAR 0x323D
ENCODING 12861
SWIDTH 886 0
DWIDTH 12 0
BBX 12 13 0 -2
BITMAP
0300
1b00
1b00
3330
3360
7340
d380
3300
3300
3330
3330
33f0
0000
ENDCHAR
STARTCHAR 0x323E
ENCODING 12862
SWIDTH 886 0
DWIDTH 12 0
BBX 12 13 0 -2
BITMAP
0000
37f0
3400
6c00
6fe0
ec60
6d60
6da0
68c0
68c0
63a0
6e30
0000
ENDCHAR
STARTCHAR 0x323F
ENCODING 12863
SWIDTH 886 0
DWIDTH 12 0
BBX 12 13 0 -2
BITMAP
0000
37f0
3060
6060
6f60
ed60
6d60
6d60
6f60
6060
6060
61e0
0000
ENDCHAR
STARTCHAR 0x3240
ENCODING 12864
SWIDTH 886 0
DWIDTH 12 0
BBX 12 13 0 -2
BITMAP
0c00
3400
34f0
6f50
6d50
ed50
6d50
6d50
6b50
6b50
6350
6ef0
0000
ENDCHAR
STARTCHAR 0x3241
ENCODING 12865
SWIDTH 886 0
DWIDTH 12 0
BBX 12 13 0 -2
BITMAP
0000
37f0
3340
6340
6ff0
ed50
6d50
6d50
6d50
6d50
6d50
6ff0
0000
ENDCHAR
STARTCHAR 0x3242
ENCODING 12866
SWIDTH 886 0
DWIDTH 12 0
BBX 12 13 0 -2
BITMAP
0180
3180
37f0
6180
6180
eff0
6180
6180
6ff0
6180
6180
6ff0
0000
ENDCHAR
STARTCHAR 0x3243
ENCODING 12867
SWIDTH 886 0
DWIDTH 12 0
BBX 12 13 0 -2
BITMAP
3000
3000
31f0
feb0
36b0
36b0
36b0
66b0
66b0
c6b0
cdb0
39f0
0000
ENDCHAR
STARTCHAR 0x3244
ENCODING 12868
SWIDTH 886 0
DWIDTH 12 0
BBX 12 13 0 -2
BITMAP
0000
fff0
00c0
00c0
7cc0
6cc0
6cc0
6cc0
7cc0
00c0
00c0
03c0
0000
ENDCHAR
STARTCHAR 0x3245
ENCODING 12869
SWIDTH 886 0
DWIDTH 12 0
BBX 12 13 0 -2
BITMAP
0600
0600
fff0
0600
7fe0
30c0
3fc0
1980
fff0
3560
6d60
dde0
0000
ENDCHAR
STARTCHAR 0x3246
ENCODING 12870
SWIDTH 886 0
DWIDTH 12 0
BBX 12 13 0 -2
BITMAP
0000
fff0
0600
3fe0
3060
3fe0
3060
3fe0
18c0
74c0
0f80
f8f0
0000
ENDCHAR
STARTCHAR 0x3247
ENCODING 12871
SWIDTH 886 0
DWIDTH 12 0
BBX 12 13 0 -2
BITMAP
0180
6180
6ff0
f830
6be0
69b0
6ba0
dec0
f1e0
3750
6cd0
6380
0000
ENDCHAR
STARTCHAR 0x3248
ENCODING 12872
SWIDTH 886 0
DWIDTH 12 0
BBX 12 13 0 -2
BITMAP
0600
0600
fff0
c030
dfd0
3600
0e60
7b40
0780
1d40
f370
0e00
0000
ENDCHAR
STARTCHAR 0x3249
ENCODING 12873
SWIDTH 886 0
DWIDTH 12 0
BBX 12 13 0 -2
BITMAP
0600
0600
fff0
d9b0
dfb0
1980
fff0
30c0
7fe0
ccd0
18c0
7380
0000
ENDCHAR
STARTCHAR 0x324A
ENCODING 12874
SWIDTH 886 0
DWIDTH 12 0
BBX 12 13 0 -2
BITMAP
0000
1c60
f360
31a0
3060
fa60
3360
7070
79e0
d760
d060
3060
0000
ENDCHAR
STARTCHAR 0x324B
ENCODING 12875
SWIDTH 886 0
DWIDTH 12 0
BBX 12 13 0 -2
BITMAP
0000
1f70
fb30
db30
df70
d800
f9f0
df30
d8d0
df50
f8e0
1bb0
0000
ENDCHAR
STARTCHAR 0x324C
ENCODING 12876
SWIDTH 886 0
DWIDTH 12 0
BBX 12 13 0 -2
BITMAP
0000
7fe0
6660
7fe0
6660
6660
7fe0
0600
fff0
0e80
3ac0
e670
0000
ENDCHAR
STARTCHAR 0x324D
ENCODING 12877
SWIDTH 886 0
DWIDTH 12 0
BBX 12 13 0 -2
BITMAP
3000
31f0
feb0
36b0
36b0
66b0
ddf0
0600
fff0
0e80
3ac0
e670
0000
ENDCHAR
STARTCHAR 0x324E
ENCODING 12878
SWIDTH 886 0
DWIDTH 12 0
BBX 12 13 0 -2
BITMAP
0300
ff00
d5f0
d550
f550
0d50
fec0
0cc0
f5a0
d5a0
f530
1e30
0000
ENDCHAR
STARTCHAR 0x324F
ENCODING 12879
SWIDTH 886 0
DWIDTH 12 0
BBX 12 13 0 -2
BITMAP
0000
3ff0
c060
6060
0f60
cd60
6d60
0d60
0f60
3060
6060
c1e0
0000
ENDCHAR
STARTCHAR 0x3250
ENCODING 12880
SWIDTH 886 0
DWIDTH 12 0
BBX 12 13 0 -2
BITMAP
0600
0600
0600
3660
3660
66c0
66c0
0d00
0d00
1980
30c0
e070
0000
ENDCHAR
STARTCHAR 0x3251
ENCODING 12881
SWIDTH 886 0
DWIDTH 12 0
BBX 12 13 0 -2
BITMAP
0000
1ff0
f060
6060
6f60
6d60
f560
6d60
6f60
6060
f060
01e0
0000
ENDCHAR
STARTCHAR 0x3252
ENCODING 12882
SWIDTH 886 0
DWIDTH 12 0
BBX 12 13 0 -2
BITMAP
0000
67e0
6660
fae0
1aa0
37f0
6c30
edd0
7550
6d50
6dd0
6c70
0000
ENDCHAR
STARTCHAR 0x3253
ENCODING 12883
SWIDTH 886 0
DWIDTH 12 0
BBX 12 13 0 -2
BITMAP
0000
03e0
7e00
0600
0600
fff0
0700
0e80
1ac0
3660
e630
0600
0000
ENDCHAR
STARTCHAR 0x3254
ENCODING 12884
SWIDTH 886 0
DWIDTH 12 0
BBX 12 13 0 -2
BITMAP
0180
1d80
f7f0
3430
37e0
f9b0
33a0
76c0
71e0
d750
dcd0
3380
0000
ENDCHAR
STARTCHAR 0x3255
ENCODING 12885
SWIDTH 886 0
DWIDTH 12 0
BBX 12 13 0 -2
BITMAP
0300
6300
7df0
d6c0
0000
fff0
c630
dfd0
c630
dfb0
d9b0
fff0
0000
ENDCHAR
STARTCHAR 0x3256
ENCODING 12886
SWIDTH 886 0
DWIDTH 12 0
BBX 12 13 0 -2
BITMAP
1980
1980
fff0
1980
1800
1b00
3370
73c0
d300
3300
3330
33f0
0000
ENDCHAR
STARTCHAR 0x3257
ENCODING 12887
SWIDTH 886 0
DWIDTH 12 0
BBX 12 13 0 -2
BITMAP
1980
1980
fff0
1980
0000
fff0
0060
3e60
3660
3660
3e60
01e0
0000
ENDCHAR
STARTCHAR 0x3258
ENCODING 12888
SWIDTH 886 0
DWIDTH 12 0
BBX 12 13 0 -2
BITMAP
1980
1980
fff0
1980
3000
31f0
feb0
36b0
36b0
66b0
cdb0
39f0
0000
ENDCHAR
STARTCHAR 0x3259
ENCODING 12889
SWIDTH 886 0
DWIDTH 12 0
BBX 12 13 0 -2
BITMAP
1980
1980
fff0
1980
3000
7ff0
e060
6f60
6d60
6d60
6f60
60e0
0000
ENDCHAR
STARTCHAR 0x325A
ENCODING 12890
SWIDTH 886 0
DWIDTH 12 0
BBX 12 13 0 -2
BITMAP
1980
1980
fff0
1980
7fe0
36c0
fff0
36c0
7fe0
0600
fff0
0600
0000
ENDCHAR
STARTCHAR 0x325B
ENCODING 12891
SWIDTH 886 0
DWIDTH 12 0
BBX 12 13 0 -2
BITMAP
1980
1980
fff0
1980
3fc0
36c0
3fc0
36c0
fff0
0e80
3ac0
e670
0000
ENDCHAR
STARTCHAR 0x325C
ENCODING 12892
SWIDTH 886 0
DWIDTH 12 0
BBX 12 13 0 -2
BITMAP
0000
37f0
35b0
fdb0
d7b0
d400
d5f0
ff30
34d0
3750
34e0
fdb0
0000
ENDCHAR
STARTCHAR 0x325D
ENCODING 12893
SWIDTH 886 0
DWIDTH 12 0
BBX 12 13 0 -2
BITMAP
0000
f7f0
0db0
f7f0
0db0
f5b0
0ff0
0180
f7f0
d380
d6a0
fdb0
0000
ENDCHAR
STARTCHAR 0x325E
ENCODING 12894
SWIDTH 886 0
DWIDTH 12 0
BBX 12 13 0 -2
BITMAP
0360
0360
f7f0
d360
d7f0
d6d0
dff0
d6d0
d7f0
d0c0
f7f0
00c0
0000
ENDCHAR
STARTCHAR 0x325F
ENCODING 12895
SWIDTH 886 0
DWIDTH 12 0
BBX 12 13 0 -2
BITMAP
0300
1b70
33c0
f330
3ff0
30c0
3fc0
30c0
3fc0
30c0
3fc0
e070
0000
ENDCHAR
STARTCHAR 0x3260
ENCODING 12896
SWIDTH 886 0
DWIDTH 12 0
BBX 12 13 0 -2
BITMAP
0c00
0c00
ccf0
6f50
0d50
0d50
f550
3550
3b50
3770
6800
cff0
0000
ENDCHAR
STARTCHAR 0x3261
ENCODING 12897
SWIDTH 886 0
DWIDTH 12 0
BBX 12 13 0 -2
BITMAP
0000
07e0
6660
36e0
06a0
0ff0
f430
35d0
3550
35d0
6800
cff0
0000
ENDCHAR
STARTCHAR 0x3262
ENCODING 12898
SWIDTH 886 0
DWIDTH 12 0
BBX 12 13 0 -2
BITMAP
0000
7fe0
0600
fff0
d6b0
1ac0
fdf0
cc30
fff0
c360
fdc0
c770
0000
ENDCHAR
STARTCHAR 0x3263
ENCODING 12899
SWIDTH 886 0
DWIDTH 12 0
BBX 12 13 0 -2
BITMAP
00c0
30c0
30c0
fff0
d660
d660
d6a0
fea0
31a0
34c0
35c0
ff70
0000
ENDCHAR
STARTCHAR 0x3264
ENCODING 12900
SWIDTH 886 0
DWIDTH 12 0
BBX 12 13 0 -2
BITMAP
00c0
3750
3cd0
6cc0
6df0
fec0
6cd0
6f50
7c60
6c60
6dd0
6f30
0000
ENDCHAR
STARTCHAR 0x3265
ENCODING 12901
SWIDTH 886 0
DWIDTH 12 0
BBX 12 13 0 -2
BITMAP
00c0
3750
36d0
36c0
d7f0
dec0
d6d0
d750
de60
d660
fad0
0f30
0000
ENDCHAR
STARTCHAR 0x3266
ENCODING 12902
SWIDTH 886 0
DWIDTH 12 0
BBX 12 13 0 -2
BITMAP
0180
1da0
f1b0
3180
37f0
f8c0
30d0
36d0
f860
30e0
31b0
7730
0000
ENDCHAR
STARTCHAR 0x3267
ENCODING 12903
SWIDTH 886 0
DWIDTH 12 0
BBX 12 13 0 -2
BITMAP
0000
7fe0
3180
3180
3180
fff0
0380
0680
0d80
3980
e180
0780
0000
ENDCHAR
STARTCHAR 0x3268
ENCODING 12904
SWIDTH 886 0
DWIDTH 12 0
BBX 12 13 0 -2
BITMAP
0000
fff0
0600
3fc0
36c0
d6d0
dfd0
d6d0
d6d0
dfd0
c030
fff0
0000
ENDCHAR
STARTCHAR 0x3269
ENCODING 12905
SWIDTH 886 0
DWIDTH 12 0
BBX 12 13 0 -2
BITMAP
00c0
fec0
d8c0
d8c0
fcc0
ccc0
cda0
fda0
db60
db30
fe30
0630
0000
ENDCHAR
STARTCHAR 0x326A
ENCODING 12906
SWIDTH 886 0
DWIDTH 12 0
BBX 12 13 0 -2
BITMAP
1980
1980
fff0
1980
7fe0
1980
1980
fff0
0680
1d80
f180
0780
0000
ENDCHAR
STARTCHAR 0x326B
ENCODING 12907
SWIDTH 886 0
DWIDTH 12 0
BBX 12 13 0 -2
BITMAP
00c0
3750
36d0
fac0
d7f0
d6c0
d6d0
ff50
3660
3660
36d0
ff30
0000
ENDCHAR
STARTCHAR 0x326C
ENCODING 12908
SWIDTH 886 0
DWIDTH 12 0
BBX 12 13 0 -2
BITMAP
3000
33f0
fd30
3530
6df0
ccc0
3fc0
30c0
3fc0
30c0
3fc0
e070
0000
ENDCHAR
STARTCHAR 0x326D
ENCODING 12909
SWIDTH 886 0
DWIDTH 12 0
BBX 12 13 0 -2
BITMAP
0300
fd60
6b60
6bf0
6ac0
6ff0
fac0
1ac0
3bf0
6ac0
dac0
3bf0
0000
ENDCHAR
STARTCHAR 0x326E
ENCODING 12910
SWIDTH 886 0
DWIDTH 12 0
BBX 12 13 0 -2
BITMAP
00c0
7750
dad0
36c0
fff0
dac0
fad0
db50
fe60
d660
dad0
f730
0000
ENDCHAR
STARTCHAR 0x326F
ENCODING 12911
SWIDTH 886 0
DWIDTH 12 0
BBX 12 13 0 -2
BITMAP
3000
31f0
feb0
36b0
7ff0
d600
3fe0
3600
3ff0
0030
6ab0
dab0
0000
ENDCHAR
STARTCHAR 0x3270
ENCODING 12912
SWIDTH 886 0
DWIDTH 12 0
BBX 12 13 0 -2
BITMAP
0000
0f00
1980
30c0
69a0
d9b0
1980
1980
3180
3180
6180
6180
0000
ENDCHAR
STARTCHAR 0x3271
ENCODING 12913
SWIDTH 886 0
DWIDTH 12 0
BBX 12 13 0 -2
BITMAP
0000
0f00
1980
30c0
6fa0
c030
0000
fff0
18c0
18c0
33a0
3e60
0000
ENDCHAR
STARTCHAR 0x3272
ENCODING 12914
SWIDTH 886 0
DWIDTH 12 0
BBX 12 13 0 -2
BITMAP
0000
7bf0
d9b0
3330
fee0
d540
fdf0
d540
d6c0
fdf0
ccc0
dcc0
0000
ENDCHAR
STARTCHAR 0x3273
ENCODING 12915
SWIDTH 886 0
DWIDTH 12 0
BBX 12 13 0 -2
BITMAP
0000
fff0
c030
c030
dfb0
d9b0
d9b0
d9b0
dfb0
c030
c030
fff0
0000
ENDCHAR
STARTCHAR 0x3274
ENCODING 12916
SWIDTH 886 0
DWIDTH 12 0
BBX 12 13 0 -2
BITMAP
0180
6300
6ff0
6db0
f7f0
6db0
6db0
6ff0
66a0
66a0
f5b0
0df0
0000
ENDCHAR
STARTCHAR 0x3275
ENCODING 12917
SWIDTH 886 0
DWIDTH 12 0
BBX 12 13 0 -2
BITMAP
0180
6180
6ff0
6d50
f550
6ff0
6300
6ff0
66b0
6da0
f4c0
0f70
0000
ENDCHAR
STARTCHAR 0x3276
ENCODING 12918
SWIDTH 886 0
DWIDTH 12 0
BBX 12 13 0 -2
BITMAP
0000
0ff0
f430
35d0
6d50
cd50
f5d0
3430
d7f0
6000
d800
cff0
0000
ENDCHAR
STARTCHAR 0x3277
ENCODING 12919
SWIDTH 886 0
DWIDTH 12 0
BBX 12 13 0 -2
BITMAP
0180
3180
37f0
31b0
d1b0
d1b0
dff0
d180
d180
3340
3660
3c30
0000
ENDCHAR
STARTCHAR 0x3278
ENCODING 12920
SWIDTH 886 0
DWIDTH 12 0
BBX 12 13 0 -2
BITMAP
0000
37f0
3030
3360
d1c0
d770
d180
d180
d7f0
3180
3180
37f0
0000
ENDCHAR
STARTCHAR 0x3279
ENCODING 12921
SWIDTH 886 0
DWIDTH 12 0
BBX 12 13 0 -2
BITMAP
0600
3600
37f0
3400
d7e0
d6a0
d6a0
dff0
d560
3560
37f0
30c0
0000
ENDCHAR
STARTCHAR 0x327A
ENCODING 12922
SWIDTH 886 0
DWIDTH 12 0
BBX 12 13 0 -2
BITMAP
0000
37f0
34c0
34c0
d550
d550
d550
d4c0
d5a0
31a0
3330
3630
0000
ENDCHAR
STARTCHAR 0x327B
ENCODING 12923
SWIDTH 886 0
DWIDTH 12 0
BBX 12 13 0 -2
BITMAP
0180
3180
3ff0
3550
d550
d7f0
d300
dff0
d6b0
3da0
34c0
3770
0000
ENDCHAR
STARTCHAR 0x327C
ENCODING 12924
SWIDTH 886 0
DWIDTH 12 0
BBX 12 13 0 -2
BITMAP
0180
01b0
fff0
0180
35b0
35b0
fea0
35a0
34c0
61c0
6760
1c30
0000
ENDCHAR
STARTCHAR 0x327D
ENCODING 12925
SWIDTH 886 0
DWIDTH 12 0
BBX 12 13 0 -2
BITMAP
0000
67e0
6660
fa60
67e0
6000
6000
77f0
e330
6330
6630
ece0
0000
ENDCHAR
STARTCHAR 0x327E
ENCODING 12926
SWIDTH 886 0
DWIDTH 12 0
BBX 12 13 0 -2
BITMAP
0300
0300
fbf0
1b60
1a60
fa60
c1a0
c1a0
d8c0
d8c0
fba0
0e30
0000
ENDCHAR
STARTCHAR 0x3321
ENCODING 13089
SWIDTH 886 0
DWIDTH 12 0
BBX 12 13 0 -2
BITMAP
1800
31b0
fed0
d630
feb0
d6d0
d630
fef0
6a30
6b80
d830
dff0
0000
ENDCHAR
STARTCHAR 0x3322
ENCODING 13090
SWIDTH 886 0
DWIDTH 12 0
BBX 12 13 0 -2
BITMAP
0600
0600
f7f0
d400
d7e0
d6a0
f6a0
dff0
d560
d560
f7f0
00c0
0000
ENDCHAR
STARTCHAR 0x3323
ENCODING 13091
SWIDTH 886 0
DWIDTH 12 0
BBX 12 13 0 -2
BITMAP
00c0
30d0
37f0
f8c0
3540
3550
7fd0
7550
d560
d560
30d0
33b0
0000
ENDCHAR
STARTCHAR 0x3324
ENCODING 13092
SWIDTH 886 0
DWIDTH 12 0
BBX 12 13 0 -2
BITMAP
0c00
0c00
cff0
6800
1fe0
cda0
6da0
1ff0
6b60
6b60
dff0
c0c0
0000
ENDCHAR
STARTCHAR 0x3325
ENCODING 13093
SWIDTH 886 0
DWIDTH 12 0
BBX 12 13 0 -2
BITMAP
0000
7ff0
6000
6180
6db0
6db0
6db0
6180
6340
c340
c660
1c30
0000
ENDCHAR
STARTCHAR 0x3326
ENCODING 13094
SWIDTH 886 0
DWIDTH 12 0
BBX 12 13 0 -2
BITMAP
0000
7fe0
6660
7fe0
6660
6660
7fe0
1980
39c0
e9a0
19b0
7180
0000
ENDCHAR
STARTCHAR 0x3327
ENCODING 13095
SWIDTH 886 0
DWIDTH 12 0
BBX 12 13 0 -2
BITMAP
0300
6300
7df0
6300
6330
fdf0
0600
3fe0
3060
3fe0
3060
3fe0
0000
ENDCHAR
STARTCHAR 0x3328
ENCODING 13096
SWIDTH 886 0
DWIDTH 12 0
BBX 12 13 0 -2
BITMAP
0000
33e0
6630
d800
fbf0
3000
6000
fbf0
3180
db30
d630
37f0
0000
ENDCHAR
STARTCHAR 0x3329
ENCODING 13097
SWIDTH 886 0
DWIDTH 12 0
BBX 12 13 0 -2
BITMAP
1980
1980
fff0
1980
0000
0f00
39c0
e9b0
1980
1980
3180
3180
0000
ENDCHAR
STARTCHAR 0x332A
ENCODING 13098
SWIDTH 886 0
DWIDTH 12 0
BBX 12 13 0 -2
BITMAP
0000
7df0
d9b0
fdf0
d540
fff0
ccc0
3fc0
36c0
3fc0
0630
fff0
0000
ENDCHAR
STARTCHAR 0x332B
ENCODING 13099
SWIDTH 886 0
DWIDTH 12 0
BBX 12 13 0 -2
BITMAP
0000
fdf0
cd30
fdf0
cd30
fdf0
c030
dfd0
cd30
dfd0
cd30
db70
0000
ENDCHAR
STARTCHAR 0x332C
ENCODING 13100
SWIDTH 886 0
DWIDTH 12 0
BBX 12 13 0 -2
BITMAP
00c0
f4c0
d770
d4c0
ecc0
d770
d180
d7f0
d430
eff0
cc30
cff0
0000
ENDCHAR
STARTCHAR 0x332D
ENCODING 13101
SWIDTH 886 0
DWIDTH 12 0
BBX 12 13 0 -2
BITMAP
0000
3fe0
3060
3fe0
3060
3fe0
3060
3060
3fe0
0000
18c0
7070
0000
ENDCHAR
STARTCHAR 0x332E
ENCODING 13102
SWIDTH 886 0
DWIDTH 12 0
BBX 12 13 0 -2
BITMAP
3000
d5e0
fd60
0360
fd60
0360
fd60
cd60
fd60
6b60
6a60
fc70
0000
ENDCHAR
STARTCHAR 0x332F
ENCODING 13103
SWIDTH 886 0
DWIDTH 12 0
BBX 12 13 0 -2
BITMAP
3180
3180
fd80
67f0
cdb0
69b0
3330
6d30
da30
3630
6860
cdc0
0000
ENDCHAR
STARTCHAR 0x3330
ENCODING 13104
SWIDTH 886 0
DWIDTH 12 0
BBX 12 13 0 -2
BITMAP
0180
6180
7d80
6d80
6e80
d580
ddc0
0da0
19b0
1980
3180
e180
0000
ENDCHAR
STARTCHAR 0x3331
ENCODING 13105
SWIDTH 886 0
DWIDTH 12 0
BBX 12 13 0 -2
BITMAP
0180
0180
fff0
d980
db30
da60
db40
d9b0
db60
d8c0
fba0
0e30
0000
ENDCHAR
STARTCHAR 0x3332
ENCODING 13106
SWIDTH 886 0
DWIDTH 12 0
BBX 12 13 0 -2
BITMAP
0600
0600
fff0
c630
dfd0
0600
3fc0
0600
fff0
30c0
30c0
3fc0
0000
ENDCHAR
STARTCHAR 0x3333
ENCODING 13107
SWIDTH 886 0
DWIDTH 12 0
BBX 12 13 0 -2
BITMAP
0600
6630
7ff0
0000
7ff0
6300
6fe0
6300
6fe0
c300
c300
3ff0
0000
ENDCHAR
STARTCHAR 0x3334
ENCODING 13108
SWIDTH 886 0
DWIDTH 12 0
BBX 12 13 0 -2
BITMAP
0000
37f0
35a0
37a0
d5a0
ddf0
d7a0
d460
d5a0
36e0
31a0
3770
0000
ENDCHAR
STARTCHAR 0x3335
ENCODING 13109
SWIDTH 886 0
DWIDTH 12 0
BBX 12 13 0 -2
BITMAP
0000
37f0
35a0
ffa0
35a0
35f0
77a0
7460
d5a0
d6e0
31a0
3770
0000
ENDCHAR
STARTCHAR 0x3336
ENCODING 13110
SWIDTH 886 0
DWIDTH 12 0
BBX 12 13 0 -2
BITMAP
0000
0ff0
ccc0
6df0
0cc0
ccc0
6ff0
0cc0
6df0
68c0
d8c0
c7f0
0000
ENDCHAR
STARTCHAR 0x3337
ENCODING 13111
SWIDTH 886 0
DWIDTH 12 0
BBX 12 13 0 -2
BITMAP
0000
07f0
fa30
37f0
3630
37f0
7860
eff0
6860
6a60
6b60
78e0
0000
ENDCHAR
STARTCHAR 0x3338
ENCODING 13112
SWIDTH 886 0
DWIDTH 12 0
BBX 12 13 0 -2
BITMAP
1980
1980
fff0
1980
0600
fff0
18c0
7fe0
0030
7fe0
6d60
fff0
0000
ENDCHAR
STARTCHAR 0x3339
ENCODING 13113
SWIDTH 886 0
DWIDTH 12 0
BBX 12 13 0 -2
BITMAP
0600
36f0
6f80
c600
06f0
3fb0
6630
e630
6fb0
6630
6630
6fb0
0000
ENDCHAR
STARTCHAR 0x333A
ENCODING 13114
SWIDTH 886 0
DWIDTH 12 0
BBX 12 13 0 -2
BITMAP
0180
f180
0ff0
f180
0330
f660
0340
01b0
f760
d0c0
d3a0
f630
0000
ENDCHAR
STARTCHAR 0x333B
ENCODING 13115
SWIDTH 886 0
DWIDTH 12 0
BBX 12 13 0 -2
BITMAP
0180
3ab0
67f0
c000
fbf0
3000
fff0
3630
dbf0
d360
3360
fff0
0000
ENDCHAR
STARTCHAR 0x333C
ENCODING 13116
SWIDTH 886 0
DWIDTH 12 0
BBX 12 13 0 -2
BITMAP
0180
7d80
6ff0
6d80
6d30
fea0
c6c0
7db0
6f60
7cc0
6da0
6f30
0000
ENDCHAR
STARTCHAR 0x333D
ENCODING 13117
SWIDTH 886 0
DWIDTH 12 0
BBX 12 13 0 -2
BITMAP
0000
0ff0
cdb0
6ff0
0db0
cdb0
6ff0
0180
0ff0
3180
6180
cff0
0000
ENDCHAR
STARTCHAR 0x333E
ENCODING 13118
SWIDTH 886 0
DWIDTH 12 0
BBX 12 13 0 -2
BITMAP
1800
ffe0
1b60
fe70
6ac0
7f70
c600
fff0
36c0
7fe0
d0d0
3fc0
0000
ENDCHAR
STARTCHAR 0x333F
ENCODING 13119
SWIDTH 886 0
DWIDTH 12 0
BBX 12 13 0 -2
BITMAP
00c0
30c0
33f0
fcc0
d4c0
d7f0
d4c0
fcc0
33f0
34c0
34c0
fff0
0000
ENDCHAR
STARTCHAR 0x3340
ENCODING 13120
SWIDTH 886 0
DWIDTH 12 0
BBX 12 13 0 -2
BITMAP
0000
6ff0
6000
6fe0
f460
6c60
6fe0
6c60
6c60
6fe0
f000
1ff0
0000
ENDCHAR
STARTCHAR 0x3341
ENCODING 13121
SWIDTH 886 0
DWIDTH 12 0
BBX 12 13 0 -2
BITMAP
0180
3180
37f0
f980
3180
37f0
75b0
75b0
d5b0
d5b0
35b0
3180
0000
ENDCHAR
STARTCHAR 0x3342
ENCODING 13122
SWIDTH 886 0
DWIDTH 12 0
BBX 12 13 0 -2
BITMAP
0000
37f0
3600
fe00
d7f0
d680
d680
fef0
3330
3330
3630
fee0
0000
ENDCHAR
STARTCHAR 0x3343
ENCODING 13123
SWIDTH 886 0
DWIDTH 12 0
BBX 12 13 0 -2
BITMAP
0600
3a00
67f0
cc30
fd30
3330
fd30
36d0
dad0
d7d0
3030
fce0
0000
ENDCHAR
STARTCHAR 0x3344
ENCODING 13124
SWIDTH 886 0
DWIDTH 12 0
BBX 12 13 0 -2
BITMAP
0000
fe30
36b0
feb0
36b0
feb0
31b0
ffb0
d6b0
fe30
d630
ff70
0000
ENDCHAR
STARTCHAR 0x3345
ENCODING 13125
SWIDTH 886 0
DWIDTH 12 0
BBX 12 13 0 -2
BITMAP
06c0
06c0
f7f0
d6c0
d6c0
dff0
d6a0
d6a0
dab0
d6a0
f5a0
0da0
0000
ENDCHAR
STARTCHAR 0x3346
ENCODING 13126
SWIDTH 886 0
DWIDTH 12 0
BBX 12 13 0 -2
BITMAP
1800
1800
1fc0
30c0
6d80
0700
1dc0
f070
3fc0
30c0
30c0
3fc0
0000
ENDCHAR
STARTCHAR 0x3347
ENCODING 13127
SWIDTH 886 0
DWIDTH 12 0
BBX 12 13 0 -2
BITMAP
0600
0600
fff0
d800
fef0
d6b0
dea0
cda0
d9b0
ffb0
cde0
dd80
0000
ENDCHAR
STARTCHAR 0x3348
ENCODING 13128
SWIDTH 886 0
DWIDTH 12 0
BBX 12 13 0 -2
BITMAP
0180
6180
6ff0
fc00
6d80
6d80
6d80
7560
ed60
6b60
6ad0
e7b0
0000
ENDCHAR
STARTCHAR 0x3349
ENCODING 13129
SWIDTH 886 0
DWIDTH 12 0
BBX 12 13 0 -2
BITMAP
0300
6da0
66c0
fff0
6c30
6fe0
6c60
7460
efe0
6340
66d0
ecf0
0000
ENDCHAR
STARTCHAR 0x334A
ENCODING 13130
SWIDTH 886 0
DWIDTH 12 0
BBX 12 13 0 -2
BITMAP
0300
3300
33f0
fa30
3560
31c0
7360
7a30
d7f0
d630
3630
37f0
0000
ENDCHAR
STARTCHAR 0x334B
ENCODING 13131
SWIDTH 886 0
DWIDTH 12 0
BBX 12 13 0 -2
BITMAP
0180
3180
37f0
f980
3330
3660
7340
71b0
db60
d0c0
33a0
3630
0000
ENDCHAR
STARTCHAR 0x334C
ENCODING 13132
SWIDTH 886 0
DWIDTH 12 0
BBX 12 13 0 -2
BITMAP
3000
33e0
fd60
3360
fd60
0670
fc00
cff0
7b30
6b60
d9c0
df70
0000
ENDCHAR
STARTCHAR 0x334D
ENCODING 13133
SWIDTH 886 0
DWIDTH 12 0
BBX 12 13 0 -2
BITMAP
0360
3360
d7f0
6360
67f0
d6c0
37f0
76c0
d7f0
3660
33c0
ee70
0000
ENDCHAR
STARTCHAR 0x334E
ENCODING 13134
SWIDTH 886 0
DWIDTH 12 0
BBX 12 13 0 -2
BITMAP
0180
0180
fff0
3530
3340
37f0
7ec0
eac0
6bf0
6ac0
6ac0
7bf0
0000
ENDCHAR
STARTCHAR 0x334F
ENCODING 13135
SWIDTH 886 0
DWIDTH 12 0
BBX 12 13 0 -2
BITMAP
0360
1d60
f7f0
3360
37f0
fec0
37f0
76c0
77f0
d660
d3c0
3670
0000
ENDCHAR
STARTCHAR 0x3350
ENCODING 13136
SWIDTH 886 0
DWIDTH 12 0
BBX 12 13 0 -2
BITMAP
06c0
3680
fff0
d0d0
dfd0
30c0
3fc0
30c0
3fd0
1b30
3330
e3f0
0000
ENDCHAR
STARTCHAR 0x3351
ENCODING 13137
SWIDTH 886 0
DWIDTH 12 0
BBX 12 13 0 -2
BITMAP
0000
1fc0
3180
7fe0
e660
7fe0
6660
6660
7fe0
6060
c060
c1e0
0000
ENDCHAR
STARTCHAR 0x3352
ENCODING 13138
SWIDTH 886 0
DWIDTH 12 0
BBX 12 13 0 -2
BITMAP
1980
1980
fff0
1980
1980
fff0
3540
d550
d550
d550
6cc0
6dc0
0000
ENDCHAR
STARTCHAR 0x3353
ENCODING 13139
SWIDTH 886 0
DWIDTH 12 0
BBX 12 13 0 -2
BITMAP
0180
3180
fff0
3000
fd60
d630
fc00
d560
fda0
30c0
fda0
3730
0000
ENDCHAR
STARTCHAR 0x3354
ENCODING 13140
SWIDTH 886 0
DWIDTH 12 0
BBX 12 13 0 -2
BITMAP
1800
19f0
ffb0
01b0
7ea0
66c0
7ea0
0db0
19b0
ffb0
19e0
7980
0000
ENDCHAR
STARTCHAR 0x3355
ENCODING 13141
SWIDTH 886 0
DWIDTH 12 0
BBX 12 13 0 -2
BITMAP
0000
fdf0
cd30
fdf0
cd30
fff0
d9b0
d730
d9b0
dfd0
d9b0
dfb0
0000
ENDCHAR
STARTCHAR 0x3356
ENCODING 13142
SWIDTH 886 0
DWIDTH 12 0
BBX 12 13 0 -2
BITMAP
0000
f7f0
d000
d7e0
e660
d7e0
d000
d7f0
d550
ee70
cdd0
cdb0
0000
ENDCHAR
STARTCHAR 0x3357
ENCODING 13143
SWIDTH 886 0
DWIDTH 12 0
BBX 12 13 0 -2
BITMAP
1980
1980
fff0
1980
1f80
0600
7fe0
6660
7fe0
0600
fff0
0600
0000
ENDCHAR
STARTCHAR 0x3358
ENCODING 13144
SWIDTH 886 0
DWIDTH 12 0
BBX 12 13 0 -2
BITMAP
0c60
66c0
3180
fff0
c030
dfb0
0300
0600
fff0
0600
0600
1e00
0000
ENDCHAR
STARTCHAR 0x3359
ENCODING 13145
SWIDTH 886 0
DWIDTH 12 0
BBX 12 13 0 -2
BITMAP
0000
03c0
3e00
3000
3fe0
3180
3180
fff0
0600
6660
6660
7fe0
0000
ENDCHAR
STARTCHAR 0x335A
ENCODING 13146
SWIDTH 886 0
DWIDTH 12 0
BBX 12 13 0 -2
BITMAP
0600
0c00
dfb0
69a0
1f80
69a0
dfb0
0600
fff0
0e80
3ac0
e670
0000
ENDCHAR
STARTCHAR 0x335B
ENCODING 13147
SWIDTH 886 0
DWIDTH 12 0
BBX 12 13 0 -2
BITMAP
1800
1bf0
fec0
d5f0
d530
6bf0
3530
67f0
fd30
6df0
6d60
7e30
0000
ENDCHAR
STARTCHAR 0x335C
ENCODING 13148
SWIDTH 886 0
DWIDTH 12 0
BBX 12 13 0 -2
BITMAP
0000
fdf0
d4c0
fdf0
0330
fdf0
0330
fdf0
6330
fdf0
cda0
3b30
0000
ENDCHAR
STARTCHAR 0x335D
ENCODING 13149
SWIDTH 886 0
DWIDTH 12 0
BBX 12 13 0 -2
BITMAP
0600
6660
6fa0
f660
6660
6fa0
6670
7668
efa0
6660
6660
efa0
0000
ENDCHAR
STARTCHAR 0x335E
ENCODING 13150
SWIDTH 886 0
DWIDTH 12 0
BBX 12 13 0 -2
BITMAP
0300
6300
7df0
d6c0
36c0
0600
7fe0
1980
1980
1b00
0300
fff0
0000
ENDCHAR
STARTCHAR 0x335F
ENCODING 13151
SWIDTH 886 0
DWIDTH 12 0
BBX 12 13 0 -2
BITMAP
0000
37f0
3530
ffd0
35a0
37a0
7550
77d0
d180
d7f0
3180
37f0
0000
ENDCHAR
STARTCHAR 0x3360
ENCODING 13152
SWIDTH 886 0
DWIDTH 12 0
BBX 12 13 0 -2
BITMAP
0000
37f0
36b0
fbf0
36b0
37f0
7000
77f0
d6b0
d7f0
36b0
37f0
0000
ENDCHAR
STARTCHAR 0x3361
ENCODING 13153
SWIDTH 886 0
DWIDTH 12 0
BBX 12 13 0 -2
BITMAP
0000
37f0
3630
fbf0
3600
37f0
76c0
7bf0
d6c0
d5f0
34c0
30f0
0000
ENDCHAR
STARTCHAR 0x3362
ENCODING 13154
SWIDTH 886 0
DWIDTH 12 0
BBX 12 13 0 -2
BITMAP
00c0
7bc0
dec0
36d0
fad0
d7d0
fac0
d6e0
fea0
06a0
d530
d530
0000
ENDCHAR
STARTCHAR 0x3363
ENCODING 13155
SWIDTH 886 0
DWIDTH 12 0
BBX 12 13 0 -2
BITMAP
0300
0ee0
cc60
6ee0
0c60
cfe0
6600
0ff0
6830
6d50
cd30
c0e0
0000
ENDCHAR
STARTCHAR 0x3364
ENCODING 13156
SWIDTH 886 0
DWIDTH 12 0
BBX 12 13 0 -2
BITMAP
1800
1830
ffb0
d9b0
feb0
19b0
7eb0
19b0
feb0
6630
6630
7e70
0000
ENDCHAR
STARTCHAR 0x3365
ENCODING 13157
SWIDTH 886 0
DWIDTH 12 0
BBX 12 13 0 -2
BITMAP
0000
0fe0
f460
d7e0
d460
d7e0
d600
d7f0
dc30
d5b0
f7b0
00e0
0000
ENDCHAR
STARTCHAR 0x3366
ENCODING 13158
SWIDTH 886 0
DWIDTH 12 0
BBX 12 13 0 -2
BITMAP
0000
33e0
3630
3400
d000
d7f0
d000
d000
d7f0
3630
3630
37f0
0000
ENDCHAR
STARTCHAR 0x3367
ENCODING 13159
SWIDTH 886 0
DWIDTH 12 0
BBX 12 13 0 -2
BITMAP
0000
3070
37c0
f8c0
30c0
37f0
30c0
38c0
f7f0
3630
3630
77f0
0000
ENDCHAR
STARTCHAR 0x3368
ENCODING 13160
SWIDTH 886 0
DWIDTH 12 0
BBX 12 13 0 -2
BITMAP
0000
00f0
cf80
6180
0180
cff0
6180
0180
0ff0
3430
6c30
cff0
0000
ENDCHAR
STARTCHAR 0x3369
ENCODING 13161
SWIDTH 886 0
DWIDTH 12 0
BBX 12 13 0 -2
BITMAP
0000
0fe0
cc60
6fe0
0c60
cfe0
6600
0ff0
6c30
6db0
cfb0
c0e0
0000
ENDCHAR
STARTCHAR 0x336A
ENCODING 13162
SWIDTH 886 0
DWIDTH 12 0
BBX 12 13 0 -2
BITMAP
0000
0fe0
cc60
6de0
0d60
dff0
6830
0fe0
0c60
37e0
6c60
cce0
0000
ENDCHAR
STARTCHAR 0x336B
ENCODING 13163
SWIDTH 886 0
DWIDTH 12 0
BBX 12 13 0 -2
BITMAP
1980
1980
fff0
30c0
3fc0
30c0
3fc0
1800
3ff0
f030
3330
3f60
0000
ENDCHAR
STARTCHAR 0x336C
ENCODING 13164
SWIDTH 886 0
DWIDTH 12 0
BBX 12 13 0 -2
BITMAP
0000
6fe0
6c60
f7e0
3460
37e0
6600
f7f0
6c30
6db0
6fb0
60e0
0000
ENDCHAR
STARTCHAR 0x336D
ENCODING 13165
SWIDTH 886 0
DWIDTH 12 0
BBX 12 13 0 -2
BITMAP
00c0
30c0
fff0
36d0
fdf0
d4c0
fdf0
d4c0
fff0
3330
fd30
33f0
0000
ENDCHAR
STARTCHAR 0x336E
ENCODING 13166
SWIDTH 886 0
DWIDTH 12 0
BBX 12 13 0 -2
BITMAP
0000
3fc0
30c0
30c0
3fc0
30c0
30c0
3fc0
30c0
30c0
30c0
fff0
0000
ENDCHAR
STARTCHAR 0x336F
ENCODING 13167
SWIDTH 886 0
DWIDTH 12 0
BBX 12 13 0 -2
BITMAP
0000
77f0
d530
6fd0
fda0
d7a0
fd50
d7d0
fcc0
03f0
d4c0
d7f0
0000
ENDCHAR
STARTCHAR 0x3370
ENCODING 13168
SWIDTH 886 0
DWIDTH 12 0
BBX 12 13 0 -2
BITMAP
00c0
00c0
f8c0
d8c0
dff0
d8c0
d8c0
d8c0
d8c0
d8c0
f8c0
00c0
0000
ENDCHAR
STARTCHAR 0x3371
ENCODING 13169
SWIDTH 886 0
DWIDTH 12 0
BBX 12 13 0 -2
BITMAP
06c0
36c0
3ff0
f6c0
3680
36b0
75a0
75c0
dd80
d580
35b0
35f0
0000
ENDCHAR
STARTCHAR 0x3372
ENCODING 13170
SWIDTH 886 0
DWIDTH 12 0
BBX 12 13 0 -2
BITMAP
0360
3360
37f0
fb60
37f0
36d0
7ff0
76d0
d7f0
d0c0
37f0
30c0
0000
ENDCHAR
STARTCHAR 0x3373
ENCODING 13171
SWIDTH 886 0
DWIDTH 12 0
BBX 12 13 0 -2
BITMAP
0300
6b00
fdf0
6a30
7bd0
36d0
fcd0
d5d0
fd70
3300
fd30
33f0
0000
ENDCHAR
STARTCHAR 0x3374
ENCODING 13172
SWIDTH 886 0
DWIDTH 12 0
BBX 12 13 0 -2
BITMAP
0180
3580
3580
f7f0
3980
3180
77f0
7980
d3c0
d6a0
3db0
3180
0000
ENDCHAR
STARTCHAR 0x3375
ENCODING 13173
SWIDTH 886 0
DWIDTH 12 0
BBX 12 13 0 -2
BITMAP
0600
0c00
efb0
d9b0
dfb0
d9b0
d9b0
efb0
0300
1b00
1b30
f3f0
0000
ENDCHAR
STARTCHAR 0x3376
ENCODING 13174
SWIDTH 886 0
DWIDTH 12 0
BBX 12 13 0 -2
BITMAP
0600
0600
fff0
cd30
1b00
7fe0
36c0
7fe0
6660
7fe0
6630
07f0
0000
ENDCHAR
STARTCHAR 0x3377
ENCODING 13175
SWIDTH 886 0
DWIDTH 12 0
BBX 12 13 0 -2
BITMAP
1980
1980
fff0
19b0
6ff0
3180
cff0
6db0
0ff0
35b0
6ff0
cdb0
0000
ENDCHAR
STARTCHAR 0x3378
ENCODING 13176
SWIDTH 886 0
DWIDTH 12 0
BBX 12 13 0 -2
BITMAP
0000
39c0
ed70
0f00
39c0
e070
3fc0
0600
7fe0
36c0
1a80
fff0
0000
ENDCHAR
STARTCHAR 0x3379
ENCODING 13177
SWIDTH 886 0
DWIDTH 12 0
BBX 12 13 0 -2
BITMAP
0360
3b40
6ff0
c340
fbf0
3350
fff0
3350
dbf0
d340
3760
fd50
0000
ENDCHAR
STARTCHAR 0x337A
ENCODING 13178
SWIDTH 886 0
DWIDTH 12 0
BBX 12 13 0 -2
BITMAP
0300
0de0
f500
dff0
d360
d550
d330
dff0
d550
db70
f330
3ff0
0000
ENDCHAR
STARTCHAR 0x337B
ENCODING 13179
SWIDTH 886 0
DWIDTH 12 0
BBX 12 13 0 -2
BITMAP
00c0
0180
fde0
d560
d5e0
fd60
d5f0
d500
fdf0
3030
3550
3570
0000
ENDCHAR
STARTCHAR 0x337C
ENCODING 13180
SWIDTH 886 0
DWIDTH 12 0
BBX 12 13 0 -2
BITMAP
0000
37f0
3180
fb00
37f0
3630
7630
77f0
da30
d630
3630
37f0
0000
ENDCHAR
STARTCHAR 0x337D
ENCODING 13181
SWIDTH 886 0
DWIDTH 12 0
BBX 12 13 0 -2
BITMAP
1980
1980
fff0
1980
3fc0
0180
fff0
0730
0d60
3b00
e300
0f00
0000
ENDCHAR
STARTCHAR 0x337E
ENCODING 13182
SWIDTH 886 0
DWIDTH 12 0
BBX 12 13 0 -2
BITMAP
1980
1980
fff0
1980
0600
fff0
c030
dfd0
1980
1f80
1980
fff0
0000
ENDCHAR
STARTCHAR 0x3421
ENCODING 13345
SWIDTH 886 0
DWIDTH 12 0
BBX 12 13 0 -2
BITMAP
0000
f6f0
3ab0
3730
f6f0
dfc0
c6c0
f6f0
3730
3ab0
3630
e6e0
0000
ENDCHAR
STARTCHAR 0x3422
ENCODING 13346
SWIDTH 886 0
DWIDTH 12 0
BBX 12 13 0 -2
BITMAP
0000
0c30
0db0
cdb0
6db0
39b0
19b0
19b0
35b0
3630
6030
6070
0000
ENDCHAR
STARTCHAR 0x3423
ENCODING 13347
SWIDTH 886 0
DWIDTH 12 0
BBX 12 13 0 -2
BITMAP
1980
1980
fff0
1980
1830
69b0
39b0
19b0
35b0
36b0
6030
6070
0000
ENDCHAR
STARTCHAR 0x3424
ENCODING 13348
SWIDTH 886 0
DWIDTH 12 0
BBX 12 13 0 -2
BITMAP
0000
fff0
1800
1800
1f80
1980
1980
3580
3680
31b0
3fb0
e1f0
0000
ENDCHAR
STARTCHAR 0x3425
ENCODING 13349
SWIDTH 886 0
DWIDTH 12 0
BBX 12 13 0 -2
BITMAP
0300
3300
fdf0
3300
fe00
cdf0
fc60
ccc0
fd80
3330
fe30
33f0
0000
ENDCHAR
STARTCHAR 0x3426
ENCODING 13350
SWIDTH 886 0
DWIDTH 12 0
BBX 12 13 0 -2
BITMAP
0000
37f0
3430
6c30
6c30
eff0
6000
66a0
66a0
66a0
6da0
69b0
0000
ENDCHAR
STARTCHAR 0x3427
ENCODING 13351
SWIDTH 886 0
DWIDTH 12 0
BBX 12 13 0 -2
BITMAP
0000
fff0
c030
0060
f860
07f0
0060
fd60
69a0
6860
d830
cff0
0000
ENDCHAR
STARTCHAR 0x3428
ENCODING 13352
SWIDTH 886 0
DWIDTH 12 0
BBX 12 13 0 -2
BITMAP
0600
0600
fff0
d9b0
dfd0
1980
fff0
1980
36c0
e3b0
1c00
0780
0000
ENDCHAR
STARTCHAR 0x3429
ENCODING 13353
SWIDTH 886 0
DWIDTH 12 0
BBX 12 13 0 -2
BITMAP
0000
fe30
31b0
31b0
31b0
31b0
feb0
31b0
31b0
3030
3030
3070
0000
ENDCHAR
STARTCHAR 0x342A
ENCODING 13354
SWIDTH 886 0
DWIDTH 12 0
BBX 12 13 0 -2
BITMAP
0180
6d80
fd80
6ff0
7db0
6db0
6db0
feb0
d530
ef30
c060
fec0
0000
ENDCHAR
STARTCHAR 0x342B
ENCODING 13355
SWIDTH 886 0
DWIDTH 12 0
BBX 12 13 0 -2
BITMAP
6180
6180
7e80
d3f0
feb0
69b0
7eb0
e9b0
7f30
6b30
6860
7ec0
0000
ENDCHAR
STARTCHAR 0x342C
ENCODING 13356
SWIDTH 886 0
DWIDTH 12 0
BBX 12 13 0 -2
BITMAP
0c60
66c0
3180
7fe0
0d80
fff0
18c0
3fe0
e0d0
3fc0
3060
3fe0
0000
ENDCHAR
STARTCHAR 0x342D
ENCODING 13357
SWIDTH 886 0
DWIDTH 12 0
BBX 12 13 0 -2
BITMAP
0000
07e0
f4c0
dff0
d550
d550
d6f0
d5b0
dff0
d340
f660
1c30
0000
ENDCHAR
STARTCHAR 0x342E
ENCODING 13358
SWIDTH 886 0
DWIDTH 12 0
BBX 12 13 0 -2
BITMAP
0660
6660
6ff0
6660
f7e0
6660
6660
6ff0
6d40
6ef0
fc00
0ff0
0000
ENDCHAR
STARTCHAR 0x342F
ENCODING 13359
SWIDTH 886 0
DWIDTH 12 0
BBX 12 13 0 -2
BITMAP
0c00
0c00
7fe0
1980
3980
1f80
30c0
fff0
6d60
ed60
3de0
e730
0000
ENDCHAR
STARTCHAR 0x3430
ENCODING 13360
SWIDTH 886 0
DWIDTH 12 0
BBX 12 13 0 -2
BITMAP
0600
0600
fff0
c030
dfd0
0000
0000
7fe0
1b00
1b00
3330
e3f0
0000
ENDCHAR
STARTCHAR 0x3431
ENCODING 13361
SWIDTH 886 0
DWIDTH 12 0
BBX 12 13 0 -2
BITMAP
0600
0600
fff0
c030
dfb0
d1b0
3f80
3000
3fc0
30c0
30c0
3fc0
0000
ENDCHAR
STARTCHAR 0x3432
ENCODING 13362
SWIDTH 886 0
DWIDTH 12 0
BBX 12 13 0 -2
BITMAP
0600
0600
fff0
d9b0
7fe0
30c0
3fc0
30c0
3fc0
0d00
3b30
e3f0
0000
ENDCHAR
STARTCHAR 0x3433
ENCODING 13363
SWIDTH 886 0
DWIDTH 12 0
BBX 12 13 0 -2
BITMAP
0000
7fe0
0600
0600
0600
0600
fff0
0600
0600
0600
0600
0600
0000
ENDCHAR
STARTCHAR 0x3434
ENCODING 13364
SWIDTH 886 0
DWIDTH 12 0
BBX 12 13 0 -2
BITMAP
0000
31e0
fd30
3600
fdf0
ccc0
fcc0
ccc0
fdf0
30c0
fcc0
30c0
0000
ENDCHAR
STARTCHAR 0x3435
ENCODING 13365
SWIDTH 886 0
DWIDTH 12 0
BBX 12 13 0 -2
BITMAP
0600
0600
7fe0
6660
7fe0
0600
7fe0
6660
7fe0
1b00
6860
cfd0
0000
ENDCHAR
STARTCHAR 0x3436
ENCODING 13366
SWIDTH 886 0
DWIDTH 12 0
BBX 12 13 0 -2
BITMAP
0180
01b0
7ff0
6180
6ea0
6ac0
dea0
c330
0600
1b60
6830
cfc0
0000
ENDCHAR
STARTCHAR 0x3437
ENCODING 13367
SWIDTH 886 0
DWIDTH 12 0
BBX 12 13 0 -2
BITMAP
0000
37f0
35b0
3ff0
d5b0
d7f0
d430
d7f0
d430
37f0
3360
3630
0000
ENDCHAR
STARTCHAR 0x3438
ENCODING 13368
SWIDTH 886 0
DWIDTH 12 0
BBX 12 13 0 -2
BITMAP
00c0
30d0
37f0
34c0
d750
d560
d750
d5b0
3300
0da0
3430
67c0
0000
ENDCHAR
STARTCHAR 0x3439
ENCODING 13369
SWIDTH 886 0
DWIDTH 12 0
BBX 12 13 0 -2
BITMAP
0000
67e0
6cc0
fff0
6d50
6d50
6ef0
75b0
eff0
6340
6660
ec30
0000
ENDCHAR
STARTCHAR 0x343A
ENCODING 13370
SWIDTH 886 0
DWIDTH 12 0
BBX 12 13 0 -2
BITMAP
0180
fe80
19f0
feb0
6730
7e30
66d0
7ed0
6660
7e60
e6d0
07b0
0000
ENDCHAR
STARTCHAR 0x343B
ENCODING 13371
SWIDTH 886 0
DWIDTH 12 0
BBX 12 13 0 -2
BITMAP
0600
3630
3630
fff0
3630
3630
77f0
7630
da30
d630
3630
37f0
0000
ENDCHAR
STARTCHAR 0x343C
ENCODING 13372
SWIDTH 886 0
DWIDTH 12 0
BBX 12 13 0 -2
BITMAP
0000
37f0
3000
fbf0
3630
3630
77f0
7630
da30
d7f0
3000
37f0
0000
ENDCHAR
STARTCHAR 0x343D
ENCODING 13373
SWIDTH 886 0
DWIDTH 12 0
BBX 12 13 0 -2
BITMAP
0180
3180
37f0
fc30
37e0
3660
77e0
7600
dbf0
d630
3630
37f0
0000
ENDCHAR
STARTCHAR 0x343E
ENCODING 13374
SWIDTH 886 0
DWIDTH 12 0
BBX 12 13 0 -2
BITMAP
0300
3300
fff0
3350
fd50
0350
fcc0
00c0
fea0
31a0
d530
d630
0000
ENDCHAR
STARTCHAR 0x343F
ENCODING 13375
SWIDTH 886 0
DWIDTH 12 0
BBX 12 13 0 -2
BITMAP
6300
6300
7ff0
d350
ff50
6b50
7ec0
e8c0
7ea0
69a0
6b30
7e30
0000
ENDCHAR
STARTCHAR 0x3440
ENCODING 13376
SWIDTH 886 0
DWIDTH 12 0
BBX 12 13 0 -2
BITMAP
0000
0ff0
c180
6180
0180
c180
6ff0
0180
0180
3180
6180
c180
0000
ENDCHAR
STARTCHAR 0x3441
ENCODING 13377
SWIDTH 886 0
DWIDTH 12 0
BBX 12 13 0 -2
BITMAP
06c0
06c0
dff0
66c0
0ff0
cdb0
6ff0
0180
6ff0
6340
c660
dc30
0000
ENDCHAR
STARTCHAR 0x3442
ENCODING 13378
SWIDTH 886 0
DWIDTH 12 0
BBX 12 13 0 -2
BITMAP
0000
1f70
db50
6f70
1b50
df70
6830
1bd0
6ad0
6bd0
dad0
dbd0
0000
ENDCHAR
STARTCHAR 0x3443
ENCODING 13379
SWIDTH 886 0
DWIDTH 12 0
BBX 12 13 0 -2
BITMAP
0600
0600
c7f0
6d80
0ff0
c360
67f0
0ec0
07f0
36c0
66c0
c7f0
0000
ENDCHAR
STARTCHAR 0x3444
ENCODING 13380
SWIDTH 886 0
DWIDTH 12 0
BBX 12 13 0 -2
BITMAP
0000
0ff0
fd50
37f0
3000
37f0
fa60
37e0
31b0
3bc0
eea0
01b0
0000
ENDCHAR
STARTCHAR 0x3445
ENCODING 13381
SWIDTH 886 0
DWIDTH 12 0
BBX 12 13 0 -2
BITMAP
30c0
30c0
30c0
fff0
30c0
30c0
3fc0
30c0
30c0
30c0
30c0
3fc0
0000
ENDCHAR
STARTCHAR 0x3446
ENCODING 13382
SWIDTH 886 0
DWIDTH 12 0
BBX 12 13 0 -2
BITMAP
0300
fd00
d3f0
fe00
cc00
fde0
d000
d000
ffe0
6d60
6d60
fff0
0000
ENDCHAR
STARTCHAR 0x3447
ENCODING 13383
SWIDTH 886 0
DWIDTH 12 0
BBX 12 13 0 -2
BITMAP
0000
7ff0
0600
3fe0
0600
fff0
0c00
1fe0
3860
efe0
1860
1fe0
0000
ENDCHAR
STARTCHAR 0x3448
ENCODING 13384
SWIDTH 886 0
DWIDTH 12 0
BBX 12 13 0 -2
BITMAP
0300
6300
7df0
d6c0
0000
7fe0
0600
0600
fff0
0600
0600
0600
0000
ENDCHAR
STARTCHAR 0x3449
ENCODING 13385
SWIDTH 886 0
DWIDTH 12 0
BBX 12 13 0 -2
BITMAP
0300
6300
7df0
d6c0
0600
fff0
d9b0
dfb0
1800
1fc0
18c0
1fc0
0000
ENDCHAR
STARTCHAR 0x344A
ENCODING 13386
SWIDTH 886 0
DWIDTH 12 0
BBX 12 13 0 -2
BITMAP
6300
6300
7df0
d6c0
fdf0
cd30
fdf0
cf30
f9f0
dfb0
d9b0
dfb0
0000
ENDCHAR
STARTCHAR 0x344B
ENCODING 13387
SWIDTH 886 0
DWIDTH 12 0
BBX 12 13 0 -2
BITMAP
0000
37f0
66b0
c6a0
f7f0
3180
6ff0
fb00
37e0
d560
d1c0
3770
0000
ENDCHAR
STARTCHAR 0x344C
ENCODING 13388
SWIDTH 886 0
DWIDTH 12 0
BBX 12 13 0 -2
BITMAP
3000
3000
3fe0
6600
6600
0600
fff0
0600
0600
6660
6660
7fe0
0000
ENDCHAR
STARTCHAR 0x344D
ENCODING 13389
SWIDTH 886 0
DWIDTH 12 0
BBX 12 13 0 -2
BITMAP
0000
31e0
fd30
3600
fff0
cdb0
fed0
cdb0
fdb0
36d0
fdb0
33b0
0000
ENDCHAR
STARTCHAR 0x344E
ENCODING 13390
SWIDTH 886 0
DWIDTH 12 0
BBX 12 13 0 -2
BITMAP
0000
fbf0
d8c0
d8c0
f8c0
d8c0
dbf0
f8c0
d8c0
d8c0
d8c0
d8c0
0000
ENDCHAR
STARTCHAR 0x344F
ENCODING 13391
SWIDTH 886 0
DWIDTH 12 0
BBX 12 13 0 -2
BITMAP
30c0
6fc0
f540
d7f0
f580
d780
fd70
d300
f7f0
d550
d550
dff0
0000
ENDCHAR
STARTCHAR 0x3450
ENCODING 13392
SWIDTH 886 0
DWIDTH 12 0
BBX 12 13 0 -2
BITMAP
1980
1980
fff0
1980
fff0
c030
3fc0
0000
7fe0
0d00
3b30
e3f0
0000
ENDCHAR
STARTCHAR 0x3451
ENCODING 13393
SWIDTH 886 0
DWIDTH 12 0
BBX 12 13 0 -2
BITMAP
6000
63f0
7f30
d3f0
ff30
6bf0
7f30
ebf0
7da0
69a0
6b60
7e70
0000
ENDCHAR
STARTCHAR 0x3452
ENCODING 13394
SWIDTH 886 0
DWIDTH 12 0
BBX 12 13 0 -2
BITMAP
0180
f180
0ff0
f180
0ff0
f5b0
0ff0
0db0
f7f0
d380
d6a0
fdb0
0000
ENDCHAR
STARTCHAR 0x3453
ENCODING 13395
SWIDTH 886 0
DWIDTH 12 0
BBX 12 13 0 -2
BITMAP
0000
7fe0
6660
fff0
6660
7fe0
30c0
3fc0
30c0
3fc0
30c0
e070
0000
ENDCHAR
STARTCHAR 0x3454
ENCODING 13396
SWIDTH 886 0
DWIDTH 12 0
BBX 12 13 0 -2
BITMAP
0000
0ff0
6d50
37f0
0000
1ff0
f660
37e0
33b0
36a0
69b0
cff0
0000
ENDCHAR
STARTCHAR 0x3455
ENCODING 13397
SWIDTH 886 0
DWIDTH 12 0
BBX 12 13 0 -2
BITMAP
00c0
3fc0
6d40
cff0
fd80
3780
fd70
3300
d7f0
d550
3550
fff0
0000
ENDCHAR
STARTCHAR 0x3456
ENCODING 13398
SWIDTH 886 0
DWIDTH 12 0
BBX 12 13 0 -2
BITMAP
0000
fdf0
cd30
fdf0
cd30
fdf0
c030
dfb0
d9b0
dfb0
d9b0
dfb0
0000
ENDCHAR
STARTCHAR 0x3457
ENCODING 13399
SWIDTH 886 0
DWIDTH 12 0
BBX 12 13 0 -2
BITMAP
0000
fdf0
cd30
fdf0
cd30
fdf0
c630
dfd0
c630
cf30
dad0
c670
0000
ENDCHAR
STARTCHAR 0x3458
ENCODING 13400
SWIDTH 886 0
DWIDTH 12 0
BBX 12 13 0 -2
BITMAP
0000
fdf0
cd30
fdf0
cd30
fdf0
cd30
dfd0
c630
dfd0
cd30
d9b0
0000
ENDCHAR
STARTCHAR 0x3459
ENCODING 13401
SWIDTH 886 0
DWIDTH 12 0
BBX 12 13 0 -2
BITMAP
0000
f3e0
d660
d4c0
e3f0
d530
d530
d5f0
d530
ed30
cd30
cdf0
0000
ENDCHAR
STARTCHAR 0x345A
ENCODING 13402
SWIDTH 886 0
DWIDTH 12 0
BBX 12 13 0 -2
BITMAP
30c0
30c0
fbf0
31b0
fff0
cd30
fdf0
ccc0
fff0
36c0
fff0
30c0
0000
ENDCHAR
STARTCHAR 0x345B
ENCODING 13403
SWIDTH 886 0
DWIDTH 12 0
BBX 12 13 0 -2
BITMAP
0180
7980
c7f0
3630
fdf0
cd60
fde0
cd00
fdf0
d330
db30
f5f0
0000
ENDCHAR
STARTCHAR 0x345C
ENCODING 13404
SWIDTH 886 0
DWIDTH 12 0
BBX 12 13 0 -2
BITMAP
0180
3980
67f0
c630
fdf0
3360
fde0
3300
fdf0
cd30
cd30
fdf0
0000
ENDCHAR
STARTCHAR 0x345D
ENCODING 13405
SWIDTH 886 0
DWIDTH 12 0
BBX 12 13 0 -2
BITMAP
1800
1800
1800
ff80
1980
1980
6980
3980
1980
35b0
66b0
c0f0
0000
ENDCHAR
STARTCHAR 0x345E
ENCODING 13406
SWIDTH 886 0
DWIDTH 12 0
BBX 12 13 0 -2
BITMAP
0000
1f80
30c0
6fa0
c030
3fc0
0180
0300
3fc0
30c0
30c0
3fc0
0000
ENDCHAR
STARTCHAR 0x345F
ENCODING 13407
SWIDTH 886 0
DWIDTH 12 0
BBX 12 13 0 -2
BITMAP
0300
6330
7ff0
0000
7ff0
6000
6fe0
6300
6300
dff0
c300
0300
0000
ENDCHAR
STARTCHAR 0x3460
ENCODING 13408
SWIDTH 886 0
DWIDTH 12 0
BBX 12 13 0 -2
BITMAP
0600
6630
7ff0
3360
7ff0
6d80
7ff0
6a60
6ea0
6aa0
dec0
c770
0000
ENDCHAR
STARTCHAR 0x3461
ENCODING 13409
SWIDTH 886 0
DWIDTH 12 0
BBX 12 13 0 -2
BITMAP
0000
0ff0
f800
3000
3000
fff0
36c0
36c0
3ac0
e6c0
0cd0
38f0
0000
ENDCHAR
STARTCHAR 0x3462
ENCODING 13410
SWIDTH 886 0
DWIDTH 12 0
BBX 12 13 0 -2
BITMAP
0300
0300
7ff0
6c60
efe0
6000
6f70
eb50
6f70
6180
d9b0
dff0
0000
ENDCHAR
STARTCHAR 0x3463
ENCODING 13411
SWIDTH 886 0
DWIDTH 12 0
BBX 12 13 0 -2
BITMAP
0000
07f0
fa30
dbf0
fa30
da30
dbf0
fa80
dab0
dad0
fa60
07b0
0000
ENDCHAR
STARTCHAR 0x3464
ENCODING 13412
SWIDTH 886 0
DWIDTH 12 0
BBX 12 13 0 -2
BITMAP
0600
6660
6660
7fe0
0000
fff0
0c00
1800
3fe0
f060
3060
3fe0
0000
ENDCHAR
STARTCHAR 0x3465
ENCODING 13413
SWIDTH 886 0
DWIDTH 12 0
BBX 12 13 0 -2
BITMAP
0000
fef0
3600
da00
7600
dbf0
36a0
fda0
cda0
fda0
cd60
fd70
0000
ENDCHAR
STARTCHAR 0x3466
ENCODING 13414
SWIDTH 886 0
DWIDTH 12 0
BBX 12 13 0 -2
BITMAP
0000
7ff0
6d60
6bf0
7b40
6b40
6ff0
6860
dfe0
d860
1fe0
7070
0000
ENDCHAR
STARTCHAR 0x3467
ENCODING 13415
SWIDTH 886 0
DWIDTH 12 0
BBX 12 13 0 -2
BITMAP
0000
7ff0
6da0
6da0
6bf0
7b60
6bf0
6d60
6bf0
db60
db60
1bf0
0000
ENDCHAR
STARTCHAR 0x3468
ENCODING 13416
SWIDTH 886 0
DWIDTH 12 0
BBX 12 13 0 -2
BITMAP
0000
0ff0
f980
07f0
0630
fbf0
6a30
6bf0
6a30
dff0
c360
0e30
0000
ENDCHAR
STARTCHAR 0x3469
ENCODING 13417
SWIDTH 886 0
DWIDTH 12 0
BBX 12 13 0 -2
BITMAP
3000
37f0
fcc0
6df0
6d30
fff0
db30
f3f0
dd30
f3f0
1da0
f730
0000
ENDCHAR
STARTCHAR 0x346A
ENCODING 13418
SWIDTH 886 0
DWIDTH 12 0
BBX 12 13 0 -2
BITMAP
0000
fdf0
d8c0
fdf0
cd30
fdf0
cd30
fdf0
db30
6df0
d9a0
3b30
0000
ENDCHAR
STARTCHAR 0x346B
ENCODING 13419
SWIDTH 886 0
DWIDTH 12 0
BBX 12 13 0 -2
BITMAP
0000
0f00
1980
30c0
6660
c630
0600
37c0
3600
3600
3600
fff0
0000
ENDCHAR
STARTCHAR 0x346C
ENCODING 13420
SWIDTH 886 0
DWIDTH 12 0
BBX 12 13 0 -2
BITMAP
0180
3180
3ff0
6180
6180
efe0
6060
6660
6660
6340
63c0
6e70
0000
ENDCHAR
STARTCHAR 0x346D
ENCODING 13421
SWIDTH 886 0
DWIDTH 12 0
BBX 12 13 0 -2
BITMAP
0000
1f80
3180
6300
fff0
6000
6fc0
6cc0
6cc0
6dc0
cc30
cff0
0000
ENDCHAR
STARTCHAR 0x346E
ENCODING 13422
SWIDTH 886 0
DWIDTH 12 0
BBX 12 13 0 -2
BITMAP
0600
0600
fff0
0600
7fe0
30c0
3fc0
1980
fff0
30c0
30c0
3fc0
0000
ENDCHAR
STARTCHAR 0x346F
ENCODING 13423
SWIDTH 886 0
DWIDTH 12 0
BBX 12 13 0 -2
BITMAP
0000
7de0
6d60
6d60
7de0
0600
fff0
1980
fdf0
6d60
6d60
7de0
0000
ENDCHAR
STARTCHAR 0x3470
ENCODING 13424
SWIDTH 886 0
DWIDTH 12 0
BBX 12 13 0 -2
BITMAP
1980
1980
7fe0
1980
1f80
1980
fff0
1980
36c0
efb0
0600
7fe0
0000
ENDCHAR
STARTCHAR 0x3471
ENCODING 13425
SWIDTH 886 0
DWIDTH 12 0
BBX 12 13 0 -2
BITMAP
0600
0600
7fe0
0d00
1980
30c0
fff0
00c0
3ec0
36c0
3ec0
01c0
0000
ENDCHAR
STARTCHAR 0x3472
ENCODING 13426
SWIDTH 886 0
DWIDTH 12 0
BBX 12 13 0 -2
BITMAP
00c0
60c0
6ff0
f8c0
6bf0
6a30
6bf0
db60
f7f0
3a30
6630
67f0
0000
ENDCHAR
STARTCHAR 0x3473
ENCODING 13427
SWIDTH 886 0
DWIDTH 12 0
BBX 12 13 0 -2
BITMAP
0600
0600
fff0
c630
dfd0
0d00
1980
fff0
00c0
3ec0
36c0
3ec0
0000
ENDCHAR
STARTCHAR 0x3474
ENCODING 13428
SWIDTH 886 0
DWIDTH 12 0
BBX 12 13 0 -2
BITMAP
0180
3180
3ff0
3180
d180
d7e0
d060
d660
d660
fb40
03c0
1e70
0000
ENDCHAR
STARTCHAR 0x3475
ENCODING 13429
SWIDTH 886 0
DWIDTH 12 0
BBX 12 13 0 -2
BITMAP
0000
39e0
0f00
79c0
0660
fff0
1b00
3fe0
eb60
1b60
1b60
0300
0000
ENDCHAR
STARTCHAR 0x3476
ENCODING 13430
SWIDTH 886 0
DWIDTH 12 0
BBX 12 13 0 -2
BITMAP
0600
36c0
6aa0
36c0
66b0
7ef0
0600
fff0
3330
3360
69c0
6f70
0000
ENDCHAR
STARTCHAR 0x3477
ENCODING 13431
SWIDTH 886 0
DWIDTH 12 0
BBX 12 13 0 -2
BITMAP
0000
3fc0
00c0
00c0
3fc0
3000
3060
3fe0
0600
1b60
6830
cfc0
0000
ENDCHAR
STARTCHAR 0x3478
ENCODING 13432
SWIDTH 886 0
DWIDTH 12 0
BBX 12 13 0 -2
BITMAP
0000
6ff0
69b0
fff0
6db0
6ff0
6db0
75b0
eff0
6180
6ff0
e180
0000
ENDCHAR
STARTCHAR 0x3479
ENCODING 13433
SWIDTH 886 0
DWIDTH 12 0
BBX 12 13 0 -2
BITMAP
0000
37e0
3660
fa60
3660
3660
7660
7a60
d660
d660
3460
3870
0000
ENDCHAR
STARTCHAR 0x347A
ENCODING 13434
SWIDTH 886 0
DWIDTH 12 0
BBX 12 13 0 -2
BITMAP
0600
6600
6ff0
fa60
67f0
6660
7be0
6a60
dff0
d800
1b60
7630
0000
ENDCHAR
STARTCHAR 0x347B
ENCODING 13435
SWIDTH 886 0
DWIDTH 12 0
BBX 12 13 0 -2
BITMAP
0000
fbf0
db60
fb60
db60
dff0
f8c0
c0c0
d9c0
cd50
d6d0
ecf0
0000
ENDCHAR
STARTCHAR 0x347C
ENCODING 13436
SWIDTH 886 0
DWIDTH 12 0
BBX 12 13 0 -2
BITMAP
0000
6df0
feb0
6db0
7df0
6db0
7db0
6df0
feb0
01b0
6b30
cd70
0000
ENDCHAR
STARTCHAR 0x347D
ENCODING 13437
SWIDTH 886 0
DWIDTH 12 0
BBX 12 13 0 -2
BITMAP
0660
3660
37f0
fa60
37e0
3660
77e0
7660
d7f0
d000
3660
3430
0000
ENDCHAR
STARTCHAR 0x347E
ENCODING 13438
SWIDTH 886 0
DWIDTH 12 0
BBX 12 13 0 -2
BITMAP
0600
0600
fff0
18c0
7fe0
36c0
fff0
36c0
7fe0
0e80
3ac0
e670
0000
ENDCHAR
STARTCHAR 0x3521
ENCODING 13601
SWIDTH 886 0
DWIDTH 12 0
BBX 12 13 0 -2
BITMAP
0180
36b0
35a0
fad0
35a0
37f0
7180
77f0
d6c0
d750
3460
35d0
0000
ENDCHAR
STARTCHAR 0x3522
ENCODING 13602
SWIDTH 886 0
DWIDTH 12 0
BBX 12 13 0 -2
BITMAP
0000
37e0
d060
d7e0
d060
dff0
d1b0
d7f0
35a0
35a0
6de0
6180
0000
ENDCHAR
STARTCHAR 0x3523
ENCODING 13603
SWIDTH 886 0
DWIDTH 12 0
BBX 12 13 0 -2
BITMAP
3000
33e0
fd60
6b60
6b60
fe70
d400
6bf0
db30
6d60
d9c0
7770
0000
ENDCHAR
STARTCHAR 0x3524
ENCODING 13604
SWIDTH 886 0
DWIDTH 12 0
BBX 12 13 0 -2
BITMAP
3000
3000
3ff0
6000
6fc0
0000
7fe0
0060
3b60
0e60
1b30
71b0
0000
ENDCHAR
STARTCHAR 0x3525
ENCODING 13605
SWIDTH 886 0
DWIDTH 12 0
BBX 12 13 0 -2
BITMAP
0c00
0c00
cfe0
6800
1bc0
c000
6fe0
0060
0060
3060
6030
c030
0000
ENDCHAR
STARTCHAR 0x3526
ENCODING 13606
SWIDTH 886 0
DWIDTH 12 0
BBX 12 13 0 -2
BITMAP
0600
1ac0
36a0
6b40
36b0
fff0
0600
fff0
6ab0
7ea0
6ac0
7eb0
0000
ENDCHAR
STARTCHAR 0x3527
ENCODING 13607
SWIDTH 886 0
DWIDTH 12 0
BBX 12 13 0 -2
BITMAP
0000
30e0
3780
fa00
1a00
1bf0
3660
7660
da60
3460
3460
3060
0000
ENDCHAR
STARTCHAR 0x3528
ENCODING 13608
SWIDTH 886 0
DWIDTH 12 0
BBX 12 13 0 -2
BITMAP
0000
3fc0
0600
fff0
1a80
36c0
efa0
0330
0600
fff0
0600
1e00
0000
ENDCHAR
STARTCHAR 0x3529
ENCODING 13609
SWIDTH 886 0
DWIDTH 12 0
BBX 12 13 0 -2
BITMAP
0000
1d70
f1c0
3760
31b0
fbf0
3300
77f0
76b0
dab0
d6b0
3180
0000
ENDCHAR
STARTCHAR 0x352A
ENCODING 13610
SWIDTH 886 0
DWIDTH 12 0
BBX 12 13 0 -2
BITMAP
0000
37f0
6030
d830
f830
37f0
6600
fe00
3600
da30
d630
37f0
0000
ENDCHAR
STARTCHAR 0x352B
ENCODING 13611
SWIDTH 886 0
DWIDTH 12 0
BBX 12 13 0 -2
BITMAP
0680
3a80
6af0
dfb0
0630
3550
6ad0
ed50
6fa0
6660
6ad0
77b0
0000
ENDCHAR
STARTCHAR 0x352C
ENCODING 13612
SWIDTH 886 0
DWIDTH 12 0
BBX 12 13 0 -2
BITMAP
0000
37f0
3630
fbf0
3630
37f0
fe30
37f0
6b40
6b40
c6d0
dcf0
0000
ENDCHAR
STARTCHAR 0x352D
ENCODING 13613
SWIDTH 886 0
DWIDTH 12 0
BBX 12 13 0 -2
BITMAP
0000
fbf0
0030
f830
0030
fbf0
0600
0600
fa00
da30
da30
fbf0
0000
ENDCHAR
STARTCHAR 0x352E
ENCODING 13614
SWIDTH 886 0
DWIDTH 12 0
BBX 12 13 0 -2
BITMAP
0600
0600
7fe0
6660
7fe0
0600
fff0
30c0
3fc0
30c0
3fc0
e070
0000
ENDCHAR
STARTCHAR 0x352F
ENCODING 13615
SWIDTH 886 0
DWIDTH 12 0
BBX 12 13 0 -2
BITMAP
3000
33f0
fc30
3030
33f0
fd00
3300
3d30
d3f0
d000
f800
cff0
0000
ENDCHAR
STARTCHAR 0x3530
ENCODING 13616
SWIDTH 886 0
DWIDTH 12 0
BBX 12 13 0 -2
BITMAP
0180
3180
fd80
37e0
fda0
d5a0
fda0
d5a0
fd60
3360
fe60
3670
0000
ENDCHAR
STARTCHAR 0x3531
ENCODING 13617
SWIDTH 886 0
DWIDTH 12 0
BBX 12 13 0 -2
BITMAP
0000
37f0
35b0
d7f0
d6b0
37f0
feb0
6ab0
6bf0
6980
dff0
c180
0000
ENDCHAR
STARTCHAR 0x3532
ENCODING 13618
SWIDTH 886 0
DWIDTH 12 0
BBX 12 13 0 -2
BITMAP
0000
7be0
cd60
3360
fd60
cd60
fd60
cd60
fd60
db60
cd60
fa70
0000
ENDCHAR
STARTCHAR 0x3533
ENCODING 13619
SWIDTH 886 0
DWIDTH 12 0
BBX 12 13 0 -2
BITMAP
0180
f980
d7f0
fb40
d660
fc30
d7f0
f830
1bb0
eab0
1bb0
7070
0000
ENDCHAR
STARTCHAR 0x3534
ENCODING 13620
SWIDTH 886 0
DWIDTH 12 0
BBX 12 13 0 -2
BITMAP
0600
0c00
7fc0
6cc0
7fc0
6cc0
6cc0
7fc0
1aa0
1ae0
3630
e3f0
0000
ENDCHAR
STARTCHAR 0x3535
ENCODING 13621
SWIDTH 886 0
DWIDTH 12 0
BBX 12 13 0 -2
BITMAP
0000
3f80
6300
ffc0
6cc0
7fe0
6c60
ffe0
cc60
ffe0
cc30
07f0
0000
ENDCHAR
STARTCHAR 0x3536
ENCODING 13622
SWIDTH 886 0
DWIDTH 12 0
BBX 12 13 0 -2
BITMAP
0cc0
36c0
3180
6fc0
66c0
efe0
6860
7ff0
6030
6ab0
6ab0
60e0
0000
ENDCHAR
STARTCHAR 0x3537
ENCODING 13623
SWIDTH 886 0
DWIDTH 12 0
BBX 12 13 0 -2
BITMAP
0660
36c0
3ff0
6180
6ff0
e180
6ff0
6d80
7ff0
6db0
6ee0
6db0
0000
ENDCHAR
STARTCHAR 0x3538
ENCODING 13624
SWIDTH 886 0
DWIDTH 12 0
BBX 12 13 0 -2
BITMAP
0180
6180
6ff0
f980
6980
6fe0
6860
da60
f660
3b40
63c0
6e70
0000
ENDCHAR
STARTCHAR 0x3539
ENCODING 13625
SWIDTH 886 0
DWIDTH 12 0
BBX 12 13 0 -2
BITMAP
0600
0600
fff0
c030
dfd0
30c0
3fc0
30c0
3fc0
30c0
30c0
fff0
0000
ENDCHAR
STARTCHAR 0x353A
ENCODING 13626
SWIDTH 886 0
DWIDTH 12 0
BBX 12 13 0 -2
BITMAP
18c0
1f50
18d0
7f40
6bf0
7f40
68d0
6f50
daa0
db60
1ad0
7fb0
0000
ENDCHAR
STARTCHAR 0x353B
ENCODING 13627
SWIDTH 886 0
DWIDTH 12 0
BBX 12 13 0 -2
BITMAP
0180
6180
6ff0
f180
6180
6fe0
6060
7660
e660
6340
63c0
ee70
0000
ENDCHAR
STARTCHAR 0x353C
ENCODING 13628
SWIDTH 886 0
DWIDTH 12 0
BBX 12 13 0 -2
BITMAP
0000
6bf0
6e60
f8c0
6ff0
68d0
6f40
74c0
ef70
6d40
6b40
f3f0
0000
ENDCHAR
STARTCHAR 0x353D
ENCODING 13629
SWIDTH 886 0
DWIDTH 12 0
BBX 12 13 0 -2
BITMAP
0300
6d00
fdf0
6d50
7d50
6d50
7cc0
6cc0
fea0
01a0
6b30
ce30
0000
ENDCHAR
STARTCHAR 0x353E
ENCODING 13630
SWIDTH 886 0
DWIDTH 12 0
BBX 12 13 0 -2
BITMAP
0660
d6c0
d7f0
f980
d7f0
d180
37f0
3a80
f7f0
36d0
3760
36d0
0000
ENDCHAR
STARTCHAR 0x353F
ENCODING 13631
SWIDTH 886 0
DWIDTH 12 0
BBX 12 13 0 -2
BITMAP
0000
ddf0
f060
ccc0
fdf0
60d0
7d40
db40
ff70
1b40
3540
e7f0
0000
ENDCHAR
STARTCHAR 0x3540
ENCODING 13632
SWIDTH 886 0
DWIDTH 12 0
BBX 12 13 0 -2
BITMAP
0000
6070
67c0
fac0
1ac0
1ac0
37f0
6660
f660
6a60
66d0
6f30
0000
ENDCHAR
STARTCHAR 0x3541
ENCODING 13633
SWIDTH 886 0
DWIDTH 12 0
BBX 12 13 0 -2
BITMAP
18c0
1980
fff0
0600
7fe0
0600
fff0
3630
fff0
3360
fdc0
3770
0000
ENDCHAR
STARTCHAR 0x3542
ENCODING 13634
SWIDTH 886 0
DWIDTH 12 0
BBX 12 13 0 -2
BITMAP
0360
3340
37f0
fcc0
d5f0
d4c0
d7f0
fac0
37f0
36d0
3760
fad0
0000
ENDCHAR
STARTCHAR 0x3543
ENCODING 13635
SWIDTH 886 0
DWIDTH 12 0
BBX 12 13 0 -2
BITMAP
0180
f180
0ff0
f430
07e0
f660
07e0
0660
f7e0
d660
d660
f7f0
0000
ENDCHAR
STARTCHAR 0x3544
ENCODING 13636
SWIDTH 886 0
DWIDTH 12 0
BBX 12 13 0 -2
BITMAP
0660
f6c0
1ff0
f180
0ff0
f180
1ff0
0d80
fff0
d5b0
dee0
f5b0
0000
ENDCHAR
STARTCHAR 0x3545
ENCODING 13637
SWIDTH 886 0
DWIDTH 12 0
BBX 12 13 0 -2
BITMAP
0c00
6c00
6ff0
f830
6b50
6db0
6330
6ff0
f3b0
6d50
6b30
e0e0
0000
ENDCHAR
STARTCHAR 0x3546
ENCODING 13638
SWIDTH 886 0
DWIDTH 12 0
BBX 12 13 0 -2
BITMAP
1980
1980
fff0
1980
3ff0
6db0
d530
0c30
7fd0
1d30
35b0
6ce0
0000
ENDCHAR
STARTCHAR 0x3547
ENCODING 13639
SWIDTH 886 0
DWIDTH 12 0
BBX 12 13 0 -2
BITMAP
0600
6a00
fff0
6a30
7d50
3350
fd30
d7f0
fdb0
3750
fd30
30e0
0000
ENDCHAR
STARTCHAR 0x3548
ENCODING 13640
SWIDTH 886 0
DWIDTH 12 0
BBX 12 13 0 -2
BITMAP
0600
0600
fff0
0600
0600
7fe0
0000
0000
3fc0
30c0
30c0
3fc0
0000
ENDCHAR
STARTCHAR 0x3549
ENCODING 13641
SWIDTH 886 0
DWIDTH 12 0
BBX 12 13 0 -2
BITMAP
0600
0600
fbf0
dc00
d800
dbe0
d8c0
d980
db00
da30
fa30
03f0
0000
ENDCHAR
STARTCHAR 0x354A
ENCODING 13642
SWIDTH 886 0
DWIDTH 12 0
BBX 12 13 0 -2
BITMAP
0600
0600
f7f0
d6d0
d750
d6b0
d770
d180
dff0
d180
f740
1c70
0000
ENDCHAR
STARTCHAR 0x354B
ENCODING 13643
SWIDTH 886 0
DWIDTH 12 0
BBX 12 13 0 -2
BITMAP
00c0
30c0
37f0
f8c0
30c0
37f0
7000
7000
dbf0
d630
3630
37f0
0000
ENDCHAR
STARTCHAR 0x354C
ENCODING 13644
SWIDTH 886 0
DWIDTH 12 0
BBX 12 13 0 -2
BITMAP
0000
37e0
30c0
fff0
36b0
35a0
77f0
7550
d6f0
d5d0
3550
35d0
0000
ENDCHAR
STARTCHAR 0x354D
ENCODING 13645
SWIDTH 886 0
DWIDTH 12 0
BBX 12 13 0 -2
BITMAP
00c0
f8c0
07f0
f8c0
00c0
fbf0
0000
0000
fbf0
db30
db30
fbf0
0000
ENDCHAR
STARTCHAR 0x354E
ENCODING 13646
SWIDTH 886 0
DWIDTH 12 0
BBX 12 13 0 -2
BITMAP
0180
fd80
3180
31f0
3180
3180
7980
ebf0
6a30
6a30
6a30
7bf0
0000
ENDCHAR
STARTCHAR 0x354F
ENCODING 13647
SWIDTH 886 0
DWIDTH 12 0
BBX 12 13 0 -2
BITMAP
0600
3600
37f0
fcc0
34c0
30c0
70c0
77f0
d0c0
d0c0
30c0
30c0
0000
ENDCHAR
STARTCHAR 0x3550
ENCODING 13648
SWIDTH 886 0
DWIDTH 12 0
BBX 12 13 0 -2
BITMAP
0000
03e0
7e00
0600
fff0
36c0
6d60
39c0
e670
1a80
36c0
ee70
0000
ENDCHAR
STARTCHAR 0x3551
ENCODING 13649
SWIDTH 886 0
DWIDTH 12 0
BBX 12 13 0 -2
BITMAP
3000
33f0
fd30
3330
3330
3330
ff30
6330
6330
cd30
fd70
0d00
0000
ENDCHAR
STARTCHAR 0x3552
ENCODING 13650
SWIDTH 886 0
DWIDTH 12 0
BBX 12 13 0 -2
BITMAP
0600
0600
fff0
d8d0
d5b0
6700
1dc0
f070
3fc0
30c0
30c0
3fc0
0000
ENDCHAR
STARTCHAR 0x3553
ENCODING 13651
SWIDTH 886 0
DWIDTH 12 0
BBX 12 13 0 -2
BITMAP
0600
f6f0
d6d0
dfd0
f6d0
d6d0
dfd0
f6d0
d4d0
d570
d740
d0c0
0000
ENDCHAR
STARTCHAR 0x3554
ENCODING 13652
SWIDTH 886 0
DWIDTH 12 0
BBX 12 13 0 -2
BITMAP
0600
07e0
0600
7ff0
6630
6fc0
6630
6ff0
6800
dff0
d800
1ff0
0000
ENDCHAR
STARTCHAR 0x3555
ENCODING 13653
SWIDTH 886 0
DWIDTH 12 0
BBX 12 13 0 -2
BITMAP
0660
0360
c0c0
6ff0
0180
0db0
f5b0
37f0
3180
3180
6800
cff0
0000
ENDCHAR
STARTCHAR 0x3556
ENCODING 13654
SWIDTH 886 0
DWIDTH 12 0
BBX 12 13 0 -2
BITMAP
0000
01c0
3f00
3000
3000
3fe0
3180
3180
3180
3180
3180
fff0
0000
ENDCHAR
STARTCHAR 0x3557
ENCODING 13655
SWIDTH 886 0
DWIDTH 12 0
BBX 12 13 0 -2
BITMAP
1800
1800
1fc0
18c0
30c0
3180
0180
0300
0680
0cc0
3860
e030
0000
ENDCHAR
STARTCHAR 0x3558
ENCODING 13656
SWIDTH 886 0
DWIDTH 12 0
BBX 12 13 0 -2
BITMAP
0300
3300
3300
6fe0
6360
e360
6360
6360
6660
6660
6c30
7830
0000
ENDCHAR
STARTCHAR 0x3559
ENCODING 13657
SWIDTH 886 0
DWIDTH 12 0
BBX 12 13 0 -2
BITMAP
0180
3180
3180
6ff0
6180
e180
6380
66c0
6da0
69b0
6180
6180
0000
ENDCHAR
STARTCHAR 0x355A
ENCODING 13658
SWIDTH 886 0
DWIDTH 12 0
BBX 12 13 0 -2
BITMAP
0000
7fc0
18c0
1980
1b00
1be0
3060
3660
6340
61c0
0760
3c30
0000
ENDCHAR
STARTCHAR 0x355B
ENCODING 13659
SWIDTH 886 0
DWIDTH 12 0
BBX 12 13 0 -2
BITMAP
0000
1fe0
f660
d6c0
d680
d6e0
d460
d560
d9a0
d0c0
f3a0
0e30
0000
ENDCHAR
STARTCHAR 0x355C
ENCODING 13660
SWIDTH 886 0
DWIDTH 12 0
BBX 12 13 0 -2
BITMAP
0600
0600
fff0
c030
dfb0
d9b0
1f80
0c00
3fc0
30c0
30c0
3fc0
0000
ENDCHAR
STARTCHAR 0x355D
ENCODING 13661
SWIDTH 886 0
DWIDTH 12 0
BBX 12 13 0 -2
BITMAP
0000
3fe0
0060
0060
3fe0
3000
3000
3ff0
6030
6030
0060
03c0
0000
ENDCHAR
STARTCHAR 0x355E
ENCODING 13662
SWIDTH 886 0
DWIDTH 12 0
BBX 12 13 0 -2
BITMAP
0000
1f80
3300
7fe0
0060
3fe0
0060
3fe0
0600
1b60
6830
cfc0
0000
ENDCHAR
STARTCHAR 0x355F
ENCODING 13663
SWIDTH 886 0
DWIDTH 12 0
BBX 12 13 0 -2
BITMAP
3300
3300
35f0
fd60
3060
d660
75a0
31a0
74c0
d6c0
31a0
7730
0000
ENDCHAR
STARTCHAR 0x3560
ENCODING 13664
SWIDTH 886 0
DWIDTH 12 0
BBX 12 13 0 -2
BITMAP
0000
37f0
3300
fb00
3300
33f0
7330
7630
da30
d030
3060
33c0
0000
ENDCHAR
STARTCHAR 0x3561
ENCODING 13665
SWIDTH 886 0
DWIDTH 12 0
BBX 12 13 0 -2
BITMAP
0600
0660
0630
ffe0
0600
6660
3740
0680
0ec0
3a60
e630
0e00
0000
ENDCHAR
STARTCHAR 0x3562
ENCODING 13666
SWIDTH 886 0
DWIDTH 12 0
BBX 12 13 0 -2
BITMAP
0000
1fe0
c660
66c0
0680
c6e0
6c60
0d60
69a0
68c0
c3a0
ce30
0000
ENDCHAR
STARTCHAR 0x3563
ENCODING 13667
SWIDTH 886 0
DWIDTH 12 0
BBX 12 13 0 -2
BITMAP
0300
0300
c300
6ff0
0000
c660
6660
0660
06c0
36c0
60c0
dff0
0000
ENDCHAR
STARTCHAR 0x3564
ENCODING 13668
SWIDTH 886 0
DWIDTH 12 0
BBX 12 13 0 -2
BITMAP
0000
1fc0
7180
0700
1dc0
f070
0600
3660
66c0
0d00
39c0
e070
0000
ENDCHAR
STARTCHAR 0x3565
ENCODING 13669
SWIDTH 886 0
DWIDTH 12 0
BBX 12 13 0 -2
BITMAP
0180
01a0
f1b0
6fe0
6180
6db0
f6a0
6180
66c0
6da0
f9b0
0380
0000
ENDCHAR
STARTCHAR 0x3566
ENCODING 13670
SWIDTH 886 0
DWIDTH 12 0
BBX 12 13 0 -2
BITMAP
0600
0600
fff0
cd30
1b00
71e0
0c00
7f80
0d80
0db0
39b0
e0f0
0000
ENDCHAR
STARTCHAR 0x3567
ENCODING 13671
SWIDTH 886 0
DWIDTH 12 0
BBX 12 13 0 -2
BITMAP
0600
0600
fff0
cd30
7df0
6c30
7df0
6d00
fff0
3530
6c30
dde0
0000
ENDCHAR
STARTCHAR 0x3568
ENCODING 13672
SWIDTH 886 0
DWIDTH 12 0
BBX 12 13 0 -2
BITMAP
0300
6300
7df0
d6c0
0000
ffe0
3180
33e0
6c60
66c0
c3c0
de70
0000
ENDCHAR
STARTCHAR 0x3569
ENCODING 13673
SWIDTH 886 0
DWIDTH 12 0
BBX 12 13 0 -2
BITMAP
0000
37e0
6660
dac0
fa80
36e0
6c60
f560
39a0
d0c0
d3a0
3630
0000
ENDCHAR
STARTCHAR 0x356A
ENCODING 13674
SWIDTH 886 0
DWIDTH 12 0
BBX 12 13 0 -2
BITMAP
0000
3060
6360
db60
fb60
3360
6d60
fd70
33e0
d660
d060
3060
0000
ENDCHAR
STARTCHAR 0x356B
ENCODING 13675
SWIDTH 886 0
DWIDTH 12 0
BBX 12 13 0 -2
BITMAP
0000
31e0
6330
da00
f800
33f0
6c00
fc00
33f0
d530
d530
33f0
0000
ENDCHAR
STARTCHAR 0x356C
ENCODING 13676
SWIDTH 886 0
DWIDTH 12 0
BBX 12 13 0 -2
BITMAP
0000
6ff0
6c30
6c30
6c30
6c30
6ff0
6c30
6c30
6c30
6c30
6ff0
0000
ENDCHAR
STARTCHAR 0x356D
ENCODING 13677
SWIDTH 886 0
DWIDTH 12 0
BBX 12 13 0 -2
BITMAP
0600
6600
6600
7fe0
c600
c600
0600
fff0
0600
0600
0600
0600
0000
ENDCHAR
STARTCHAR 0x356E
ENCODING 13678
SWIDTH 886 0
DWIDTH 12 0
BBX 12 13 0 -2
BITMAP
0600
0600
7fe0
0600
0600
0600
fff0
0c00
0cc0
18c0
33a0
3e60
0000
ENDCHAR
STARTCHAR 0x356F
ENCODING 13679
SWIDTH 886 0
DWIDTH 12 0
BBX 12 13 0 -2
BITMAP
0000
7fe0
6060
7fe0
6300
7ff0
6300
6300
6fe0
d860
d860
1fe0
0000
ENDCHAR
STARTCHAR 0x3570
ENCODING 13680
SWIDTH 886 0
DWIDTH 12 0
BBX 12 13 0 -2
BITMAP
0000
7ff0
6000
6000
7fc0
60c0
60c0
7fc0
6000
6000
6000
7ff0
0000
ENDCHAR
STARTCHAR 0x3571
ENCODING 13681
SWIDTH 886 0
DWIDTH 12 0
BBX 12 13 0 -2
BITMAP
0000
6ff0
6c00
f400
6fe0
6c60
6c60
77e0
ec00
6c00
6c00
eff0
0000
ENDCHAR
STARTCHAR 0x3572
ENCODING 13682
SWIDTH 886 0
DWIDTH 12 0
BBX 12 13 0 -2
BITMAP
1800
69e0
6ea0
faa0
6aa0
6aa0
6aa0
7560
ed60
6c70
6a00
f3f0
0000
ENDCHAR
STARTCHAR 0x3573
ENCODING 13683
SWIDTH 886 0
DWIDTH 12 0
BBX 12 13 0 -2
BITMAP
0c60
36c0
1980
fff0
30c0
6fa0
c630
3fc0
0600
fff0
0600
1e00
0000
ENDCHAR
STARTCHAR 0x3574
ENCODING 13684
SWIDTH 886 0
DWIDTH 12 0
BBX 12 13 0 -2
BITMAP
0000
67f0
3600
c7e0
6660
1be0
3600
fff0
0e80
3ac0
e670
0600
0000
ENDCHAR
STARTCHAR 0x3575
ENCODING 13685
SWIDTH 886 0
DWIDTH 12 0
BBX 12 13 0 -2
BITMAP
0600
07e0
0600
7ff0
6c30
6fe0
6c00
6fe0
76b0
daa0
c680
3ff0
0000
ENDCHAR
STARTCHAR 0x3576
ENCODING 13686
SWIDTH 886 0
DWIDTH 12 0
BBX 12 13 0 -2
BITMAP
0300
fb00
03f0
fac0
06c0
f8c0
00c0
07f0
f8c0
d8c0
d8c0
f8c0
0000
ENDCHAR
STARTCHAR 0x3577
ENCODING 13687
SWIDTH 886 0
DWIDTH 12 0
BBX 12 13 0 -2
BITMAP
0000
fdf0
cd00
cd00
fdf0
3330
3330
ddf0
d300
d300
d300
fdf0
0000
ENDCHAR
STARTCHAR 0x3578
ENCODING 13688
SWIDTH 886 0
DWIDTH 12 0
BBX 12 13 0 -2
BITMAP
0000
3bf0
6e30
c7f0
fac0
37f0
fec0
36c0
d5f0
d530
3330
fdf0
0000
ENDCHAR
STARTCHAR 0x3579
ENCODING 13689
SWIDTH 886 0
DWIDTH 12 0
BBX 12 13 0 -2
BITMAP
0000
07e0
ccc0
6ff0
0db0
cff0
6db0
0db0
6ff0
6000
cd50
db50
0000
ENDCHAR
STARTCHAR 0x357A
ENCODING 13690
SWIDTH 886 0
DWIDTH 12 0
BBX 12 13 0 -2
BITMAP
1800
6ff0
dad0
3fd0
66d0
eaf0
6fc0
0000
fff0
0600
6660
ce30
0000
ENDCHAR
STARTCHAR 0x357B
ENCODING 13691
SWIDTH 886 0
DWIDTH 12 0
BBX 12 13 0 -2
BITMAP
0000
1fc0
3180
7fe0
e660
7fe0
6660
6660
7fe0
0000
6b60
cdb0
0000
ENDCHAR
STARTCHAR 0x357C
ENCODING 13692
SWIDTH 886 0
DWIDTH 12 0
BBX 12 13 0 -2
BITMAP
0600
0600
fff0
1980
1980
1f80
0000
fff0
0300
0600
0600
1e00
0000
ENDCHAR
STARTCHAR 0x357D
ENCODING 13693
SWIDTH 886 0
DWIDTH 12 0
BBX 12 13 0 -2
BITMAP
0600
0600
fff0
1980
1980
3fc0
0180
0300
fff0
0600
0600
1e00
0000
ENDCHAR
STARTCHAR 0x357E
ENCODING 13694
SWIDTH 886 0
DWIDTH 12 0
BBX 12 13 0 -2
BITMAP
0600
0600
fff0
0000
3fc0
30c0
30c0
3fc0
0600
6660
c630
1e00
0000
ENDCHAR
STARTCHAR 0x3621
ENCODING 13857
SWIDTH 886 0
DWIDTH 12 0
BBX 12 13 0 -2
BITMAP
06c0
36c0
36c0
6ff0
66c0
e6c0
66c0
6ff0
6000
66c0
6c60
6830
0000
ENDCHAR
STARTCHAR 0x3622
ENCODING 13858
SWIDTH 886 0
DWIDTH 12 0
BBX 12 13 0 -2
BITMAP
0180
3180
37f0
6180
6db0
e6a0
6180
6ff0
6180
6340
6660
6c30
0000
ENDCHAR
STARTCHAR 0x3623
ENCODING 13859
SWIDTH 886 0
DWIDTH 12 0
BBX 12 13 0 -2
BITMAP
0000
37f0
3300
6ff0
66c0
eee0
6bd0
7000
6ff0
6ad0
6bd0
6870
0000
ENDCHAR
STARTCHAR 0x3624
ENCODING 13860
SWIDTH 886 0
DWIDTH 12 0
BBX 12 13 0 -2
BITMAP
0000
69a0
6d60
6660
6d60
69a0
6060
7fe0
1b00
1b30
3330
e1f0
0000
ENDCHAR
STARTCHAR 0x3625
ENCODING 13861
SWIDTH 886 0
DWIDTH 12 0
BBX 12 13 0 -2
BITMAP
30c0
30c0
fdf0
69a0
fff0
0000
fdf0
cd30
fdf0
69a0
db60
de70
0000
ENDCHAR
STARTCHAR 0x3626
ENCODING 13862
SWIDTH 886 0
DWIDTH 12 0
BBX 12 13 0 -2
BITMAP
1980
1980
1980
7fe0
1980
1980
1980
fff0
0000
1980
30c0
6060
0000
ENDCHAR
STARTCHAR 0x3627
ENCODING 13863
SWIDTH 886 0
DWIDTH 12 0
BBX 12 13 0 -2
BITMAP
0000
c030
d0d0
d9b0
cd30
c630
cd30
d9b0
d0d0
c030
c030
fff0
0000
ENDCHAR
STARTCHAR 0x3628
ENCODING 13864
SWIDTH 886 0
DWIDTH 12 0
BBX 12 13 0 -2
BITMAP
0300
6300
6fe0
6360
fb60
6660
6ff0
6d50
6d50
6d50
6bb0
6b70
0000
ENDCHAR
STARTCHAR 0x3629
ENCODING 13865
SWIDTH 886 0
DWIDTH 12 0
BBX 12 13 0 -2
BITMAP
0000
fff0
c000
dff0
c300
c300
dfe0
c300
c300
dff0
c000
fff0
0000
ENDCHAR
STARTCHAR 0x362A
ENCODING 13866
SWIDTH 886 0
DWIDTH 12 0
BBX 12 13 0 -2
BITMAP
0000
3f70
ed50
cf50
d550
d550
d750
d4d0
f550
3570
6f40
6340
0000
ENDCHAR
STARTCHAR 0x362B
ENCODING 13867
SWIDTH 886 0
DWIDTH 12 0
BBX 12 13 0 -2
BITMAP
0000
0060
fb60
db60
db60
db60
db60
db70
dbe0
de60
f860
0060
0000
ENDCHAR
STARTCHAR 0x362C
ENCODING 13868
SWIDTH 886 0
DWIDTH 12 0
BBX 12 13 0 -2
BITMAP
0000
7fe0
0600
fff0
19c0
39a0
efb0
0000
7fe0
69a0
6fa0
60e0
0000
ENDCHAR
STARTCHAR 0x362D
ENCODING 13869
SWIDTH 886 0
DWIDTH 12 0
BBX 12 13 0 -2
BITMAP
0300
6300
6ff0
66c0
f6c0
6ff0
6c60
6fe0
6c60
6fe0
f6c0
1cf0
0000
ENDCHAR
STARTCHAR 0x362E
ENCODING 13870
SWIDTH 886 0
DWIDTH 12 0
BBX 12 13 0 -2
BITMAP
0180
3180
3ff0
3180
d5b0
d6a0
d180
dff0
d180
d340
f660
1c30
0000
ENDCHAR
STARTCHAR 0x362F
ENCODING 13871
SWIDTH 886 0
DWIDTH 12 0
BBX 12 13 0 -2
BITMAP
0300
f600
3430
37f0
f180
cff0
cdb0
f5b0
37f0
3180
31b0
eff0
0000
ENDCHAR
STARTCHAR 0x3630
ENCODING 13872
SWIDTH 886 0
DWIDTH 12 0
BBX 12 13 0 -2
BITMAP
0000
f7f0
36b0
37f0
f6b0
c7f0
c000
f7f0
36b0
37f0
36b0
eff0
0000
ENDCHAR
STARTCHAR 0x3631
ENCODING 13873
SWIDTH 886 0
DWIDTH 12 0
BBX 12 13 0 -2
BITMAP
0180
3180
37f0
3180
d180
d180
d7f0
d300
d360
3660
34d0
37b0
0000
ENDCHAR
STARTCHAR 0x3632
ENCODING 13874
SWIDTH 886 0
DWIDTH 12 0
BBX 12 13 0 -2
BITMAP
0000
fbe0
3660
3760
36a0
3a60
e070
0600
1b00
1860
6830
cfc0
0000
ENDCHAR
STARTCHAR 0x3633
ENCODING 13875
SWIDTH 886 0
DWIDTH 12 0
BBX 12 13 0 -2
BITMAP
1980
1980
7fe0
1980
1980
fff0
30c0
6660
da30
36a0
66a0
0e00
0000
ENDCHAR
STARTCHAR 0x3634
ENCODING 13876
SWIDTH 886 0
DWIDTH 12 0
BBX 12 13 0 -2
BITMAP
0180
6180
6ff0
f180
6db0
66a0
6180
77f0
e180
6340
6660
ec30
0000
ENDCHAR
STARTCHAR 0x3635
ENCODING 13877
SWIDTH 886 0
DWIDTH 12 0
BBX 12 13 0 -2
BITMAP
3180
3680
fef0
3560
3560
fe60
61a0
dda0
0cc0
fec0
19a0
3b30
0000
ENDCHAR
STARTCHAR 0x3636
ENCODING 13878
SWIDTH 886 0
DWIDTH 12 0
BBX 12 13 0 -2
BITMAP
0000
37f0
3180
fff0
36c0
36e0
7bd0
7000
d7f0
d550
35d0
3470
0000
ENDCHAR
STARTCHAR 0x3637
ENCODING 13879
SWIDTH 886 0
DWIDTH 12 0
BBX 12 13 0 -2
BITMAP
0000
0ff0
cc30
6c30
0c30
cff0
6340
0340
6340
6350
c6d0
dcf0
0000
ENDCHAR
STARTCHAR 0x3638
ENCODING 13880
SWIDTH 886 0
DWIDTH 12 0
BBX 12 13 0 -2
BITMAP
0000
37f0
d180
6180
6180
d180
37f0
7180
d180
3180
3180
eff0
0000
ENDCHAR
STARTCHAR 0x3639
ENCODING 13881
SWIDTH 886 0
DWIDTH 12 0
BBX 12 13 0 -2
BITMAP
0180
3180
d7f0
6180
6db0
d6a0
3180
77f0
d180
3340
3660
ec30
0000
ENDCHAR
STARTCHAR 0x363A
ENCODING 13882
SWIDTH 886 0
DWIDTH 12 0
BBX 12 13 0 -2
BITMAP
0000
cff0
f980
d7f0
36c0
f6e0
3bd0
3000
6ff0
6ad0
dbd0
d870
0000
ENDCHAR
STARTCHAR 0x363B
ENCODING 13883
SWIDTH 886 0
DWIDTH 12 0
BBX 12 13 0 -2
BITMAP
0c00
f400
d7f0
d9b0
f530
d6d0
d550
f9d0
d0d0
dfd0
d030
d0e0
0000
ENDCHAR
STARTCHAR 0x363C
ENCODING 13884
SWIDTH 886 0
DWIDTH 12 0
BBX 12 13 0 -2
BITMAP
0600
3fc0
0cc0
18c0
fdf0
35b0
6d70
dfe0
3060
3fe0
3060
30e0
0000
ENDCHAR
STARTCHAR 0x363D
ENCODING 13885
SWIDTH 886 0
DWIDTH 12 0
BBX 12 13 0 -2
BITMAP
0000
efb0
d9b0
fff0
d9b0
fbf0
dab0
dab0
fff0
0000
6060
c030
0000
ENDCHAR
STARTCHAR 0x363E
ENCODING 13886
SWIDTH 886 0
DWIDTH 12 0
BBX 12 13 0 -2
BITMAP
1980
1980
fff0
0600
fff0
1980
3fa0
e030
7fe0
69a0
6fa0
60e0
0000
ENDCHAR
STARTCHAR 0x363F
ENCODING 13887
SWIDTH 886 0
DWIDTH 12 0
BBX 12 13 0 -2
BITMAP
0000
3770
6d50
cf50
f550
3560
6f50
ccd0
f550
3560
6f40
6340
0000
ENDCHAR
STARTCHAR 0x3640
ENCODING 13888
SWIDTH 886 0
DWIDTH 12 0
BBX 12 13 0 -2
BITMAP
0180
3980
6ff0
c360
fb60
37f0
fe60
37e0
da60
d7e0
3340
fef0
0000
ENDCHAR
STARTCHAR 0x3641
ENCODING 13889
SWIDTH 886 0
DWIDTH 12 0
BBX 12 13 0 -2
BITMAP
0000
6f70
d550
6f60
d550
f6f0
36c0
7fe0
1980
fff0
30c0
3fc0
0000
ENDCHAR
STARTCHAR 0x3642
ENCODING 13890
SWIDTH 886 0
DWIDTH 12 0
BBX 12 13 0 -2
BITMAP
0000
6f70
d550
6f60
d550
f6f0
36c0
7fe0
d0d0
3fc0
3360
fdf0
0000
ENDCHAR
STARTCHAR 0x3643
ENCODING 13891
SWIDTH 886 0
DWIDTH 12 0
BBX 12 13 0 -2
BITMAP
0300
6b00
fff0
6aa0
7ac0
0d70
7fe0
6600
7ff0
0030
6ab0
dab0
0000
ENDCHAR
STARTCHAR 0x3644
ENCODING 13892
SWIDTH 886 0
DWIDTH 12 0
BBX 12 13 0 -2
BITMAP
0000
3380
36f0
6db0
6db0
edb0
6db0
6db0
6db0
6db0
6eb0
6180
0000
ENDCHAR
STARTCHAR 0x3645
ENCODING 13893
SWIDTH 886 0
DWIDTH 12 0
BBX 12 13 0 -2
BITMAP
0000
1bf0
de60
68c0
0ff0
18d0
1f40
0cc0
6f70
6d40
db40
d3f0
0000
ENDCHAR
STARTCHAR 0x3646
ENCODING 13894
SWIDTH 886 0
DWIDTH 12 0
BBX 12 13 0 -2
BITMAP
0600
0600
7fe0
0600
1a80
fff0
1980
1980
7fe0
0d00
3b30
e1f0
0000
ENDCHAR
STARTCHAR 0x3647
ENCODING 13895
SWIDTH 886 0
DWIDTH 12 0
BBX 12 13 0 -2
BITMAP
0180
0180
f7f0
d180
d6a0
dff0
f660
d660
d7f0
d340
f6d0
1cf0
0000
ENDCHAR
STARTCHAR 0x3648
ENCODING 13896
SWIDTH 886 0
DWIDTH 12 0
BBX 12 13 0 -2
BITMAP
0d00
3560
3540
fff0
1980
1980
7fe0
0600
fff0
0e80
3ac0
e670
0000
ENDCHAR
STARTCHAR 0x3649
ENCODING 13897
SWIDTH 886 0
DWIDTH 12 0
BBX 12 13 0 -2
BITMAP
0000
7fe0
6060
7fe0
6000
7ff0
6030
6fb0
69b0
69b0
dfb0
c0e0
0000
ENDCHAR
STARTCHAR 0x364A
ENCODING 13898
SWIDTH 886 0
DWIDTH 12 0
BBX 12 13 0 -2
BITMAP
0d80
0d80
0d80
7ff0
6db0
6db0
6db0
7ff0
6db0
6db0
6db0
7ff0
0000
ENDCHAR
STARTCHAR 0x364B
ENCODING 13899
SWIDTH 886 0
DWIDTH 12 0
BBX 12 13 0 -2
BITMAP
0000
37f0
3600
fb70
3330
3750
7550
7560
d760
d3b0
3600
37f0
0000
ENDCHAR
STARTCHAR 0x364C
ENCODING 13900
SWIDTH 886 0
DWIDTH 12 0
BBX 12 13 0 -2
BITMAP
0000
fff0
0600
0600
0600
0600
7fe0
0600
0660
0630
0600
fff0
0000
ENDCHAR
STARTCHAR 0x364D
ENCODING 13901
SWIDTH 886 0
DWIDTH 12 0
BBX 12 13 0 -2
BITMAP
0000
37f0
3430
fc30
35d0
3430
75d0
7550
d550
d5d0
3430
3470
0000
ENDCHAR
STARTCHAR 0x364E
ENCODING 13902
SWIDTH 886 0
DWIDTH 12 0
BBX 12 13 0 -2
BITMAP
0000
30e0
d780
d180
3180
f980
37f0
7180
7980
d180
d180
3180
0000
ENDCHAR
STARTCHAR 0x364F
ENCODING 13903
SWIDTH 886 0
DWIDTH 12 0
BBX 12 13 0 -2
BITMAP
06c0
36c0
3ff0
66c0
6ff0
edb0
6db0
6ff0
6180
6ff0
6180
6ff0
0000
ENDCHAR
STARTCHAR 0x3650
ENCODING 13904
SWIDTH 886 0
DWIDTH 12 0
BBX 12 13 0 -2
BITMAP
0180
6980
fd80
6bf0
fdb0
d5b0
d5b0
fdb0
3330
fd30
3060
fdc0
0000
ENDCHAR
STARTCHAR 0x3651
ENCODING 13905
SWIDTH 886 0
DWIDTH 12 0
BBX 12 13 0 -2
BITMAP
0600
6600
67f0
6c30
f430
67b0
6030
61d0
6f30
6030
f060
01c0
0000
ENDCHAR
STARTCHAR 0x3652
ENCODING 13906
SWIDTH 886 0
DWIDTH 12 0
BBX 12 13 0 -2
BITMAP
0600
0600
0600
fff0
c630
c630
c630
c630
c630
c6f0
0600
0600
0000
ENDCHAR
STARTCHAR 0x3653
ENCODING 13907
SWIDTH 886 0
DWIDTH 12 0
BBX 12 13 0 -2
BITMAP
00c0
3980
67f0
c630
fbf0
3630
fbf0
3180
dbf0
d6b0
36b0
feb0
0000
ENDCHAR
STARTCHAR 0x3654
ENCODING 13908
SWIDTH 886 0
DWIDTH 12 0
BBX 12 13 0 -2
BITMAP
0000
01e0
7f00
6000
6000
7ff0
6180
6180
6180
c180
c180
0180
0000
ENDCHAR
STARTCHAR 0x3655
ENCODING 13909
SWIDTH 886 0
DWIDTH 12 0
BBX 12 13 0 -2
BITMAP
0300
1d00
73f0
6350
6350
7f50
6cc0
6cc0
6da0
cda0
cd30
0e30
0000
ENDCHAR
STARTCHAR 0x3656
ENCODING 13910
SWIDTH 886 0
DWIDTH 12 0
BBX 12 13 0 -2
BITMAP
0300
3b00
6df0
c350
fd50
3350
fcc0
30c0
d5a0
d5a0
3330
fe30
0000
ENDCHAR
STARTCHAR 0x3657
ENCODING 13911
SWIDTH 886 0
DWIDTH 12 0
BBX 12 13 0 -2
BITMAP
0000
fdf0
30c0
7de0
30c0
fff0
1980
3740
6070
dfc0
00c0
0180
0000
ENDCHAR
STARTCHAR 0x3658
ENCODING 13912
SWIDTH 886 0
DWIDTH 12 0
BBX 12 13 0 -2
BITMAP
30c0
30c0
fdf0
31c0
7b60
d6d0
3fc0
0000
fff0
0600
6660
ce30
0000
ENDCHAR
STARTCHAR 0x3659
ENCODING 13913
SWIDTH 886 0
DWIDTH 12 0
BBX 12 13 0 -2
BITMAP
0000
1f80
36c0
7fe0
cd30
36c0
3540
34c0
fff0
cdb0
dfb0
c070
0000
ENDCHAR
STARTCHAR 0x365A
ENCODING 13914
SWIDTH 886 0
DWIDTH 12 0
BBX 12 13 0 -2
BITMAP
0300
6300
7df0
d680
7d80
6ff0
7db0
6db0
7db0
6d30
cd30
dce0
0000
ENDCHAR
STARTCHAR 0x365B
ENCODING 13915
SWIDTH 886 0
DWIDTH 12 0
BBX 12 13 0 -2
BITMAP
0000
fdf0
d030
fda0
cdc0
ff70
cd80
1b60
fff0
0600
36c0
e670
0000
ENDCHAR
STARTCHAR 0x365C
ENCODING 13916
SWIDTH 886 0
DWIDTH 12 0
BBX 12 13 0 -2
BITMAP
1980
1980
fff0
1980
03e0
7e00
6000
7ff0
6180
c180
c180
0180
0000
ENDCHAR
STARTCHAR 0x365D
ENCODING 13917
SWIDTH 886 0
DWIDTH 12 0
BBX 12 13 0 -2
BITMAP
1980
1980
fff0
1980
fff0
c630
dfd0
c630
ceb0
dad0
c630
fff0
0000
ENDCHAR
STARTCHAR 0x365E
ENCODING 13918
SWIDTH 886 0
DWIDTH 12 0
BBX 12 13 0 -2
BITMAP
0000
33e0
3630
fc00
1bf0
1800
3000
77f0
d830
3430
3060
31c0
0000
ENDCHAR
STARTCHAR 0x365F
ENCODING 13919
SWIDTH 886 0
DWIDTH 12 0
BBX 12 13 0 -2
BITMAP
0660
6660
6ff0
f6e0
36b0
3660
6fe0
7000
eff0
6180
6da0
6bb0
0000
ENDCHAR
STARTCHAR 0x3660
ENCODING 13920
SWIDTH 886 0
DWIDTH 12 0
BBX 12 13 0 -2
BITMAP
0360
f360
0ff0
f360
0ff0
f5b0
0db0
0ff0
f180
d7f0
d180
f7f0
0000
ENDCHAR
STARTCHAR 0x3661
ENCODING 13921
SWIDTH 886 0
DWIDTH 12 0
BBX 12 13 0 -2
BITMAP
0000
00e0
6780
3600
0600
07f0
f6c0
34c0
34c0
30c0
6800
cff0
0000
ENDCHAR
STARTCHAR 0x3662
ENCODING 13922
SWIDTH 886 0
DWIDTH 12 0
BBX 12 13 0 -2
BITMAP
0000
0f00
1980
30c0
6fa0
c630
0600
7fe0
0600
6660
36c0
fff0
0000
ENDCHAR
STARTCHAR 0x3663
ENCODING 13923
SWIDTH 886 0
DWIDTH 12 0
BBX 12 13 0 -2
BITMAP
0000
03e0
fa30
dc00
dbf0
d800
d800
dbf0
d830
d830
f860
01c0
0000
ENDCHAR
STARTCHAR 0x3664
ENCODING 13924
SWIDTH 886 0
DWIDTH 12 0
BBX 12 13 0 -2
BITMAP
0000
3bf0
6d30
c3f0
fd30
3330
fdf0
3340
d550
d550
3360
fdb0
0000
ENDCHAR
STARTCHAR 0x3665
ENCODING 13925
SWIDTH 886 0
DWIDTH 12 0
BBX 12 13 0 -2
BITMAP
0c00
0c00
0c00
ff80
0d80
0d80
0d80
0d80
1980
19b0
31b0
e0f0
0000
ENDCHAR
STARTCHAR 0x3666
ENCODING 13926
SWIDTH 886 0
DWIDTH 12 0
BBX 12 13 0 -2
BITMAP
0000
37e0
3460
6fe0
6c60
efe0
6c60
6c60
6ff0
6000
6c60
6830
0000
ENDCHAR
STARTCHAR 0x3667
ENCODING 13927
SWIDTH 886 0
DWIDTH 12 0
BBX 12 13 0 -2
BITMAP
3000
3000
3ff0
6030
6030
df30
db30
1b30
1b30
1f30
0060
01c0
0000
ENDCHAR
STARTCHAR 0x3668
ENCODING 13928
SWIDTH 886 0
DWIDTH 12 0
BBX 12 13 0 -2
BITMAP
0000
fff0
c000
d860
ccc0
c680
c300
c680
ccc0
d860
c000
fff0
0000
ENDCHAR
STARTCHAR 0x3669
ENCODING 13929
SWIDTH 886 0
DWIDTH 12 0
BBX 12 13 0 -2
BITMAP
0600
3600
d7f0
6c30
6c30
d7b0
36b0
76b0
d7b0
3030
3060
e1c0
0000
ENDCHAR
STARTCHAR 0x366A
ENCODING 13930
SWIDTH 886 0
DWIDTH 12 0
BBX 12 13 0 -2
BITMAP
0600
0600
fbe0
6660
6660
f460
6cc0
60c0
6180
f340
0e60
3830
0000
ENDCHAR
STARTCHAR 0x366B
ENCODING 13931
SWIDTH 886 0
DWIDTH 12 0
BBX 12 13 0 -2
BITMAP
0000
c7f0
fe00
d600
37f0
fe30
3630
37f0
6a00
6e00
c600
c7f0
0000
ENDCHAR
STARTCHAR 0x366C
ENCODING 13932
SWIDTH 886 0
DWIDTH 12 0
BBX 12 13 0 -2
BITMAP
1980
1980
fff0
1980
0600
fff0
0600
0600
7fe0
6060
6060
7fe0
0000
ENDCHAR
STARTCHAR 0x366D
ENCODING 13933
SWIDTH 886 0
DWIDTH 12 0
BBX 12 13 0 -2
BITMAP
3000
63f0
fd00
cd50
fd50
cd60
fd60
cf50
fd50
35b0
6d00
ddf0
0000
ENDCHAR
STARTCHAR 0x366E
ENCODING 13934
SWIDTH 886 0
DWIDTH 12 0
BBX 12 13 0 -2
BITMAP
0000
fdf0
d300
fd50
d350
fd60
d360
fd50
0d50
d5b0
0d00
3bf0
0000
ENDCHAR
STARTCHAR 0x366F
ENCODING 13935
SWIDTH 886 0
DWIDTH 12 0
BBX 12 13 0 -2
BITMAP
0000
fce0
d380
fd00
d300
fdf0
d360
fd60
0d60
d560
0d60
3bf0
0000
ENDCHAR
STARTCHAR 0x3670
ENCODING 13936
SWIDTH 886 0
DWIDTH 12 0
BBX 12 13 0 -2
BITMAP
0300
fd00
d3f0
fa30
d630
fbd0
d350
fd50
0dd0
d430
0c60
39c0
0000
ENDCHAR
STARTCHAR 0x3671
ENCODING 13937
SWIDTH 886 0
DWIDTH 12 0
BBX 12 13 0 -2
BITMAP
0000
3fc0
30c0
3fc0
30c0
3fc0
30c0
30c0
fff0
0000
39c0
e070
0000
ENDCHAR
STARTCHAR 0x3672
ENCODING 13938
SWIDTH 886 0
DWIDTH 12 0
BBX 12 13 0 -2
BITMAP
0000
3fc0
36c0
3fc0
36c0
fff0
c630
dfb0
0600
1b60
6830
cfc0
0000
ENDCHAR
STARTCHAR 0x3673
ENCODING 13939
SWIDTH 886 0
DWIDTH 12 0
BBX 12 13 0 -2
BITMAP
07c0
0600
7ff0
6630
6fe0
66c0
6ac0
6ff0
6030
dff0
ccc0
3870
0000
ENDCHAR
STARTCHAR 0x3674
ENCODING 13940
SWIDTH 886 0
DWIDTH 12 0
BBX 12 13 0 -2
BITMAP
0000
07c0
f460
d9b0
d7e0
d460
d7e0
d460
d7e0
d5b0
f4c0
0f70
0000
ENDCHAR
STARTCHAR 0x3675
ENCODING 13941
SWIDTH 886 0
DWIDTH 12 0
BBX 12 13 0 -2
BITMAP
0600
0600
fff0
cd30
cd30
1b00
73e0
0000
3fc0
0600
0600
fff0
0000
ENDCHAR
STARTCHAR 0x3676
ENCODING 13942
SWIDTH 886 0
DWIDTH 12 0
BBX 12 13 0 -2
BITMAP
0000
37f0
35b0
6ff0
6db0
eff0
6180
6ff0
6d30
6d50
6fd0
6c70
0000
ENDCHAR
STARTCHAR 0x3677
ENCODING 13943
SWIDTH 886 0
DWIDTH 12 0
BBX 12 13 0 -2
BITMAP
0600
0600
fff0
d6d0
3fc0
36c0
3fc0
0600
fff0
c6d0
dfd0
c070
0000
ENDCHAR
STARTCHAR 0x3678
ENCODING 13944
SWIDTH 886 0
DWIDTH 12 0
BBX 12 13 0 -2
BITMAP
0000
0ff0
6db0
37f0
0db0
0ff0
f180
37f0
35b0
35d0
6800
cff0
0000
ENDCHAR
STARTCHAR 0x3679
ENCODING 13945
SWIDTH 886 0
DWIDTH 12 0
BBX 12 13 0 -2
BITMAP
0000
f7f0
d5b0
d7f0
edb0
d7f0
d180
d7f0
d530
ed50
cfd0
cc70
0000
ENDCHAR
STARTCHAR 0x367A
ENCODING 13946
SWIDTH 886 0
DWIDTH 12 0
BBX 12 13 0 -2
BITMAP
0600
0600
7fe0
6660
6660
7fe0
0600
fff0
c630
fff0
0600
0600
0000
ENDCHAR
STARTCHAR 0x367B
ENCODING 13947
SWIDTH 886 0
DWIDTH 12 0
BBX 12 13 0 -2
BITMAP
0180
3580
37f0
faa0
3770
3550
7750
7550
d750
d4d0
3570
3740
0000
ENDCHAR
STARTCHAR 0x367C
ENCODING 13948
SWIDTH 886 0
DWIDTH 12 0
BBX 12 13 0 -2
BITMAP
0000
3b30
6d50
c350
fd50
3350
fd50
3350
db50
d350
3630
fa30
0000
ENDCHAR
STARTCHAR 0x367D
ENCODING 13949
SWIDTH 886 0
DWIDTH 12 0
BBX 12 13 0 -2
BITMAP
0000
7ff0
6030
7ff0
6b60
6d40
6ff0
6830
6ff0
d830
dff0
1830
0000
ENDCHAR
STARTCHAR 0x367E
ENCODING 13950
SWIDTH 886 0
DWIDTH 12 0
BBX 12 13 0 -2
BITMAP
0000
7ff0
6030
7ff0
6180
6db0
6db0
6ff0
6180
d9b0
d9b0
1ff0
0000
ENDCHAR
STARTCHAR 0x3721
ENCODING 14113
SWIDTH 886 0
DWIDTH 12 0
BBX 12 13 0 -2
BITMAP
0000
6ff0
6c30
f7f0
6cc0
6d50
6d50
75f0
ecc0
6ad0
6ad0
e7f0
0000
ENDCHAR
STARTCHAR 0x3722
ENCODING 14114
SWIDTH 886 0
DWIDTH 12 0
BBX 12 13 0 -2
BITMAP
0600
0600
fff0
cd30
1b00
7ff0
6030
7ff0
6b60
dfe0
d330
3ff0
0000
ENDCHAR
STARTCHAR 0x3723
ENCODING 14115
SWIDTH 886 0
DWIDTH 12 0
BBX 12 13 0 -2
BITMAP
0600
0600
fb30
1aa0
36c0
ee70
0000
7fe0
6060
7fe0
6060
7fe0
0000
ENDCHAR
STARTCHAR 0x3724
ENCODING 14116
SWIDTH 886 0
DWIDTH 12 0
BBX 12 13 0 -2
BITMAP
00c0
6b40
fd40
6b40
7b50
3360
fd40
d540
fd40
3350
fd50
3370
0000
ENDCHAR
STARTCHAR 0x3725
ENCODING 14117
SWIDTH 886 0
DWIDTH 12 0
BBX 12 13 0 -2
BITMAP
0600
6660
dfd0
6aa0
fff0
6aa0
fff0
6660
3fc0
30c0
30c0
3fc0
0000
ENDCHAR
STARTCHAR 0x3726
ENCODING 14118
SWIDTH 886 0
DWIDTH 12 0
BBX 12 13 0 -2
BITMAP
0600
0600
fff0
cd30
1b00
31e0
d980
6ff0
0180
37e0
6180
dff0
0000
ENDCHAR
STARTCHAR 0x3727
ENCODING 14119
SWIDTH 886 0
DWIDTH 12 0
BBX 12 13 0 -2
BITMAP
3300
6370
cdc0
fd30
cdf0
fd00
cdf0
fd00
cdf0
0000
6b60
cdb0
0000
ENDCHAR
STARTCHAR 0x3728
ENCODING 14120
SWIDTH 886 0
DWIDTH 12 0
BBX 12 13 0 -2
BITMAP
0000
f7f0
d5b0
d7f0
edb0
d7f0
d000
dff0
d5b0
eda0
ccc0
df70
0000
ENDCHAR
STARTCHAR 0x3729
ENCODING 14121
SWIDTH 886 0
DWIDTH 12 0
BBX 12 13 0 -2
BITMAP
0000
1fc0
7180
0700
1d80
f6f0
36c0
0680
fff0
0e80
3ac0
e670
0000
ENDCHAR
STARTCHAR 0x372A
ENCODING 14122
SWIDTH 886 0
DWIDTH 12 0
BBX 12 13 0 -2
BITMAP
0000
fff0
0d00
7fe0
6d60
6d60
7fe0
0600
fff0
0e80
3ac0
e670
0000
ENDCHAR
STARTCHAR 0x372B
ENCODING 14123
SWIDTH 886 0
DWIDTH 12 0
BBX 12 13 0 -2
BITMAP
0000
37e0
6660
cff0
f550
3550
6f70
f980
37f0
d380
d6a0
35b0
0000
ENDCHAR
STARTCHAR 0x372C
ENCODING 14124
SWIDTH 886 0
DWIDTH 12 0
BBX 12 13 0 -2
BITMAP
0000
7fc0
18c0
1980
0f00
fdf0
6db0
69a0
fff0
0e80
3ac0
e670
0000
ENDCHAR
STARTCHAR 0x372D
ENCODING 14125
SWIDTH 886 0
DWIDTH 12 0
BBX 12 13 0 -2
BITMAP
00c0
3bc0
6ec0
c6d0
fad0
37d0
fac0
36e0
d6a0
daa0
3730
fa30
0000
ENDCHAR
STARTCHAR 0x372E
ENCODING 14126
SWIDTH 886 0
DWIDTH 12 0
BBX 12 13 0 -2
BITMAP
0180
fd80
37f0
fdb0
d5b0
fdb0
d530
fd30
30e0
fc00
0360
d9b0
0000
ENDCHAR
STARTCHAR 0x372F
ENCODING 14127
SWIDTH 886 0
DWIDTH 12 0
BBX 12 13 0 -2
BITMAP
0000
3fe0
0660
fff0
0660
0660
7fe0
0c00
3fe0
e860
1860
1fe0
0000
ENDCHAR
STARTCHAR 0x3730
ENCODING 14128
SWIDTH 886 0
DWIDTH 12 0
BBX 12 13 0 -2
BITMAP
1980
1980
fff0
0600
7fe0
36c0
3fc0
36c0
fff0
0000
6b60
cdb0
0000
ENDCHAR
STARTCHAR 0x3731
ENCODING 14129
SWIDTH 886 0
DWIDTH 12 0
BBX 12 13 0 -2
BITMAP
0000
fb30
0350
fb50
0350
fb50
0350
0350
fb50
db50
da30
fa30
0000
ENDCHAR
STARTCHAR 0x3732
ENCODING 14130
SWIDTH 886 0
DWIDTH 12 0
BBX 12 13 0 -2
BITMAP
0360
fd60
34c0
fff0
34c0
34c0
fdf0
30c0
7cc0
eff0
6cc0
7cc0
0000
ENDCHAR
STARTCHAR 0x3733
ENCODING 14131
SWIDTH 886 0
DWIDTH 12 0
BBX 12 13 0 -2
BITMAP
0000
fff0
c630
fff0
36c0
3fc0
36c0
36c0
3fc0
0600
fff0
0600
0000
ENDCHAR
STARTCHAR 0x3734
ENCODING 14132
SWIDTH 886 0
DWIDTH 12 0
BBX 12 13 0 -2
BITMAP
0000
fef0
36b0
ffa0
36c0
36a0
feb0
31b0
7eb0
e6e0
6680
7e80
0000
ENDCHAR
STARTCHAR 0x3735
ENCODING 14133
SWIDTH 886 0
DWIDTH 12 0
BBX 12 13 0 -2
BITMAP
1800
18c0
fec0
18c0
18c0
ff60
18d0
18d8
fec0
18c0
18c0
ff40
0000
ENDCHAR
STARTCHAR 0x3736
ENCODING 14134
SWIDTH 886 0
DWIDTH 12 0
BBX 12 13 0 -2
BITMAP
3000
31f0
feb0
36b0
66b0
ddf0
0600
fff0
1a60
f360
31c0
7e70
0000
ENDCHAR
STARTCHAR 0x3737
ENCODING 14135
SWIDTH 886 0
DWIDTH 12 0
BBX 12 13 0 -2
BITMAP
3000
33f0
3330
fd30
0d60
1b40
3360
7b30
d530
3330
3360
3300
0000
ENDCHAR
STARTCHAR 0x3738
ENCODING 14136
SWIDTH 886 0
DWIDTH 12 0
BBX 12 13 0 -2
BITMAP
0000
37f0
3300
6660
6cc0
e680
6330
6ff0
6180
6da0
69b0
6180
0000
ENDCHAR
STARTCHAR 0x3739
ENCODING 14137
SWIDTH 886 0
DWIDTH 12 0
BBX 12 13 0 -2
BITMAP
0000
37f0
30c0
6bf0
6b30
ebf0
6d30
6bf0
6b30
6df0
6360
6e30
0000
ENDCHAR
STARTCHAR 0x373A
ENCODING 14138
SWIDTH 886 0
DWIDTH 12 0
BBX 12 13 0 -2
BITMAP
0000
fe30
6db0
6db0
6db0
feb0
6db0
6db0
6db0
6c30
cc30
cc70
0000
ENDCHAR
STARTCHAR 0x373B
ENCODING 14139
SWIDTH 886 0
DWIDTH 12 0
BBX 12 13 0 -2
BITMAP
0000
3fc0
30c0
30c0
30c0
30c0
3fc0
1b00
1b00
1b30
3330
e3f0
0000
ENDCHAR
STARTCHAR 0x373C
ENCODING 14140
SWIDTH 886 0
DWIDTH 12 0
BBX 12 13 0 -2
BITMAP
0300
fd00
03f0
7f60
6d60
7dc0
c770
c000
3fc0
30c0
30c0
3fc0
0000
ENDCHAR
STARTCHAR 0x373D
ENCODING 14141
SWIDTH 886 0
DWIDTH 12 0
BBX 12 13 0 -2
BITMAP
0600
0600
7fe0
0600
0600
fff0
0600
0600
7fe0
0600
0600
fff0
0000
ENDCHAR
STARTCHAR 0x373E
ENCODING 14142
SWIDTH 886 0
DWIDTH 12 0
BBX 12 13 0 -2
BITMAP
0180
0180
fbf0
6180
6180
6ff0
f180
6180
67f0
6180
f980
0ff0
0000
ENDCHAR
STARTCHAR 0x373F
ENCODING 14143
SWIDTH 886 0
DWIDTH 12 0
BBX 12 13 0 -2
BITMAP
0000
feb0
6db0
6db0
feb0
6db0
cc70
0600
3fc0
0600
0600
fff0
0000
ENDCHAR
STARTCHAR 0x3740
ENCODING 14144
SWIDTH 886 0
DWIDTH 12 0
BBX 12 13 0 -2
BITMAP
3000
37f0
fdb0
31b0
7d30
3330
fce0
0600
fff0
0d00
39c0
e070
0000
ENDCHAR
STARTCHAR 0x3741
ENCODING 14145
SWIDTH 886 0
DWIDTH 12 0
BBX 12 13 0 -2
BITMAP
0000
ff30
6c60
6cc0
6c00
ff30
6c60
6cc0
6c00
6c30
cc60
ccc0
0000
ENDCHAR
STARTCHAR 0x3742
ENCODING 14146
SWIDTH 886 0
DWIDTH 12 0
BBX 12 13 0 -2
BITMAP
0000
37f0
6030
c360
01c0
3770
6180
e180
67f0
6180
6180
6ff0
0000
ENDCHAR
STARTCHAR 0x3743
ENCODING 14147
SWIDTH 886 0
DWIDTH 12 0
BBX 12 13 0 -2
BITMAP
0600
0600
fff0
0600
7fe0
6660
7fe0
6660
7fe0
1b60
6830
cfc0
0000
ENDCHAR
STARTCHAR 0x3744
ENCODING 14148
SWIDTH 886 0
DWIDTH 12 0
BBX 12 13 0 -2
BITMAP
0300
0300
7ff0
6d80
7ff0
6db0
7ff0
6cd0
77e0
da60
c7c0
3c70
0000
ENDCHAR
STARTCHAR 0x3745
ENCODING 14149
SWIDTH 886 0
DWIDTH 12 0
BBX 12 13 0 -2
BITMAP
30c0
30c0
fdf0
30c0
fdf0
30c0
7fe0
0060
7fe0
1b00
6860
cfd0
0000
ENDCHAR
STARTCHAR 0x3746
ENCODING 14150
SWIDTH 886 0
DWIDTH 12 0
BBX 12 13 0 -2
BITMAP
00c0
fd80
33f0
ff30
33f0
fd30
cd30
fdf0
0600
1b60
6830
cfc0
0000
ENDCHAR
STARTCHAR 0x3747
ENCODING 14151
SWIDTH 886 0
DWIDTH 12 0
BBX 12 13 0 -2
BITMAP
0000
6fe0
6c60
f7e0
6c60
6fe0
6600
77f0
ec30
6db0
6fb0
e0e0
0000
ENDCHAR
STARTCHAR 0x3748
ENCODING 14152
SWIDTH 886 0
DWIDTH 12 0
BBX 12 13 0 -2
BITMAP
06c0
66c0
6ff0
f580
6ff0
6d80
6ff0
7580
efe0
6370
6630
ece0
0000
ENDCHAR
STARTCHAR 0x3749
ENCODING 14153
SWIDTH 886 0
DWIDTH 12 0
BBX 12 13 0 -2
BITMAP
0300
6b00
fdf0
6b60
6360
7e60
c6a0
f6a0
d6c0
f6c0
0da0
3b30
0000
ENDCHAR
STARTCHAR 0x374A
ENCODING 14154
SWIDTH 886 0
DWIDTH 12 0
BBX 12 13 0 -2
BITMAP
0000
3fc0
30c0
3fc0
30c0
3fc0
0600
fff0
1980
1f80
6660
ce30
0000
ENDCHAR
STARTCHAR 0x374B
ENCODING 14155
SWIDTH 886 0
DWIDTH 12 0
BBX 12 13 0 -2
BITMAP
0180
3180
37f0
f980
3180
37f0
7180
7180
dbf0
d180
3180
37f0
0000
ENDCHAR
STARTCHAR 0x374C
ENCODING 14156
SWIDTH 886 0
DWIDTH 12 0
BBX 12 13 0 -2
BITMAP
0000
1ff0
c000
6b30
0da0
c180
6ff0
0180
6ff0
6340
c660
dc30
0000
ENDCHAR
STARTCHAR 0x374D
ENCODING 14157
SWIDTH 886 0
DWIDTH 12 0
BBX 12 13 0 -2
BITMAP
00c0
00c0
fdf0
d4c0
d4c0
d7f0
fcc0
d4c0
d5f0
d4c0
fcc0
07f0
0000
ENDCHAR
STARTCHAR 0x374E
ENCODING 14158
SWIDTH 886 0
DWIDTH 12 0
BBX 12 13 0 -2
BITMAP
0180
1da0
f7f0
3340
36f0
fbc0
3630
77f0
7800
d7f0
d630
37f0
0000
ENDCHAR
STARTCHAR 0x374F
ENCODING 14159
SWIDTH 886 0
DWIDTH 12 0
BBX 12 13 0 -2
BITMAP
0000
7fe0
0c00
1980
3300
1ac0
0c60
fff0
0600
36c0
6660
c630
0000
ENDCHAR
STARTCHAR 0x3750
ENCODING 14160
SWIDTH 886 0
DWIDTH 12 0
BBX 12 13 0 -2
BITMAP
0000
37f0
6030
db60
f9c0
3770
6180
f980
37f0
d980
d180
37f0
0000
ENDCHAR
ENDFONT
